<?xml version="1.0" encoding="UTF-8" standalone="no"?>
<!-- Generator: Adobe Illustrator 21.0.0, SVG Export Plug-In . SVG Version: 6.00 Build 0)  -->

<svg
   xmlns:dc="http://purl.org/dc/elements/1.1/"
   xmlns:cc="http://creativecommons.org/ns#"
   xmlns:rdf="http://www.w3.org/1999/02/22-rdf-syntax-ns#"
   xmlns:svg="http://www.w3.org/2000/svg"
   xmlns="http://www.w3.org/2000/svg"
   xmlns:xlink="http://www.w3.org/1999/xlink"
   xmlns:sodipodi="http://sodipodi.sourceforge.net/DTD/sodipodi-0.dtd"
   xmlns:inkscape="http://www.inkscape.org/namespaces/inkscape"
   sodipodi:docname="print.svg"
   xml:space="preserve"
   style="enable-background:new 0 0 693.6 693.6;"
   viewBox="0 0 693.6 693.6"
   y="0px"
   x="0px"
   id="Layer_1"
   version="1.1"
   inkscape:version="0.92.1 15371"><metadata
     id="metadata153"><rdf:RDF><cc:Work
         rdf:about=""><dc:format>image/svg+xml</dc:format><dc:type
           rdf:resource="http://purl.org/dc/dcmitype/StillImage" /></cc:Work></rdf:RDF></metadata><defs
     id="defs151" /><sodipodi:namedview
     inkscape:current-layer="Layer_1"
     inkscape:window-maximized="1"
     inkscape:window-y="24"
     inkscape:window-x="0"
     inkscape:cy="346.79999"
     inkscape:cx="102.8644"
     inkscape:zoom="0.68050752"
     showgrid="false"
     id="namedview149"
     inkscape:window-height="744"
     inkscape:window-width="1366"
     inkscape:pageshadow="2"
     inkscape:pageopacity="0"
     guidetolerance="10"
     gridtolerance="10"
     objecttolerance="10"
     borderopacity="1"
     bordercolor="#666666"
     pagecolor="#ffffff" /><style
     type="text/css"
     id="style2">
	.st0{clip-path:url(#SVGID_2_);}
	.st1{fill:#939393;}
</style><g
     id="g146"
     transform="matrix(1.3282155,0,0,1.3226483,-118.40936,-143.50315)"><g
       id="g144"><g
         id="g142"><defs
           id="defs5"><circle
             id="SVGID_1_"
             cx="350.20001"
             cy="370.70001"
             r="261.79999" /></defs><clipPath
           id="SVGID_2_"><use
             xlink:href="#SVGID_1_"
             style="overflow:visible"
             id="use7"
             x="0"
             y="0"
             width="100%"
             height="100%" /></clipPath><g
           class="st0"
           clip-path="url(#SVGID_2_)"
           id="g140"><path
             class="st1"
             d="m 110.5,654.1 c 0,0 0,0.1 0,0 l 2.6,0.1 c 0.2,-1.7 0.3,-3.4 0.5,-5.1 2,-19.5 3.7,-39.6 2.1,-59.5 -1.2,-14.3 -5.2,-28.8 -8.3,-42.9 -1.6,-7.1 -3.2,-14.4 -4.5,-21.6 -3.7,-20 -4.9,-41 -5.4,-64.4 -0.1,-6.9 -0.1,-13.9 -0.1,-20.6 0,-14.4 -0.8,-29.3 -2.1,-43.9 -1.1,-11.7 -2.4,-23.7 -4.3,-35.2 -1.6,-9.6 -3.8,-19.5 -4.9,-29.3 -2.2,-19.1 -2,-39.6 -0.8,-64.4 1,-20.7 3.5,-41.8 6.6,-64.4 1.3,-9.1 2.4,-18.3 3.8,-27.2 1.9,-12.2 3.6,-24.9 5.1,-37.3 2.4,-19.4 4.3,-39.1 5.8,-58.2 l 0.5,-6.3 c 2,-26.1 4.1,-46 6,-64.5 0,0 0,0 0,-0.1 h -2.6 c -1.9,18.5 -2.8,38.4 -4.9,64.4 l -0.5,6.3 c -1.5,19.1 -3.6,38.8 -6.1,58.1 -1.5,12.4 -2.5,25.1 -4.4,37.3 -1.4,8.9 -3.4,18.1 -4.7,27.2 -3.2,22.7 -4.9,43.8 -6,64.5 -1.3,24.9 -0.7,45.4 1.5,64.6 1.1,9.8 2.9,19.7 4.5,29.4 1.9,11.5 3.6,23.4 4.7,35.1 1.3,14.6 0.6,29.4 0.6,43.8 0,6.8 0,13.8 0.1,20.7 0.4,23.4 3.1,44.6 6.8,64.6 1.3,7.2 3,14.6 4.5,21.7 3.1,14 5.8,28.5 7,42.7 1.7,19.7 -0.7,39.8 -2.7,59.2 0,1.8 -0.2,3.5 -0.4,5.2 z"
             id="path10"
             inkscape:connector-curvature="0"
             style="fill:#939393" /><path
             class="st1"
             d="m 98.9,654.2 h 1.7 c 1.4,-23.7 1.8,-44.8 0.4,-64.5 -1.1,-14.9 -3,-30 -4.8,-44.6 -0.8,-6.5 -1.7,-13.2 -2.5,-19.9 -2.9,-24.6 -4.3,-45.1 -4.3,-64.4 0,-6.9 0.2,-13.9 0.3,-20.7 0.4,-14.3 -0.1,-29.2 -1.3,-43.8 -1.1,-12.6 -3.4,-25.4 -5.7,-37.8 -1.6,-8.8 -3.1,-17.8 -4.3,-26.8 -2.6,-19 -4.1,-39.4 -3.3,-64.4 0.8,-24.6 3.2,-45 6.8,-64.4 1.5,-7.9 3.3,-16 5.1,-23.8 3,-13.3 7,-27.1 8.6,-40.7 1.6,-14.5 1.1,-29.2 1,-43.4 -0.1,-6.9 -0.1,-14.1 0,-21.1 C 96.8,60 98,45.8 99,32.1 c 0.6,-7.4 1.2,-15.1 1.6,-22.7 0,0 0,0 0,0 h -1.7 c -0.5,7.5 -1.1,15.2 -1.6,22.6 -1.1,13.7 -2.7,27.9 -3,41.8 -0.1,7.1 -0.1,14.2 0,21.2 0.1,14.2 0.2,28.8 -1.4,43.2 -1.5,13.5 -4.4,27.3 -7.4,40.6 -1.8,7.8 -3.6,15.9 -5.1,23.8 -3.7,19.4 -4.8,39.9 -5.6,64.6 -0.8,25 -0.9,45.5 1.7,64.6 1.2,8.9 3.6,18 5.3,26.8 2.3,12.3 4.7,25.1 5.9,37.6 1.3,14.5 0.5,29.3 0.1,43.6 -0.2,6.8 -0.3,13.8 -0.3,20.8 0,19.4 1.1,39.9 4,64.6 0.8,6.6 1.7,13.4 2.5,19.9 1.9,14.6 4.1,29.7 5.2,44.6 1.3,19.7 1.2,40.8 -0.3,64.5 0,0 0,0 0,0 z"
             id="path12"
             inkscape:connector-curvature="0"
             style="fill:#939393" /><path
             class="st1"
             d="m 120.3,654.1 c 0,0 0,0.1 0,0 l 2.3,0.1 c 0.5,-4.9 1,-10 1.6,-14.8 1.8,-16.3 3.7,-33.1 2.2,-49.7 -1.4,-14.8 -5.2,-29.7 -9.1,-44.2 -1.8,-6.7 -3.7,-13.6 -5.3,-20.4 -4.8,-20.5 -7.9,-42.2 -8.2,-64.3 -0.1,-8.1 0.1,-16.3 0.2,-24.2 0.3,-13.2 1.1,-26.9 0,-40.3 -1,-12.9 -4.4,-26 -6.6,-38.7 -1.5,-8.5 -2.5,-17.2 -3.6,-25.8 -2.8,-21.2 -3,-42.8 -1.3,-64.3 1.5,-18.4 4.8,-37.1 7.8,-55.1 0.5,-3.1 1,-6.2 1.6,-9.3 3.2,-19.5 6.3,-40.6 9.6,-64.5 3.4,-24 5.1,-44.2 6.6,-64.5 0.7,-9.1 1.6,-18.3 2,-27.2 0.6,-12.2 1.3,-24.8 2.5,-37.3 0,0 0,0 0,-0.1 h -2.3 c -1.2,12.4 -0.9,25.1 -1.5,37.3 -0.4,8.9 -0.4,18.1 -1.1,27.2 -1.5,20.3 -4.4,40.4 -7.8,64.4 -3.3,23.9 -7.3,45 -10.5,64.5 -0.5,3.1 -1,6.2 -1.6,9.3 -3.1,18.1 -6,36.8 -7.4,55.2 -1.7,21.6 -0.5,43.3 2.3,64.6 1.1,8.6 2.8,17.4 4.3,25.9 2.2,12.6 4.3,25.7 5.3,38.6 1.1,13.4 0.6,27 0.3,40.2 -0.2,7.9 -0.4,16.1 -0.2,24.2 0.3,22.2 3.1,44 7.9,64.6 1.6,6.8 3.5,13.7 5.3,20.4 3.9,14.4 8.4,29.3 9.7,44 1.5,16.5 -1.6,33.2 -3.4,49.5 -0.5,4.7 -1.1,9.8 -1.6,14.7 z"
             id="path14"
             inkscape:connector-curvature="0"
             style="fill:#939393" /><path
             class="st1"
             d="m 90.2,654.2 h 0.9 C 91.8,630.5 89.6,607.3 88.4,589.7 87,570.9 85.6,551 82.8,525.2 L 82.2,520 c -2.1,-19.4 -4.3,-39.5 -4.6,-59.2 -0.1,-9.2 0.8,-18.6 1.1,-27.7 0.4,-12 1.1,-24.5 0.5,-36.8 C 78.6,383 76.7,369.5 75,356.4 74,348.3 72.9,340 72.1,331.8 c -1.8,-18.7 -3.3,-39.2 -2.9,-64.4 0.5,-25.9 1.9,-45.8 4.6,-64.4 1.3,-8.9 3.5,-17.9 5.1,-26.7 2.3,-12.4 4.6,-25.2 5.9,-37.8 1.5,-14.2 1,-28.6 1.2,-42.6 0.1,-7.2 0.2,-14.6 0.5,-21.9 0.4,-10 1.6,-20.2 2.3,-30.1 0.8,-11.3 1.9,-22.9 2.3,-34.4 0,0 0,0 0,0 h -0.9 c -0.4,11.4 -1.6,23.1 -2.4,34.3 -0.7,9.9 -1.1,20.1 -1.5,30.1 -0.3,7.3 -0.4,14.8 -0.5,22 -0.2,13.9 -1.4,28.3 -2.9,42.5 -1.3,12.6 -3.6,25.4 -5.8,37.7 -1.6,8.8 -3.4,17.8 -4.7,26.7 -2.7,18.7 -3,38.6 -3.5,64.6 -0.4,25.3 -0.3,45.8 1.5,64.6 0.8,8.2 1.9,16.6 2.9,24.7 1.7,13 3.8,26.5 4.4,39.8 0.6,12.2 0,24.6 -0.4,36.7 -0.3,9.1 -1.1,18.5 -1,27.8 0.3,19.8 3.4,39.9 5.5,59.3 l 0.6,5.2 c 2.8,25.8 4.2,45.7 5.5,64.5 1.4,17.3 3.1,40.6 2.3,64.2 0,0 0,0 0,0 z"
             id="path16"
             inkscape:connector-curvature="0"
             style="fill:#939393" /><path
             class="st1"
             d="m 39.1,654.1 c -0.6,-7 -1.5,-14.1 -2.3,-21 -1.7,-14.2 -3.2,-29 -3.3,-43.4 -0.1,-11.1 1.2,-22.4 2,-33.4 0.8,-10.2 1.5,-20.7 1.5,-31.1 0,-15 -2.3,-30.2 -3.8,-45 -0.6,-6.4 -1.3,-13.1 -1.9,-19.6 -1.8,-21.8 -1.6,-43.4 -0.4,-64.4 0.4,-7.6 1.1,-15.2 1.7,-22.7 1.1,-13.7 1.7,-27.9 1.6,-41.8 C 34.1,317.9 33.6,304 32.4,290.5 31.7,282.9 31,275 30.5,267.2 c -1.4,-22.3 -0.9,-44.9 -0.4,-64.4 0.5,-20.6 1.1,-42.7 3.2,-64.4 0.8,-8.9 1.7,-18 2.7,-26.8 1.5,-12.4 3.5,-25.1 4.4,-37.7 1.5,-21.1 0.7,-42.8 -1.3,-64.5 h -1.2 c 0,0 0,0 0,0.1 2,21.7 1.6,43.3 0.1,64.4 -0.9,12.5 -1.6,25.3 -3.1,37.6 -1.1,8.8 -2,17.9 -2.9,26.8 -2.1,21.8 -3.6,43.9 -4.1,64.5 -0.5,19.5 -0.8,42.2 0.6,64.5 0.5,7.8 1.2,15.7 1.9,23.3 1.2,13.5 2.5,27.4 2.6,41.1 0.1,13.9 -1.4,28 -2.5,41.7 -0.6,7.4 -1.2,15.1 -1.7,22.7 -1.2,21 -0.4,42.8 1.3,64.6 0.5,6.5 1.2,13.2 1.9,19.6 1.5,14.7 3.4,29.9 3.4,44.8 0,10.3 -1.4,20.8 -2.2,31 -0.8,11 -1.7,22.3 -1.6,33.5 0.1,14.5 2.4,29.3 4,43.6 0.8,6.9 1.6,13.9 2.3,20.9 h 1.2 c 0,0.1 0,0 0,0 z"
             id="path18"
             inkscape:connector-curvature="0"
             style="fill:#939393" /><path
             class="st1"
             d="m 136.1,654.2 c 0,0 0,0 0,0 h 1.8 c 0.2,-4.3 0.5,-8.7 0.7,-13 1,-16.9 1,-34.3 -0.8,-51.5 -1.6,-15.8 -4.6,-31.9 -8.5,-47.4 -1.4,-5.6 -2.9,-11.4 -4.3,-17.2 -5.3,-22.7 -9.8,-43.8 -11,-64.4 -0.5,-8.9 -0.3,-17.9 -0.5,-26.7 -0.2,-12.4 -0.9,-25.2 -2.2,-37.8 -1.2,-11.7 -2.9,-23.5 -4.9,-35 -1.7,-9.7 -2.9,-19.7 -4.1,-29.5 -2.6,-21 -2.9,-42.7 -0.7,-64.3 1.3,-12.2 2.7,-24.6 4.7,-36.6 1.5,-9.1 3.9,-18.6 5.2,-27.8 1.1,-8.3 1.9,-16.7 2.8,-24.9 1.3,-13 1.6,-26.4 4,-39.5 1.8,-9.8 4.4,-19.7 6.8,-29.4 2.8,-11.5 6.1,-23.4 7.9,-35.1 2.5,-16.2 3.7,-32.6 4.2,-48.5 0.2,-5.3 0.4,-10.7 0.7,-16 0,0 0,0 0,0 h -1.8 c -0.3,5.3 -0.5,10.8 -0.7,16 -0.6,15.9 -0.8,32.2 -3.3,48.4 -1.8,11.7 -4.9,23.5 -7.6,35 -2.3,9.6 -4.7,19.6 -6.5,29.4 -2.4,13.2 -4.9,26.7 -6.2,39.7 -0.8,8.1 -1.7,16.6 -2.8,24.9 -1.2,9.3 -1.7,18.7 -3.2,27.8 -2,12 -4.9,24.5 -6.2,36.7 -2.3,21.7 -2.1,43.5 0.5,64.6 1.2,9.9 2.8,19.9 4.5,29.6 2,11.4 4.5,23.3 5.7,34.9 1.3,12.6 1.2,25.3 1.4,37.7 0.2,8.8 1.3,17.8 1.9,26.7 1.3,20.7 3.7,41.8 9.1,64.6 1.3,5.7 2.8,11.5 4.3,17.2 3.9,15.5 8.2,31.5 9.9,47.2 1.8,17.1 1,34.5 0,51.3 -0.3,4.1 -0.6,8.5 -0.8,12.9 z"
             id="path20"
             inkscape:connector-curvature="0"
             style="fill:#939393" /><path
             class="st1"
             d="M 78.2,654.2 H 79 c 1.1,-19.4 2.5,-40.5 1.9,-64.5 -0.6,-24.1 -3.2,-45.2 -5.4,-64.5 -0.7,-6.7 -1.6,-13.5 -2.4,-20 -1.9,-14.6 -2.6,-29.6 -3.2,-44.4 -0.5,-12 -0.5,-24.3 -0.2,-36.1 0.2,-9.3 -0.2,-18.9 -0.3,-28.4 -0.3,-16.8 -0.9,-33.8 -2.5,-50.3 -0.4,-4.7 -0.9,-9.5 -1.3,-14.3 -1.9,-22.2 -3.9,-43.9 -4.4,-64.4 -0.4,-17.6 0.1,-40.8 3,-64.4 1.2,-9.6 2.3,-19.3 3.9,-28.7 2,-11.7 3.8,-23.9 4.9,-35.8 1.3,-13.8 2.1,-27.8 2.2,-41.4 0,-7.6 0.1,-15.4 0.4,-23.1 0.4,-12.5 1.3,-25.3 2.3,-37.6 0.7,-8.8 0.7,-17.9 1.2,-26.9 0,0 0,0 0,0 h -0.8 c -0.5,8.9 -1.4,18 -2.1,26.8 -1,12.3 -1.9,25.1 -2.3,37.6 -0.3,7.7 -0.3,15.6 -0.4,23.2 -0.1,13.5 -0.6,27.5 -1.9,41.3 -1.1,11.9 -2.2,24 -4.2,35.7 -1.6,9.4 -4.1,19.2 -5.3,28.7 -2.9,23.7 -1.7,46.9 -1.3,64.6 0.5,20.6 1.2,42.3 3.1,64.5 0.4,4.8 0.8,9.6 1.3,14.3 1.5,16.4 2.8,33.5 3,50.2 0.2,9.4 0.6,19 0.3,28.3 -0.3,11.9 -1.8,24.1 -1.3,36.2 0.6,14.8 3.2,29.9 5,44.5 0.8,6.6 1.7,13.3 2.4,20 2.1,19.3 3,40.4 3.7,64.4 0.8,24 1,45.1 -0.1,64.5 0,0 0,0 0,0 z"
             id="path22"
             inkscape:connector-curvature="0"
             style="fill:#939393" /><path
             class="st1"
             d="m 68.9,654.2 h 2.6 c 0.6,-21.3 -1.1,-42.9 -2.4,-63.9 l -0.4,-6.8 c -1.2,-19.1 -2.2,-38.9 -3.6,-58.4 -0.2,-2.9 -0.4,-5.8 -0.6,-8.8 -1.3,-18.2 -2.8,-37.1 -3.2,-55.7 -0.3,-12.9 -0.9,-26 -0.7,-38.6 0.1,-8.5 1.1,-17.2 1.1,-25.9 0,-20.1 -0.9,-41.2 -2.4,-64.5 -0.4,-6.3 -0.9,-12.6 -1.3,-18.8 -1.1,-15 -2.1,-30.5 -2.6,-45.7 -0.6,-21.2 -0.7,-42.9 1.2,-64.4 0.9,-9.7 2.6,-19.5 3.7,-29.1 1.3,-11.6 2.6,-23.6 3.5,-35.4 0.9,-12.1 0.9,-24.4 1.3,-36.3 0.3,-9.2 1,-18.8 1.6,-28.2 0.5,-8.2 1.2,-16.6 1.8,-24.6 1.1,-13.1 2.7,-26.6 3.1,-39.9 0,0 0,0 0,0 H 69 c -0.3,13.2 -0.5,26.7 -1.5,39.8 -0.7,8.1 -1.3,16.4 -1.8,24.7 -0.6,9.4 -1.1,19 -1.4,28.2 -0.4,11.9 -0.9,24.2 -1.8,36.3 -0.9,11.8 -2.4,23.8 -3.7,35.4 -1.1,9.5 -1.7,19.4 -2.6,29.1 -1.9,21.5 -3.8,43.3 -3.2,64.6 0.5,15.3 1.9,30.8 3,45.8 0.4,6.1 0.9,12.5 1.3,18.7 1.5,23.3 3,44.3 3,64.4 0,8.6 -0.2,17.4 -0.3,25.8 -0.2,12.7 -1,25.8 -0.8,38.7 0.4,18.6 1.8,37.5 3.1,55.7 0.2,2.9 0.4,5.8 0.6,8.8 1.4,19.5 2.9,39.2 4,58.4 l 0.4,6.8 c 1.4,20.9 2.2,42.5 1.6,63.8 0,0 0,0 0,0 z"
             id="path24"
             inkscape:connector-curvature="0"
             style="fill:#939393" /><path
             class="st1"
             d="m 578.7,654.2 h 1.2 c 0,-6.4 0,-13 -0.1,-19.3 -0.1,-14.8 -0.4,-30.1 0.4,-45.1 0.3,-6.2 0.9,-12.4 1.4,-18.5 1.3,-15.1 3.5,-30.7 2.2,-46.1 -1.2,-14.8 -5.5,-29.8 -8.9,-44.4 -1.6,-6.6 -3.2,-13.5 -4.6,-20.2 -4.7,-22.7 -6.3,-45.3 -7.8,-64.4 -0.5,-7.2 -1,-14.4 -1.5,-21.5 -0.9,-14.1 -2.7,-28.7 -4.1,-43 -0.9,-8.8 -2,-17.7 -3.1,-26.3 -1.6,-12.7 -2,-25.8 -3,-39.2 -2.1,-25.9 -2.3,-48.7 0.5,-67.6 2.2,-14.8 5.5,-28.8 9.2,-42.3 1.7,-6.1 3.5,-12.5 5,-18.9 4.9,-19.6 9.2,-41 11.5,-63.5 2.1,-20.2 2.7,-41.3 2.8,-64.5 0,0 0,0 0,0 h -1.2 c -0.1,23.2 -1.3,44.3 -3.4,64.4 -2.3,22.5 -5.9,43.8 -10.8,63.3 -1.6,6.3 -3.3,12.7 -5,18.8 -3.8,13.6 -7.7,27.6 -9.9,42.5 -2.8,19 -2.9,41.8 -0.9,67.8 1.1,13.4 2.6,26.5 4.1,39.3 1.1,8.6 2.8,17.6 3.6,26.3 1.5,14.3 2,28.9 2.9,43 0.5,7 0.9,14.3 1.5,21.5 1.4,19.2 4.3,41.8 9,64.6 1.4,6.7 3,13.6 4.6,20.2 3.5,14.5 6.2,29.5 7.4,44.2 1.2,15.3 -0.1,30.8 -1.3,45.9 -0.5,6.1 -1,12.3 -1.4,18.5 -0.9,15.1 -0.7,30.4 -0.6,45.2 0.2,6.3 0.3,12.9 0.3,19.3 0,0 0,0 0,0 z"
             id="path26"
             inkscape:connector-curvature="0"
             style="fill:#939393" /><path
             class="st1"
             d="m 183.7,241.2 c -0.4,-0.3 -0.7,-0.4 -1.1,-0.4 -2.6,0 -3.6,6.3 -5.6,24.2 -1.7,14.6 -4.4,39.1 -3,60.6 1.1,17.6 4.1,33.2 7.2,45.7 0.6,2.2 1.1,4.4 1.6,6.4 0.7,2.9 1.3,5.5 1.8,7.7 1.7,7.5 1.9,8.5 2.9,8.5 0.8,0 1.1,-0.9 1.3,-4.7 0.3,-4.5 0.4,-13.2 0.6,-23.3 0.2,-11.3 1.2,-24 1.6,-35.9 0.2,-6 0.5,-11.7 0.8,-17.2 0.7,-15.2 1.2,-28.4 0.3,-40.1 -1.4,-15.9 -5.5,-29.3 -8.4,-31.5 z m 5.7,71.4 c -0.3,5.5 -0.5,11.2 -0.8,17.2 -0.4,11.9 -0.3,24.6 -0.5,35.9 -0.2,10 -0.3,18.7 -0.6,23.2 -0.1,1 -0.1,1.7 -0.2,2.3 -0.4,-1.4 -0.9,-3.8 -1.5,-6.2 -0.5,-2.3 -1.1,-4.9 -1.8,-7.8 -0.5,-2 -1,-4.1 -1.6,-6.4 -3.1,-12.4 -7,-27.9 -8.1,-45.4 -1.3,-21.4 2.4,-45.8 4.1,-60.4 1.2,-10.3 2.7,-23.1 4.3,-23.1 0.1,0 0.2,0.1 0.3,0.1 2.3,1.8 5.2,14.5 6.5,30.5 1.2,11.8 0.6,24.9 -0.1,40.1 z"
             id="path28"
             inkscape:connector-curvature="0"
             style="fill:#939393" /><path
             class="st1"
             d="m 198,231 c -1.8,-1.8 -3.6,-3.6 -5.2,-8.2 -2.2,-6.4 -3.6,-18.2 -5.1,-27.8 -1.1,-7.1 -2.1,-13.2 -3,-15.8 -0.3,-1 -0.8,-2 -1.6,-2 -1.6,0 -2.3,3.2 -4.6,16.6 -0.5,3 -1.1,6.4 -1.7,9.8 -1.3,6.8 -2.8,14.2 -4.3,21.9 -2.4,11.6 -6.1,23.7 -8.2,36.4 -4.3,25.8 -5.5,46.6 -4.5,63.8 0.8,13.2 3.9,25 6.9,39.9 1.5,7.2 3.1,15.4 4.7,24.6 2.3,12.8 3.4,27.7 5.6,42.2 2.5,16.8 5.8,32.8 8,43.4 3.2,15.9 5.4,18.1 7.1,18.1 1.4,0 2.6,-1.6 3.8,-5.3 2.9,-9.2 4.8,-28.8 5.9,-55.4 0.8,-19.5 1.9,-43.6 2.2,-69 0.1,-11.8 -0.2,-24 0,-35.7 0.1,-6.8 0.3,-13.5 0.4,-19.9 0.6,-28.2 1.1,-52.6 -0.5,-64.4 -1.3,-8.5 -3.5,-10.8 -5.9,-13.2 z m 4.5,77.6 c -0.1,6.5 -0.3,13.1 -0.4,19.9 -0.2,11.8 0.3,24 0.1,35.8 -0.3,25.5 -1.6,49.5 -2.4,69 -1.1,26.4 -3,46 -6,55.1 -1.3,4.1 -2.3,4.4 -2.5,4.4 -0.7,0 -2.8,-1.7 -5.9,-17 -2.1,-10.6 -4.6,-26.5 -7.1,-43.3 -2.2,-14.5 -3.4,-29.5 -5.7,-42.2 -1.6,-9.2 -3.3,-17.4 -4.8,-24.6 -3,-14.9 -5.7,-26.6 -6.5,-39.7 -1,-17.1 -0.2,-37.9 4.1,-63.5 2.1,-12.7 4.4,-24.7 6.8,-36.3 1.6,-7.8 3.1,-15.1 4.3,-22 0.6,-3.5 1.2,-6.8 1.7,-9.8 1.2,-7 2.4,-14.2 3.3,-15.4 0.1,0.2 0.2,0.4 0.4,1 0.9,2.6 1.8,8.6 2.9,15.6 1.6,10.1 3.9,21.5 6.2,28 1.7,4.9 3.7,6.9 5.5,8.6 2.3,2.3 4.3,4.4 5.4,12.4 1.9,11.5 1.2,35.8 0.6,64 z"
             id="path30"
             inkscape:connector-curvature="0"
             style="fill:#939393" /><path
             class="st1"
             d="m 157.2,654.1 c -0.1,0.1 -0.1,0.1 0,0 h 1.4 c 0.2,-2.6 0.3,-5.1 0.5,-7.7 1.2,-18.6 2.2,-37.9 0.5,-56.8 -2,-21.7 -7.7,-43.5 -13.5,-64.6 l -0.1,-0.3 c -5.8,-21 -11,-42.7 -12.5,-64 -0.7,-10.2 -0.3,-20.7 0,-30.7 0.3,-11.1 0.6,-22.5 -0.4,-33.8 -1.2,-12.9 -5.4,-26 -8.2,-38.7 -1.9,-8.5 -2.6,-17.2 -4,-25.8 -3.4,-21 -4.3,-42.6 -1.7,-64.3 1.5,-12.1 3.2,-24.3 5.5,-36.2 1.8,-9.3 4.9,-18.8 6.3,-28.3 1.4,-9.5 1.7,-19.2 2.6,-28.5 1.2,-11.8 2.3,-24 4.5,-36 1.9,-10.6 5.1,-21.4 7.7,-31.8 2.6,-10.7 5,-21.8 7,-32.7 3.2,-18.3 4.2,-36.8 5.3,-54.8 0.2,-3.3 0.4,-6.5 0.6,-9.8 0,0 0,0 0,0 h -1.4 c -0.2,3.2 -0.4,6.5 -0.6,9.7 -1.1,17.9 -1.2,36.4 -4.4,54.6 -1.9,10.9 -4.7,21.9 -7.3,32.6 -2.6,10.4 -6.3,21.2 -8.2,31.9 -2.2,12 -3.2,24.3 -4.4,36.1 -1,9.3 -2.3,19 -3.8,28.4 -1.4,9.4 -3.2,19 -5,28.2 -2.4,11.9 -4.9,24.2 -6.4,36.3 -2.6,21.8 -1.2,43.5 2.2,64.7 1.4,8.6 3.5,17.4 5.4,25.9 2.8,12.6 5.6,25.7 6.7,38.5 1,11.2 0.9,22.6 0.6,33.6 -0.3,10.1 -1,20.6 -0.2,30.9 1.5,21.4 7.5,43.2 13.2,64.3 l 0.1,0.3 c 5.8,21 12.5,42.8 14.5,64.4 1.7,18.9 -0.6,38.1 -1.8,56.6 -0.4,2.7 -0.6,5.3 -0.7,7.8 z"
             id="path32"
             inkscape:connector-curvature="0"
             style="fill:#939393" /><path
             class="st1"
             d="m 561.7,654.2 c 0,-8.7 -0.1,-17.4 -0.3,-26 -0.3,-12.6 -0.3,-25.7 0.1,-38.5 0.2,-5.7 0.5,-11.4 0.8,-16.9 0.9,-15.5 0.7,-31.5 -1.5,-46.6 -1.8,-12.6 -5.9,-24.6 -10,-37.3 -2.5,-7.7 -5.1,-15.7 -7.3,-24 -5.7,-22 -7.9,-46.5 -9.6,-67.6 -0.7,-9 -1.1,-18 -1.7,-26.6 -0.9,-13.4 -1.7,-26 -2.9,-38.9 -0.9,-9.4 -1.8,-18.9 -2.8,-28.1 -1.4,-11.9 -2.9,-24.2 -3.9,-36.4 -2.1,-25.2 -3,-46 -0.7,-67.6 2.5,-24 9.4,-51.7 16.2,-74 2.8,-9.2 4.5,-17.2 7.4,-24.9 3.7,-10 7.3,-19.5 9.8,-30 3.8,-16.2 6.3,-36.3 6.4,-61.4 v 0 h -1 c 0,25 -2.8,45 -6.6,61.1 -2.5,10.4 -6.2,19.8 -9.9,29.8 -2.8,7.7 -5,15.7 -7.8,24.9 -6.8,22.4 -12.2,50.2 -14.7,74.3 -2.3,21.7 -2.4,42.6 -0.3,67.8 1,12.1 1.8,24.5 3.1,36.4 1.1,9.2 2.4,18.7 3.3,28.1 1.2,12.9 2.5,25.5 3.4,38.9 0.6,8.7 0.7,17.6 1.5,26.7 1.7,21.2 5,45.8 10.7,67.8 2.2,8.3 4.8,16.3 7.3,24.1 4.1,12.7 7.6,24.6 9.5,37.1 2.2,15 1.3,30.9 0.4,46.3 -0.3,5.6 -0.6,11.3 -0.8,17 -0.4,12.9 -0.7,25.9 -0.4,38.6 0.2,8.5 1.5,17.3 1.5,25.9 v 0 z"
             id="path34"
             inkscape:connector-curvature="0"
             style="fill:#939393" /><path
             class="st1"
             d="m 182.7,654.2 h 1.7 c 0.1,-18.4 0.3,-38.5 0,-63.4 -0.3,-19.4 -1.3,-39.6 -6.5,-53.9 -1.8,-5.1 -4.3,-9.4 -6.8,-14 -4.5,-8 -8.5,-17.1 -11.3,-32.1 -2.5,-13.5 -3.9,-31.6 -4.7,-50.7 -0.6,-13.8 -0.8,-28.2 -2.2,-40.6 -1.9,-17.9 -5.2,-32.3 -8.3,-45.1 -2,-8.2 -3.8,-15.9 -5.2,-23.7 -3.4,-20.2 -2.8,-41.5 1.1,-63.2 2,-11.1 3.7,-22.4 6.7,-33.4 2.7,-10.2 6.5,-20.7 8.5,-31.1 2.1,-10.9 3.7,-21.9 4.9,-32.6 1.2,-10.5 2.5,-21.3 4.6,-31.9 2,-10.4 4.8,-21 7.5,-31.2 2.9,-10.9 5.4,-22.2 7.4,-33.2 3.9,-21.7 4.1,-42.9 4.2,-64.6 0,0 0,0 0,0 h -1.7 c -0.1,21.6 0.4,42.8 -3.5,64.4 -2,11 -5.8,22.3 -8.6,33.1 -2.7,10.3 -5.4,20.9 -7.4,31.3 -2,10.7 -3.2,21.5 -4.4,32 -1.2,10.7 -2.8,21.7 -4.9,32.5 -2,10.3 -5.2,20.8 -7.9,31 -2.9,11 -5.1,22.3 -7.1,33.5 -4,21.8 -4.2,43.2 -0.8,63.6 1.3,7.9 3.2,15.6 5.2,23.8 3.1,12.7 6.8,27.1 8.7,44.9 1.3,12.4 1.9,26.7 2.5,40.5 0.8,19.2 0.9,37.3 3.4,50.9 2.8,15.3 8.5,24.4 13,32.5 2.5,4.5 5,8.8 6.8,13.8 5.1,14.2 4.5,34.2 4.7,53.5 0.4,24.9 0.5,45 0.4,63.4 0,0 0,0 0,0 z"
             id="path36"
             inkscape:connector-curvature="0"
             style="fill:#939393" /><path
             class="st1"
             d="m 597.4,589.8 c 1.1,-7.6 2.6,-15.3 4.1,-22.8 2.8,-13.7 5.2,-27.8 5.2,-41.8 -0.1,-15.1 -3.5,-30.3 -6.8,-45.1 -1.4,-6.4 -2.9,-13 -4.1,-19.5 -3.9,-21.3 -4.7,-43.1 -5.7,-64.1 v -0.3 c -1,-20.7 -1.9,-42.7 -3.1,-64.5 -1.3,-23.9 -2.6,-44 -4.6,-64.5 -0.3,-3.3 -0.7,-6.7 -1,-10 -1.8,-17.8 -3.8,-36.3 -2.7,-54.4 0.9,-13.7 2.9,-27.6 5.4,-41.1 1.4,-7.6 2.9,-15.6 4,-23.3 3.2,-21.7 3.8,-43.5 4.6,-64.5 0.7,-20 1.8,-42.6 1.9,-64.5 v 0 h -0.7 c 0,21.9 -1.6,44.5 -2.3,64.5 -0.8,21.1 -1.8,42.8 -4.9,64.4 -1.1,7.8 -2.6,15.7 -4,23.3 -2.5,13.5 -5.1,27.5 -5.9,41.2 -1.1,18.2 1.8,36.7 3.6,54.6 0.3,3.3 0.7,6.7 1,10 1.9,20.4 2.4,40.5 3.7,64.5 1.2,21.8 2.8,43.8 3.7,64.5 v 0.3 c 1,21.1 1.2,42.8 5.1,64.2 1.2,6.5 2.7,13.1 4.1,19.5 3.3,14.7 6.7,29.9 6.8,44.8 0.1,13.8 -1.6,27.9 -4.3,41.5 -1.5,7.5 -3.1,15.2 -4.1,22.9 -2.5,18 -2.6,36.2 -2.5,53.8 0,3.6 0,7.2 0,10.7 h 0.7 c 0,-3.6 0,-7.2 0,-10.7 -0.1,-17.5 0.3,-35.7 2.8,-53.6 z"
             id="path38"
             inkscape:connector-curvature="0"
             style="fill:#939393" /><path
             class="st1"
             d="m 662.5,654.2 c -0.4,-7.2 0.3,-14.5 -0.2,-21.6 -1.1,-14 -3.2,-28.6 -2.9,-42.8 0.2,-9.4 0.9,-19 1.6,-28.2 0.9,-11.9 1.9,-24.2 1.7,-36.3 -0.3,-13.6 -2.3,-27.3 -4.1,-40.6 -1.1,-7.8 -2.2,-15.9 -2.9,-23.9 -1.9,-19.8 -1.9,-40.8 -0.2,-64.4 0.5,-7.3 1.2,-14.7 1.9,-21.9 1.3,-14 3.7,-28.4 3.9,-42.6 0.3,-18.2 -2.5,-36.6 -4,-54.4 -0.3,-3.4 -0.6,-6.7 -0.9,-10.1 C 654.2,242 654,221.6 654,203 c 0,-19.1 0.7,-39.6 2.9,-64.4 0.7,-7.7 1.4,-15.6 2.2,-23.2 1.3,-13.5 3.1,-27.5 4,-41.3 1.5,-23.1 0.6,-44.2 -0.5,-64.5 h -2.1 c 0,0 0,0 0,0 1.1,20.3 3.1,41.3 1.5,64.4 -0.9,13.7 -3.3,27.7 -4.6,41.2 -0.7,7.6 -1.5,15.5 -2.2,23.2 -2.2,24.9 -2.1,45.4 -2.1,64.5 0,18.6 0,39.1 2.2,64.5 0.3,3.4 0.6,6.7 0.9,10.1 1.6,17.8 3.3,36.2 3,54.3 -0.2,14.2 -1.5,28.6 -2.8,42.5 -0.7,7.2 -1.4,14.6 -1.9,21.9 -1.7,23.6 -0.8,44.7 1.1,64.6 0.8,8 1.9,16.1 2.9,23.9 1.8,13.3 2.4,27 2.7,40.5 0.3,12 -0.4,24.3 -1.3,36.2 -0.7,9.3 -1.4,18.9 -1.6,28.3 -0.3,14.3 0.8,28.9 1.8,43 0.5,7.1 -0.2,14.3 0.2,21.5 h 2.2 c 0,0 0,0 0,0 z"
             id="path40"
             inkscape:connector-curvature="0"
             style="fill:#939393" /><path
             class="st1"
             d="m 570.3,654.2 h 0.7 c 0.1,-7.9 0,-15.8 0,-23.6 -0.1,-13.4 0.5,-27.3 1.1,-40.9 0.2,-5.1 0.5,-10.3 0.8,-15.3 1,-16.1 2,-32.8 0,-49.3 -1.8,-14.6 -6,-29.4 -10.2,-43.7 -2,-6.8 -4,-13.9 -5.8,-20.9 -5,-20.1 -8.5,-41.2 -9.9,-64.4 -0.6,-9.2 -0.6,-18.6 -0.8,-27.7 -0.3,-12.1 -1.2,-24.5 -2.3,-36.8 -1.3,-15.6 -3.3,-31.4 -5.7,-46.7 -0.9,-5.8 -1.9,-11.9 -2.7,-17.8 -3,-20.3 -5.4,-42.3 -1.4,-68.6 3.6,-23.9 12.7,-52.1 19.3,-72.6 l 1.5,-4.7 c 7.3,-22.8 10.9,-35 13.2,-51.7 2.3,-15.8 2.7,-36.7 2.9,-60.3 0,0 0,0 0,0 h -0.7 c -0.2,23.5 -1.2,44.3 -3.5,60.1 -2.4,16.6 -6.3,28.7 -13.6,51.5 l -1.5,4.7 c -6.6,20.6 -15.3,48.8 -18.9,72.8 -4,26.4 -2.2,48.6 0.8,69 0.9,5.9 1.8,12 2.7,17.8 2.4,15.3 4.8,31.1 6.1,46.6 1,12.2 2.1,24.7 2.4,36.7 0.2,9.1 -0.1,18.5 0.4,27.8 1.4,23.3 4.5,44.4 9.5,64.6 1.7,7 3.8,14.1 5.8,20.9 4.1,14.3 8.9,29 10.7,43.5 2,16.3 0.3,33 -0.6,49.1 -0.3,5 -0.6,10.2 -0.8,15.3 -0.6,13.7 0.4,27.5 0.5,41 0,7.8 0.1,15.7 0,23.6 0,0 0,0 0,0 z"
             id="path42"
             inkscape:connector-curvature="0"
             style="fill:#939393" /><path
             class="st1"
             d="m 639.9,596.5 c -1.6,18.9 -3.2,38.4 -4.1,57.6 0,0 0,0 0,0 h 1.3 c 0.9,-19.2 2.5,-38.7 4.1,-57.5 l 0.6,-6.9 c 1.7,-19.9 3.7,-42.4 2,-64.6 -0.9,-11.7 -2.5,-23.6 -4.4,-35.2 -1.6,-9.6 -3.5,-19.6 -4.5,-29.3 -2.3,-21.9 -0.8,-43.8 0.1,-64.4 0.2,-5 0.4,-9.9 0.7,-14.9 0.8,-16.3 0.5,-33.1 0.7,-49.6 0.1,-20.3 0.2,-41.4 -1.6,-64.5 -0.5,-5.7 -1,-11.5 -1.5,-17.1 -1.4,-15.5 -2.8,-31.6 -3.1,-47.3 -0.3,-18.8 1.1,-37.9 2.3,-56.4 0.2,-2.7 0.4,-5.3 0.5,-8 1.5,-23.5 2.8,-44.6 3.4,-64.5 0.2,-7.7 0.4,-15.5 0.5,-23 0.3,-13.6 -0.5,-27.7 0.1,-41.5 0,0 0,0 0,0 h -1.3 c -0.7,13.8 -1.1,27.9 -1.4,41.5 -0.2,7.5 -0.3,15.3 -0.5,23 -0.6,19.9 -1.2,41 -2.7,64.5 -0.2,2.7 -0.4,5.3 -0.5,8 -1.2,18.5 -2.1,37.7 -1.7,56.5 0.3,15.8 1.7,31.9 3.1,47.4 0.5,5.6 1,11.4 1.5,17.1 1.8,23.1 2.3,44.1 2.2,64.4 -0.1,16.5 -0.3,33.3 -1,49.5 -0.2,5 -0.5,9.9 -0.7,14.9 -0.9,20.6 -2.3,42.6 0,64.6 1,9.8 2.4,19.8 3.9,29.4 1.9,11.5 3.9,23.4 4.8,35.1 1.7,22.1 -0.5,44.6 -2.1,64.4 z"
             id="path44"
             inkscape:connector-curvature="0"
             style="fill:#939393" /><path
             class="st1"
             d="m 651.1,654.2 v -0.8 c -0.3,-20.9 -0.4,-42.4 0.4,-63.7 0.2,-6.5 0.6,-13.2 0.9,-19.7 0.8,-14.7 1.8,-29.9 1.3,-44.9 -0.4,-14.9 -3.3,-30 -5,-44.6 -0.7,-6.5 -1.5,-13.3 -2.1,-19.9 -2.3,-24.5 -1.8,-45 -0.5,-64.4 0.6,-8.5 1.6,-17.2 2.5,-25.6 1.4,-12.7 2.6,-25.9 2.8,-38.9 0.2,-17.4 -2.6,-35.1 -4.7,-52.2 -0.5,-4.1 -1,-8.2 -1.5,-12.4 -2.7,-23.4 -3.4,-44.5 -3.6,-64.4 -0.2,-19.9 -0.3,-41 1.8,-64.4 0.7,-7.5 1.5,-15.2 2.3,-22.6 1.5,-13.7 4.4,-27.9 5.2,-41.9 1.3,-21.7 0.5,-43.5 0.2,-64.5 h -0.9 c 0,0 0,0 0,0 0.3,21 0.6,42.8 -0.7,64.4 -0.8,13.9 -2.7,28.1 -4.1,41.8 -0.8,7.4 -1.6,15.1 -2.3,22.6 -2.2,23.5 -2.8,44.6 -2.5,64.5 0.2,20 0.4,41.1 3.1,64.5 0.5,4.1 1,8.3 1.5,12.4 2.1,17.1 4.8,34.7 4.6,52 -0.1,12.9 -1.4,26 -2.8,38.8 -0.9,8.4 -1.9,17.1 -2.5,25.7 -1.3,19.5 -1.7,40 0.7,64.6 0.6,6.6 1.4,13.4 2.1,19.9 1.6,14.6 3.7,29.7 4.2,44.5 0.4,14.9 0.5,30.1 -0.3,44.8 -0.3,6.4 -0.7,13.1 -0.9,19.7 -0.8,21.2 -0.4,42.8 -0.1,63.7 v 0.8 l 0.9,0.2 c 0,0 0,0 0,0 z"
             id="path46"
             inkscape:connector-curvature="0"
             style="fill:#939393" /><path
             class="st1"
             d="m 632.3,589.8 c 0.2,-2.1 0.4,-4.1 0.7,-6.2 2,-19.1 4,-38.9 3,-58.4 -0.8,-14.3 -3.3,-28.8 -5.7,-42.9 -1.2,-7.1 -2.5,-14.4 -3.5,-21.7 -2.9,-20.4 -5.1,-41.4 -4.8,-64.4 0.1,-10.5 1.6,-21.2 2,-31.5 0.5,-10.8 1.2,-22 1.3,-33 0.2,-22.9 -1.8,-45.5 -3.2,-64.5 -0.2,-2.9 -0.4,-5.7 -0.7,-8.6 -1.4,-18.3 -2.4,-37.2 -2,-55.8 0.3,-12.7 0.3,-25.6 1.4,-38.1 0.8,-8.6 1.7,-17.6 2.2,-26.4 0.9,-15.3 1.9,-30.9 1.9,-45.9 0,-6.1 0,-12.4 0.1,-18.6 0.2,-20.4 0.7,-41.5 2.2,-64.4 0,0 0,0 0,0 h -2.1 c -1.5,23 -1.2,44.1 -1.4,64.5 -0.1,6.2 -0.1,12.5 -0.1,18.6 0,15 -1.2,30.6 -2.1,45.9 -0.5,8.8 -1.1,17.7 -1.9,26.3 -1.1,12.5 -1.2,25.5 -1.5,38.2 -0.4,18.7 0.3,37.6 1.7,56 0.2,2.9 0.4,5.7 0.7,8.6 1.4,19 3.9,41.5 3.7,64.4 -0.1,11 -0.6,22.2 -1,33 -0.4,10.3 -1.7,21 -1.9,31.5 -0.3,23 0.7,44.1 3.7,64.6 1,7.2 2.3,14.6 3.6,21.7 2.4,14 5.8,28.5 6.6,42.7 1.1,19.4 -2.1,39.1 -4.1,58.1 -0.2,2.1 -0.4,4.2 -0.7,6.2 -2.3,21.9 -4,43.7 -5.3,64.5 0,0 0,0 0,0 h 2.1 c 1,-20.8 2.8,-42.5 5.1,-64.4 z"
             id="path48"
             inkscape:connector-curvature="0"
             style="fill:#939393" /><path
             class="st1"
             d="m 27.4,9.4 c 1.2,19.3 2.6,42 1.6,64.4 -0.5,12.6 -2.9,25.4 -4.1,37.8 -0.8,8.7 -0.5,17.8 -1.1,26.7 -1,14.5 -1.5,29.2 -1.8,43.4 -0.2,6.9 -0.4,14.1 -0.6,21.1 -0.1,4.1 -0.3,8.2 -0.5,12.3 -0.7,17.1 -1.7,34.8 -0.6,52.2 0.6,9.8 1.8,19.7 2.9,29.2 1.4,11.5 2.7,23.5 3.1,35.2 0.5,15.3 -1.3,30.8 -2.5,45.8 -0.5,6.1 -0.9,12.4 -1.3,18.6 -1.2,21 0.1,42.7 1.4,64.6 0.4,7 1,14 1.5,20.9 1.1,14.3 1.1,29.1 1.1,43.6 0,11.5 0,23.2 -0.7,34.4 -0.6,9.8 -1.9,20 -2,30 -0.3,17.9 1.7,36.2 2.9,53.8 0.2,3.6 0.5,7.1 0.7,10.7 h 0.8 c 0,0 0,0 0,0 -0.2,-3.6 -0.5,-7.1 -0.7,-10.7 -1.2,-17.6 -2.1,-35.8 -1.8,-53.7 0.1,-10 0.4,-20.1 1,-30 0.7,-11.3 1.1,-23 1.1,-34.5 0,-14.6 -1.1,-29.4 -2.2,-43.7 -0.5,-6.8 -1.1,-13.9 -1.5,-20.9 -1.3,-21.8 -1.1,-43.5 0.1,-64.4 0.4,-6.2 0.8,-12.5 1.3,-18.6 1.1,-15.1 2.7,-30.6 2.2,-46 -0.4,-11.8 -1.9,-23.7 -3.2,-35.3 -1.1,-9.6 -2,-19.5 -2.6,-29.2 -1,-17.4 -0.5,-35 0.2,-52.1 0.2,-4.1 0.3,-8.2 0.5,-12.3 0.3,-7 0.4,-14.2 0.6,-21.1 0.4,-14.2 0.2,-28.9 1.2,-43.4 0.6,-8.9 1.2,-17.9 2,-26.6 1.2,-12.4 3.5,-25.2 4,-37.8 1,-22.5 -0.9,-45.2 -2.2,-64.5 l -0.8,0.1 c 0,0 0,0 0,0 z"
             id="path50"
             inkscape:connector-curvature="0"
             style="fill:#939393" /><path
             class="st1"
             d="m 620.3,589.8 c 0.6,-3.4 1.1,-6.7 1.7,-10.1 3.1,-17.8 5.4,-36.3 4.3,-54.5 -0.8,-13.7 -2.8,-27.6 -5.9,-41.1 -1.7,-7.7 -3.6,-15.6 -4.9,-23.5 -3.8,-22.4 -4.6,-45 -4.5,-64.4 0.1,-11.5 0.8,-23.2 1,-34.6 0.2,-9.8 -0.1,-19.9 0.1,-29.9 0.3,-24.7 -0.6,-45.2 -1.7,-64.5 -0.3,-6 -0.7,-12.1 -1.1,-17.9 -1,-15.2 -2,-31 -1.8,-46.5 0.2,-12 1.2,-24.1 2.2,-35.9 0.8,-9.4 2.2,-19 2.6,-28.6 0.7,-16.3 0,-32.8 -0.5,-48.8 -0.1,-5.1 -0.3,-10.5 -0.4,-15.7 -0.5,-23.7 -0.3,-44.8 0.9,-64.4 0,0 0,0 0,0 h -0.6 c -1.2,19.7 -2.4,40.8 -1.9,64.5 0.1,5.2 0.3,10.6 0.4,15.7 0.5,16 1.8,32.5 1.1,48.7 -0.4,9.5 -0.9,19.2 -1.7,28.5 -1,11.8 -2.1,24 -2.3,36 -0.3,15.5 -0.5,31.3 0.5,46.6 0.4,5.9 0.8,11.9 1.1,17.9 1,19.3 1.7,39.8 1.5,64.4 -0.1,10 0.4,20.1 0.2,29.9 -0.2,11.3 -0.7,23 -0.8,34.6 -0.2,19.4 0.1,42.1 4,64.6 1.3,7.9 3.1,15.8 4.9,23.5 3,13.4 5.5,27.3 6.3,40.9 1,18 -1.1,36.4 -4.2,54.2 -0.6,3.4 -1.2,6.8 -1.7,10.1 -3.5,21.6 -6.3,43.3 -7.6,64.5 0,0 0,0 0,0 h 0.6 c 1.6,-21 4.7,-42.7 8.2,-64.2 z"
             id="path52"
             inkscape:connector-curvature="0"
             style="fill:#939393" /><path
             class="st1"
             d="m 605.9,589.6 c -2.3,16.3 -2.6,32.9 -3.1,48.9 -0.2,5.1 -0.3,10.4 -0.5,15.6 0,0 0,0 0,0 h 0.7 c 0.2,-5.2 0.4,-10.5 0.5,-15.6 0.5,-16 1.3,-32.5 3.5,-48.8 1,-7.2 2.4,-14.5 3.7,-21.6 2.6,-14.1 5.8,-28.6 5.7,-43 0,-14.6 -3.7,-29.5 -6.5,-43.9 -1.3,-6.8 -2.7,-13.8 -3.8,-20.7 -3.2,-20.7 -2.9,-41.8 -3.3,-62.2 v -2.2 c -0.1,-6.2 -0.3,-12.4 -0.4,-18.6 -0.3,-15 -1.1,-30.6 -1.3,-45.9 0,-2.5 -0.1,-5 -0.1,-7.5 -0.2,-18.7 -0.1,-38 -1.9,-57.1 -0.6,-7 -1.5,-14 -2.3,-20.8 -1.7,-14.3 -3.7,-29.1 -3.7,-43.6 0.1,-13.1 1.6,-26.4 3.1,-39.3 1,-8.2 2,-16.7 2.5,-25.1 1,-13.7 0.1,-27.7 0,-41.1 0,-7.7 0,-15.6 0.1,-23.4 0.3,-12.6 1.6,-25.5 2.3,-38 0.5,-8.7 1.1,-17.7 1.5,-26.5 0,0 0,0 0,0 h -0.7 c -0.4,8.8 -1.7,17.8 -2.2,26.5 -0.8,12.5 -1.4,25.3 -1.6,38 -0.2,7.8 -0.2,15.7 -0.1,23.4 0,13.5 0.9,27.4 -0.1,41 -0.6,8.3 -1.6,16.8 -2.5,25 -1.5,12.9 -4,26.3 -4.1,39.5 -0.1,14.6 1.6,29.4 3.3,43.7 0.8,6.8 1.6,13.9 2.3,20.8 1.7,19 2.8,38.3 3,57 0,2.5 0.1,5 0.1,7.5 0.2,15.3 0.5,30.8 0.9,45.9 0.1,6.2 0.3,12.4 0.4,18.6 v 2.2 c 0.4,20.4 -0.2,41.6 2.9,62.4 1.1,6.9 2.4,14 3.8,20.8 2.8,14.3 5.9,29.1 5.9,43.6 0,14.2 -1.9,28.7 -4.5,42.7 -1.1,7.3 -2.5,14.6 -3.5,21.8 z"
             id="path54"
             inkscape:connector-curvature="0"
             style="fill:#939393" /><path
             class="st1"
             d="m 586.3,9.4 c 0.9,20.6 1.2,42.6 -0.8,64.4 -1.9,20.3 -6.3,40.9 -10.4,60.8 l -0.7,3.6 c -4.7,22.9 -7.7,43.5 -9.3,64.6 -1.7,21.5 -1.9,42.8 -0.8,64.6 1.3,25.1 3.4,45.6 5.1,64.5 1.1,12.9 1.7,25.9 3,38.6 0.9,8.5 2.8,17.3 3.6,25.9 0.3,3.4 0.6,6.8 1,10.2 1.7,17.8 3.2,36.2 6.4,54.4 1,5.9 2.2,11.9 3.4,17.7 3.1,15.3 5.3,31.1 5.6,46.7 0.2,13.6 -1.6,27.4 -3.5,40.7 -1.1,7.8 -2.3,15.8 -3,23.7 -1.8,19.7 -0.6,39.6 0.3,59 0.1,1.9 0.2,3.7 0.2,5.6 h 0.9 c 0,0 0,0 0,0 -0.1,-1.9 -0.2,-3.7 -0.2,-5.6 -0.9,-19.3 -1.9,-39.2 -0.1,-58.8 0.7,-7.9 1.8,-15.9 2.9,-23.6 1.9,-13.4 3.9,-27.3 3.6,-40.9 -0.3,-15.7 -2.6,-31.5 -5.6,-46.9 -1.2,-5.8 -2.4,-11.8 -3.4,-17.7 -3.1,-18.1 -5.6,-36.5 -7.3,-54.3 -0.3,-3.4 -0.6,-6.8 -1,-10.2 -0.8,-8.6 -1.1,-17.4 -2,-25.9 -1.3,-12.6 -3.1,-25.7 -4.3,-38.5 -1.7,-18.9 -2,-39.4 -3.3,-64.5 -1.1,-21.7 -2.3,-42.9 -0.6,-64.4 1.7,-21 6,-41.6 10.7,-64.4 l 0.7,-3.6 c 4.1,-20 7.6,-40.6 9.5,-60.9 2,-21.9 1.1,-43.9 0.2,-64.5 l -0.8,-0.3 c 0,0 0,0 0,0 z"
             id="path56"
             inkscape:connector-curvature="0"
             style="fill:#939393" /><path
             class="st1"
             d="m 151,589.7 c -0.9,-20.7 -6.6,-41.7 -12.7,-62 l -0.8,-2.7 c -6.9,-22.9 -13,-43.5 -14.3,-64.3 -0.7,-10.7 -1,-21.5 -0.5,-32 0.5,-10.6 1.2,-21.6 0.4,-32.5 -1,-14.3 -4.6,-28.9 -7.7,-42.9 -1.5,-7.1 -3.1,-14.4 -4.4,-21.6 -4.1,-22.9 -4.8,-44 -2.8,-64.3 1.3,-13.2 4.4,-26.7 6.9,-39.7 1.6,-8.1 3.2,-16.5 4.6,-24.7 1.3,-8.5 2.4,-17.1 3.4,-25.4 1.5,-12.8 2.6,-26 5.4,-39 1.8,-8.5 4.9,-17.1 7.2,-25.5 3.5,-12.8 6.9,-26 8.7,-39.1 1.7,-12.7 1.6,-25.6 1.5,-38.1 -0.1,-8.7 -1.1,-17.6 -0.6,-26.4 0,0 0,0 0,0 h -0.1 c -0.5,8.8 -0.7,17.8 -0.6,26.4 0.1,12.4 0.6,25.3 -1,37.9 -1.7,13 -5.8,26.1 -9.2,38.9 -2.3,8.4 -4.6,17 -6.4,25.5 -2.8,13.1 -5.1,26.3 -6.7,39.1 -1,8.3 -2,16.9 -3.4,25.4 -1.3,8.2 -2.9,16.6 -4.5,24.6 -2.6,13.1 -4,26.6 -5.3,39.9 -2,20.5 -1,41.6 3.1,64.7 1.3,7.2 2.9,14.6 4.4,21.7 3,14 5.9,28.5 6.9,42.7 0.7,10.8 -0.4,21.7 -0.9,32.3 -0.5,10.5 -0.2,21.4 0.5,32.2 1.4,20.9 7.3,41.6 14.2,64.6 l 0.8,2.7 c 6.1,20.2 12,41.1 12.9,61.6 0.6,13.2 -0.7,26.7 -2.3,39.8 -1,8.1 -2,16.4 -2.5,24.6 0,0 0,0 0,0 h 0.1 c 0.5,-8.2 1.5,-16.5 2.5,-24.5 1.3,-13 3.7,-26.6 3.2,-39.9 z"
             id="path58"
             inkscape:connector-curvature="0"
             style="fill:#939393" /><path
             class="st1"
             d="m 48.9,654.2 c -0.3,-11.1 -0.4,-22.4 -1.2,-33.3 -0.7,-10.2 -2.2,-20.8 -2.5,-31.2 -0.4,-12.1 0.3,-24.3 0.5,-36.2 0.1,-9.3 -0.8,-18.9 -0.9,-28.3 -0.2,-13.1 0,-26.5 -0.7,-39.4 -0.4,-8.2 -0.9,-16.7 -1.2,-25.1 -0.7,-19.4 -0.4,-40.5 0.2,-64.4 0.1,-4.4 0.3,-8.8 0.4,-13.2 0.5,-16.8 0.9,-34.2 0.3,-51.3 -0.4,-11.4 -1.8,-23.1 -2.7,-34.3 -0.8,-9.9 -1.7,-20.1 -2.2,-30.2 -1,-21 0.4,-42.3 0.9,-62.9 l 0.1,-4.7 c 0.5,-20.1 0.8,-40.8 2,-61.3 0.9,-15.1 1.7,-30.4 2.9,-45.2 0.5,-6.4 1,-12.9 1.5,-19.3 1.9,-24 3,-44.2 2.5,-64.5 h -1.4 c 0,0 0,0 0,0 0.5,20.3 0.2,40.4 -1.6,64.4 -0.5,6.4 -1,12.9 -1.5,19.3 -1.2,14.8 -3.5,30.1 -4.4,45.2 -1.2,20.4 -0.8,41.2 -1.3,61.3 l -0.1,4.7 c -0.5,20.6 -1.8,42 -0.8,63 0.5,10.1 2.2,20.3 3,30.2 0.9,11.2 1.6,22.9 2.1,34.3 0.6,17.1 -0.1,34.4 -0.6,51.2 -0.1,4.4 -0.3,8.8 -0.4,13.2 -0.6,24 -0.7,45.1 0,64.5 0.3,8.4 0.8,16.9 1.2,25.1 0.7,12.9 1.3,26.3 1.5,39.4 0.1,9.4 0,19 -0.2,28.2 -0.2,11.9 -1,24.2 -0.6,36.2 0.3,10.4 0.8,21 1.6,31.2 0.8,10.9 2,22.2 2.3,33.2 l 1.3,0.2 c 0,0 0,0 0,0 z"
             id="path60"
             inkscape:connector-curvature="0"
             style="fill:#939393" /><path
             class="st1"
             d="M 58.3,617.5 C 57.8,608.4 58.2,599 58,589.7 c -0.2,-8.5 -0.2,-17.1 -0.2,-25.5 0,-12.8 -0.1,-26 -0.9,-39 -0.7,-10.3 -2.1,-20.8 -3.3,-30.9 -1.3,-11 -3.4,-22.4 -4,-33.6 -1,-19.1 1.2,-38.6 2.2,-57.4 0.1,-2.3 0.2,-4.7 0.4,-7 1,-20.7 0.8,-42.8 -0.1,-64.5 -0.6,-12.2 -0.7,-24.6 -1.8,-36.6 -0.8,-9.1 -3,-18.6 -3.6,-27.8 -1.3,-20.4 -0.3,-41.5 0.6,-64.4 0.8,-20.5 1.7,-41.4 3.4,-61.6 l 0.2,-2.8 c 0.5,-6.2 1,-12.3 1.5,-18.5 1.2,-15.1 3.4,-30.7 4.7,-46 l 0.3,-3.3 C 59.1,50.7 60.1,30 60.1,9.6 h -1.7 c 0,0 0,0 0,0 C 58.5,30 56.8,50.7 55,70.7 L 54.7,74 c -1.3,15.3 -2.7,30.9 -3.9,46 -0.5,6.2 -1,12.3 -1.5,18.5 l -0.2,2.8 c -1.7,20.2 -2.6,41.1 -3.4,61.7 -0.9,22.9 -0.3,44.1 1,64.5 0.6,9.3 1.5,18.7 2.3,27.9 1.1,12 1.4,24.4 1.9,36.6 1,21.7 0.6,43.8 -0.4,64.4 -0.1,2.3 -0.2,4.7 -0.4,7 -1,18.9 -2.7,38.4 -1.7,57.6 0.6,11.2 2,22.6 3.3,33.7 1.2,10.1 2.4,20.5 3.1,30.8 0.8,13 0.9,26.2 0.9,39 0,8.4 0,17 0.2,25.5 0.2,9.3 1.5,18.7 2,27.8 0.7,12 0.5,24.4 0.5,36.7 h 1.7 v 0 c -0.3,-12.6 -1.2,-25 -1.8,-37 z"
             id="path62"
             inkscape:connector-curvature="0"
             style="fill:#939393" /><path
             class="st1"
             d="m 553.7,654.2 c 0,-9.4 0.8,-19 0.8,-28.4 -0.1,-12.1 -1.1,-24.5 -1.1,-37.2 0,-1.9 0,-3.9 0,-5.8 0.1,-20.6 -0.1,-41.9 -3.6,-57.7 -2.1,-9.4 -4.4,-16.8 -7.9,-24.6 -2.8,-6.3 -5.8,-12.8 -8.1,-20.6 -4.6,-15.6 -7.4,-36.9 -9.4,-57.4 -0.2,-2 -0.4,-3.9 -0.6,-5.9 -2,-20.5 -4,-41.1 -7.3,-68.8 l -0.9,-7.3 c -2.7,-22.4 -4.9,-47.7 -6.4,-70 -1.7,-25.4 -1.6,-46.9 0.9,-71.9 1.8,-18.1 5.3,-52.2 14.3,-77.2 3.8,-10.7 8.7,-19.2 13.1,-27.3 4.3,-8 8.4,-15.6 11.1,-24.3 5.3,-16.9 5.3,-37.4 5.2,-60.4 h -0.4 v 0 c 0,22.9 -0.8,43.2 -6.1,60 -2.7,8.5 -7.1,16.1 -11.4,24.1 -4.4,8.2 -8.9,16.7 -12.8,27.5 -9,25.1 -12.8,59.4 -14.6,77.5 -2.5,25.1 -3.4,46.7 -1.7,72.1 1.5,22.3 5.5,47.7 8.2,70.1 l 0.9,7.3 c 3.3,27.7 4.7,48.3 6.7,68.8 0.2,2 0.4,3.9 0.6,5.9 2,20.6 3.9,41.9 8.5,57.6 2.3,7.9 5.3,14.4 8.1,20.8 3.5,7.7 8,15 10.1,24.3 3.5,15.6 3.3,36.9 3.2,57.4 0,1.9 0,3.9 0,5.8 0,12.7 0.2,25.1 0.3,37.2 0.1,9.3 0.1,18.9 0.1,28.3 z"
             id="path64"
             inkscape:connector-curvature="0"
             style="fill:#939393" /><path
             class="st1"
             d="m 240.2,654.2 c -0.1,-4.3 -0.2,-8.6 -0.3,-12.9 -0.4,-16.9 0,-34.3 1.2,-51.5 1.1,-16.4 3.2,-33.2 5.8,-49.3 0.8,-4.9 1.6,-10.1 2.4,-15.1 3.5,-23 6.2,-44.1 7.5,-64.5 1.2,-18.3 1,-36.9 1.4,-54.9 0.1,-3.2 0.1,-6.4 0.2,-9.6 0.6,-25.7 1,-45.6 2.1,-64.5 0.4,-6.6 0.8,-13.3 1.2,-19.7 0.9,-14.7 2.1,-29.8 2.4,-44.8 0.6,-25 0.3,-45.5 -2.7,-64.6 -1.9,-11.6 -4.6,-23.4 -7.2,-34.9 -2.2,-9.7 -5.6,-19.8 -7.3,-29.6 -3.4,-18.8 -5.2,-38.7 -6,-64.4 -0.4,-12.3 0.6,-24.9 0.5,-37 -0.1,-9 -1,-18.3 -1.1,-27.4 h -0.8 c 0,0 0,0 0,0 0.2,9.1 0.2,18.4 0.3,27.4 0.1,12.1 0.2,24.7 0.6,37.1 0.8,25.8 2,45.7 5.4,64.6 1.8,9.9 4.8,20 7.1,29.7 2.6,11.4 5.1,23.2 6.9,34.8 3,19 3.7,39.5 3.1,64.4 -0.4,14.9 -1.3,30.1 -2.2,44.7 -0.4,6.5 -0.8,13.2 -1.2,19.7 -1,18.9 -0.8,38.7 -1.3,64.5 -0.1,3.2 -0.1,6.4 -0.2,9.6 -0.4,18 -1.8,36.6 -3,54.9 -1.3,20.4 -3.7,41.5 -7.2,64.4 -0.8,5 -1.6,10.1 -2.4,15.1 -2.6,16.2 -4.1,33 -5.2,49.5 -1.2,17.2 -1.3,34.7 -0.9,51.6 0.1,4.3 0.2,8.6 0.3,12.9 l 0.6,-0.2 c 0,0 0,0 0,0 z"
             id="path66"
             inkscape:connector-curvature="0"
             style="fill:#939393" /><path
             class="st1"
             d="m 237.4,539.6 c 0.6,-4.8 1.3,-9.5 1.9,-14.3 3.1,-23.9 6.4,-45 8,-64.5 1.8,-22.9 2.7,-44 2.6,-64.5 0,-7.5 -0.2,-15.1 -0.3,-22.5 -0.3,-13.8 -1.6,-28 -1,-42 0.4,-11.1 2.4,-22.4 3.3,-33.3 0.9,-10.2 0.7,-20.7 1.2,-31.1 1,-23.5 0.6,-44.6 -3,-64.6 -1.9,-10.8 -4.4,-21.7 -7,-32.3 -2.6,-10.5 -6.2,-21.4 -8.1,-32.1 -3.9,-21.9 -4.6,-43.8 -5.1,-64.4 -0.5,-21 -1,-42.7 -0.9,-64.5 0,0 0,0 0,0 h -0.6 c -0.1,21.7 0.2,43.4 0.8,64.5 0.5,20.6 0.8,42.6 4.7,64.6 1.9,10.7 4.5,21.7 7.1,32.2 2.6,10.6 6,21.5 7.9,32.3 3.5,19.9 3.9,40.9 2.8,64.3 -0.5,10.4 -1.5,20.9 -2.3,31.1 -0.9,10.9 -1.4,22.3 -1.8,33.4 -0.5,14 0.4,28.3 0.7,42 0.2,7.4 0.3,15 0.3,22.5 0.1,20.5 -0.8,41.5 -2.6,64.4 -1.5,19.5 -3.9,40.6 -7,64.4 -0.6,4.7 -1.3,9.5 -1.9,14.2 -2.2,16.5 -4.3,33.5 -5.7,50.3 -1.9,22.4 -2.8,45.2 -2.9,64.5 0,0 0,0 0,0 h 0.6 c 0.1,-19.3 0.5,-42 2.4,-64.4 1.4,-16.8 3.7,-33.8 5.9,-50.2 z"
             id="path68"
             inkscape:connector-curvature="0"
             style="fill:#939393" /><path
             class="st1"
             d="m 171.3,654.2 c 0.3,-16.6 0,-34.2 0,-51.6 -0.1,-17.5 -0.4,-34.5 -4.4,-50.7 -1.4,-5.8 -3.3,-11.5 -5.4,-17.5 -3.7,-10.9 -8,-23.3 -10.8,-40.5 -2.7,-16.3 -4.6,-37.2 -6.1,-57.4 -1,-13.3 -2,-25.8 -3.2,-37.1 -1.8,-17.1 -3.2,-31.1 -5.4,-43.4 -1.6,-8.7 -3.1,-17 -4.2,-25.4 -2.8,-21.4 -3,-42.7 -0.3,-63.2 1.6,-11.8 3.1,-23.8 5.6,-35.5 2,-9.5 4,-19.3 5.5,-29 1.6,-9.8 3.7,-19.8 4.8,-29.5 1.2,-11.5 1.2,-23.3 3.3,-34.9 1.9,-10.4 5.1,-21 7.6,-31.2 2.7,-10.9 6.1,-22.2 8.1,-33.3 3.8,-22 4.4,-44.4 4.7,-62.4 0,-0.7 0,-1.4 0,-2.2 H 169 c 0,0.7 0,1.4 0,2.1 -0.3,17.9 -0.2,40.3 -3.9,62.2 -1.9,11.1 -5.3,22.3 -8.1,33.2 -2.6,10.2 -4.3,20.8 -6.2,31.3 -2.1,11.7 -4,23.6 -5.2,35 -1,9.7 -2.3,19.6 -3.9,29.4 -1.5,9.6 -3.5,19.4 -5.5,28.9 -2.5,11.7 -4.7,23.7 -6.2,35.6 -2.7,20.7 -2.9,42.1 -0.2,63.6 1.1,8.4 2.9,16.7 4.5,25.5 2.2,12.3 4.1,26.3 6,43.3 1.2,11.3 1.9,23.8 2.8,37.1 1.5,20.2 3.4,41.1 6.1,57.5 2.8,17.3 7.4,29.8 11.1,40.7 2,6 3.9,11.6 5.3,17.4 4,16 4.8,32.9 4.9,50.4 0.1,17.3 -1.1,35 -1.5,51.6 z"
             id="path70"
             inkscape:connector-curvature="0"
             style="fill:#939393" /><path
             class="st1"
             d="m 430.1,654.2 c -0.2,-20.7 0.4,-42.7 2.5,-64.4 1.5,-16.2 3.8,-32.7 6.4,-48.7 0.9,-5.2 1.7,-10.5 2.6,-15.8 2.9,-18.6 6,-37.4 8.4,-55.7 l 1.8,-13.5 c 2.6,-19.6 4.7,-39.8 6.1,-59.3 1.4,-19 2.2,-38.9 1.6,-62.9 -0.6,-22.6 -2.1,-46.1 -3.4,-66.1 -1.3,-20.8 -2.7,-43 -5.1,-65 -2.5,-23.1 -6.7,-45.6 -9.6,-64.5 -0.4,-2.7 -0.8,-5.4 -1.2,-8.1 -2.9,-18.5 -6,-37.6 -7.7,-56.4 -2,-22.2 -2.1,-44.9 -2.3,-64.4 h -0.8 c 0,0 0,0 0,0 0.2,19.5 0,42.3 2.1,64.5 1.7,18.8 4.7,37.9 7.5,56.4 0.4,2.7 0.8,5.4 1.2,8.1 2.9,18.9 6.2,41.3 8.6,64.4 2.4,22 4.7,44.2 6,65 1.3,20 1.9,43.5 2.6,66.1 0.6,23.9 1.1,43.9 -0.3,62.8 -1.4,19.4 -4.2,39.7 -6.8,59.2 l -1.8,13.5 c -2.4,18.2 -5.6,37.1 -8.5,55.6 -0.8,5.3 -1.7,10.6 -2.6,15.8 -2.6,16 -4.4,32.5 -5.9,48.8 -2,21.8 -2.4,43.8 -2.2,64.5 l 0.8,0.1 c 0,0 0,0 0,0 z"
             id="path72"
             inkscape:connector-curvature="0"
             style="fill:#939393" /><path
             class="st1"
             d="m 448.6,654.1 c -1.2,-18.9 0.3,-39.4 2.4,-64.4 1.9,-21.8 3.5,-43.4 7.3,-64.4 1.7,-9.5 3.7,-19.1 5.6,-28.4 2.4,-11.8 4.9,-24 6.9,-36.1 3.2,-19.1 6.4,-39.9 8.2,-63.6 1.6,-21.3 1.8,-40.9 2,-61.8 0.2,-22.9 0,-46.1 -1.3,-67.2 -1.4,-22 -3.9,-43.4 -7.1,-65.4 -1.2,-8.4 -2.6,-16.8 -4,-25 -2.1,-12.9 -3.8,-26.3 -5.4,-39.4 -1.5,-11.8 -2.8,-23.8 -3.8,-35.4 -0.9,-9.5 -2.1,-19.4 -3.2,-29.1 -0.8,-7.2 -1.8,-14.5 -2.7,-21.6 -1.8,-14 -3.9,-28.6 -4.8,-42.8 h -0.3 c 0,0 0,0 0,0 0.9,14.3 1.5,28.9 3.3,43 0.9,7.1 1.9,14.4 2.7,21.5 1.1,9.7 2.9,19.5 3.8,29.1 1,11.6 2.2,23.6 3.6,35.4 1.6,13.2 3.9,26.5 6,39.5 1.3,8.2 2.7,16.7 4,25 3.3,22 5.6,43.4 6.9,65.3 1.3,21.1 2,44.3 1.8,67.1 -0.2,20.9 -2,40.5 -3.6,61.7 -1.8,23.7 -3.5,44.5 -6.7,63.5 -2,12 -5.3,24.2 -7.7,36 -1.9,9.3 -2.5,19 -4.2,28.4 -3.8,21 -7.2,42.7 -9.1,64.5 -2.2,25 -2.1,45.5 -0.9,64.5 l 0.3,0.1 c 0,0.1 0,0.1 0,0 z"
             id="path74"
             inkscape:connector-curvature="0"
             style="fill:#939393" /><path
             class="st1"
             d="m 440.9,654.2 c -0.3,-21.6 -1.1,-42.8 0.5,-64.4 1.5,-20.3 5.3,-40.4 9.4,-64.4 1.1,-6.3 2.2,-12.5 3.3,-18.8 2.6,-15 5.4,-30.5 7.7,-45.7 3.9,-25.2 5.3,-45.4 6,-63.8 0.5,-12.7 1.1,-24.9 1,-37.8 -0.1,-7.9 -0.2,-16.2 -0.1,-24.5 0.1,-7.3 0.3,-15 0.4,-22.4 0.4,-14.6 -0.3,-29.6 -0.9,-44.3 -0.7,-20.6 -2.5,-40.9 -5,-60.6 l -0.6,-4.7 c -0.5,-3.6 -0.9,-7.1 -1.3,-10.7 -2.2,-17.6 -5.2,-35.9 -8,-53.8 -1.1,-6.7 -2.2,-13.6 -3.4,-20.2 -2.5,-14.5 -5.2,-29.5 -6.8,-44.2 -2.4,-21.5 -1.9,-42.7 -2.2,-64.4 h -1.5 c 0,0 0,0 0,0 0.3,21.7 1.1,43 3.5,64.5 1.6,14.8 4,29.8 6.5,44.3 1.1,6.6 2.3,13.5 3.4,20.2 2.9,17.9 5,36.2 7.2,53.8 0.4,3.6 0.9,7.1 1.3,10.7 l 0.6,4.7 c 2.5,19.6 5.1,39.9 5.9,60.5 0.5,14.6 -0.8,29.7 -1.1,44.2 -0.2,7.4 -0.4,15.1 -0.4,22.4 -0.1,8.4 0,16.6 0.1,24.5 0.2,12.9 1.4,25.1 0.9,37.8 -0.7,18.3 -4,38.6 -7.9,63.7 -2.3,15.2 -4,30.7 -6.6,45.7 -1.1,6.3 -2.2,12.5 -3.3,18.8 -4.1,24 -7.1,44.2 -8.6,64.5 -1.6,21.6 -1.8,42.9 -1.5,64.5 l 1.5,-0.1 c 0,0 0,0 0,0 z"
             id="path76"
             inkscape:connector-curvature="0"
             style="fill:#939393" /><path
             class="st1"
             d="m 421.9,654.2 c -0.2,-24.1 0.6,-45.2 2.2,-64.4 1.2,-15.4 4.1,-31.1 6,-46.2 0.7,-6 1.5,-12.2 2.2,-18.2 0.7,-5.9 1.4,-12 2,-17.8 1.7,-15.3 3.2,-31.1 5.6,-46.7 1.2,-7.8 2.6,-15.7 4,-23.3 2.4,-13.4 4.2,-27.3 5.6,-40.8 2,-18.7 2.7,-38.9 1.3,-63.5 -0.9,-15.8 -3.3,-32.2 -4.8,-48.1 -0.5,-5.8 -1.1,-11.7 -1.6,-17.5 -0.5,-5.9 -1,-11.7 -1.5,-17.5 -1.3,-15.5 -1.6,-31.6 -3.4,-47.4 -1.3,-11.1 -3.7,-22.4 -5.3,-33.4 -1.5,-10.2 -2.2,-20.7 -3.4,-31.1 -2.3,-19.1 -4.3,-39.5 -5.7,-64.4 C 423.7,50.6 422.2,29.5 422,9.5 h -1.4 c 0,0 0,0 0,0 0.2,20.1 0.9,41.2 2.2,64.5 1.5,24.9 3.6,45.4 6,64.5 1.3,10.4 2.6,20.9 4,31.1 1.6,10.9 3.2,22.2 4.5,33.3 1.9,15.7 4.3,31.8 5.6,47.3 0.5,5.8 1,11.6 1.5,17.5 0.5,5.8 1.1,11.7 1.6,17.5 1.5,15.9 2,32.3 2.9,48 1.4,24.5 1.1,44.6 -0.9,63.3 -1.4,13.5 -3.3,27.3 -5.7,40.7 -1.4,7.7 -2.8,15.6 -4,23.4 -2.4,15.6 -5,31.4 -6.7,46.7 -0.6,5.8 -1.3,11.8 -2,17.8 -0.7,6.1 -1.5,12.3 -2.2,18.2 -1.9,15.2 -3.5,30.8 -4.7,46.3 -1.6,19.3 -2.4,40.4 -2.1,64.5 l 1.3,0.1 c 0,0 0,0 0,0 z"
             id="path78"
             inkscape:connector-curvature="0"
             style="fill:#939393" /><path
             class="st1"
             d="m 398.2,625.6 c 0,-11.8 -0.5,-23.9 0.2,-35.9 0.5,-10.4 2.3,-21 3.2,-31.3 1,-10.9 2.1,-22.1 2.7,-33.2 0.4,-8 0.5,-16.2 0.6,-24 0.2,-13.2 -0.6,-26.9 0.9,-40.4 1.2,-11.2 3.9,-22.7 6,-33.7 1.9,-10.1 3.2,-20.5 4.5,-30.7 2.7,-22.4 2.9,-45.8 2.5,-64.6 -0.5,-20.5 -1.9,-42.4 -3.5,-64.5 -1.6,-20.9 -3.3,-42.6 -6.8,-64.5 -1.2,-7.7 -2.6,-15.5 -3.9,-23 -2.4,-13.6 -5.7,-27.6 -7.5,-41.5 -2.8,-21.7 -3.5,-43.4 -3,-64.4 0.3,-11.5 1.5,-23.2 2.2,-34.6 0.6,-9.8 1.7,-19.9 2,-29.9 0,0 0,0 0,0 h -1.5 c -0.3,9.9 -1.7,20 -2.3,29.8 -0.7,11.3 -0.9,23.1 -1.2,34.6 -0.5,21.1 0.6,42.8 3.4,64.6 1.8,13.8 3.4,27.9 5.8,41.5 1.3,7.5 2.7,15.3 3.9,23 3.5,21.9 6.3,43.6 7.8,64.4 1.6,22.1 2.7,43.9 3.2,64.4 0.4,18.7 0.2,42.1 -2.5,64.4 -1.2,10.2 -3.1,20.6 -5,30.6 -2.1,11.1 -3.7,22.6 -4.9,33.8 -1.5,13.5 -1.7,27.2 -1.8,40.5 -0.1,7.9 -0.2,16 -0.6,24 -0.5,11 -2.2,22.3 -3.3,33.2 -1,10.3 -1,20.9 -1.5,31.3 -0.6,12 -0.6,24.2 -0.7,36 0,9.4 0,19 -0.4,28.5 0,0 0,0 0,0 h 1.5 c 0.4,-9.3 0,-19 0,-28.4 z"
             id="path80"
             inkscape:connector-curvature="0"
             style="fill:#939393" /><path
             class="st1"
             d="m 405.3,632.4 c 0.3,-14 0.8,-28.4 1.8,-42.6 0.7,-9.8 2.4,-19.7 3.5,-29.4 1.2,-11.5 2.7,-23.4 3.4,-35.1 0.4,-7.2 0.6,-14.6 0.8,-21.7 0.4,-14 -0.1,-28.5 1.9,-42.8 1.5,-10.2 4,-20.6 6.3,-30.7 2.5,-11.1 5,-22.5 6.4,-33.8 2.6,-20.7 1.8,-40.7 0,-64.6 -1.7,-23.2 -3.6,-44.3 -5.5,-64.5 -2.4,-25.3 -4.9,-45.8 -7.4,-64.5 -1.2,-9 -2.8,-18.2 -4.1,-27 -1.8,-12.3 -3.5,-25 -5,-37.4 -3,-23.6 -4.3,-44.7 -4.4,-64.4 -0.1,-14.4 0.2,-29 0.9,-43.1 0.3,-7 0.7,-14.2 0.9,-21.4 0,0 0,0 0,0 h -0.5 c -0.2,7.1 -0.6,14.3 -0.9,21.3 -0.7,14.1 -1.9,28.8 -1.8,43.2 0.1,19.7 2.3,40.9 5.3,64.6 1.6,12.5 3.3,25.2 5.1,37.5 1.3,8.9 2.3,18 3.5,27 2.6,18.7 4.4,39.2 6.8,64.5 1.9,20.2 4.4,41.3 6.1,64.5 1.8,23.8 3.3,43.7 0.7,64.3 -1.4,11.2 -5,22.6 -7.5,33.6 -2.3,10.1 -5,20.5 -6.5,30.8 -2.1,14.3 -2.1,28.8 -2.5,42.9 -0.2,7.1 -0.4,14.4 -0.8,21.6 -0.7,11.7 -2.1,23.6 -3.3,35.1 -1,9.6 -1.8,19.6 -2.5,29.4 -1,14.2 -0.9,28.7 -1.2,42.7 -0.2,7.1 -0.3,14.5 -0.6,21.8 0,0 0,0 0,0 h 0.5 c 0.3,-7.3 0.4,-14.7 0.6,-21.8 z"
             id="path82"
             inkscape:connector-curvature="0"
             style="fill:#939393" /><path
             class="st1"
             d="m 415.1,643.6 c 0.3,-17.6 0.3,-35.9 1.4,-53.8 0.9,-14.6 3.3,-29.5 4.7,-43.9 0.7,-6.7 1.4,-13.7 2,-20.6 0.5,-5.4 1,-10.9 1.5,-16.2 1.4,-15.8 2,-32.1 4.3,-48.2 1.2,-8.6 3.4,-17.3 4.9,-25.7 2.2,-12.7 4.6,-25.8 6,-38.7 2.4,-22.9 0.8,-45.2 -0.1,-64 -0.9,-20.2 -2.1,-42.1 -4.4,-65 -1.9,-18.9 -3.4,-39.5 -6.7,-64.7 -0.9,-6.9 -1.8,-13.8 -2.7,-20.7 -1.9,-14.4 -4.7,-29.2 -6.4,-43.8 -2.3,-18.9 -4.2,-41.4 -5,-64.4 -0.6,-18.5 -0.3,-37.3 0.2,-55.5 0.1,-3 0.1,-6 0.2,-9 0,0 0,0 0,0 h -1.6 c -0.1,3 -0.1,6 -0.2,9 -0.4,18.2 -1.4,37 -0.7,55.5 0.8,23.1 3.3,45.6 5.6,64.5 1.7,14.6 4.7,29.4 6.6,43.8 0.9,6.9 1.8,13.8 2.7,20.7 3.3,25.2 4.7,45.8 6.5,64.6 2.3,22.9 4.6,44.8 5.6,65 0.8,18.8 1,41.1 -1.3,63.8 -1.3,12.8 -3,25.9 -5.2,38.6 -1.5,8.4 -4,17.1 -5.2,25.7 -2.3,16.1 -3.6,32.5 -5,48.3 -0.5,5.3 -0.9,10.8 -1.5,16.2 -0.6,6.9 -1.4,13.8 -2,20.6 -1.5,14.4 -3.1,29.3 -4,43.9 -1.2,18 -1.3,36.2 -1.6,53.9 -0.1,3.5 -0.1,7.1 -0.2,10.6 0,0 0,0 0,0 h 1.6 c -0.2,-3.5 -0.1,-7 0,-10.5 z"
             id="path84"
             inkscape:connector-curvature="0"
             style="fill:#939393" /><g
             id="g90"><path
               class="st1"
               d="m 502.5,43.3 c 0.1,0 0.1,0 0.2,0 1,0 3.7,0 7.4,-25.4 0.4,-2.8 0.8,-5.7 1.2,-8.6 h -0.9 c -0.4,2.8 -0.7,5.6 -1.2,8.4 -3.2,21.8 -5.1,24 -5.6,24.2 -0.5,-0.3 -2.5,-2.9 -4.6,-28.4 -0.1,-1.3 -0.2,-2.7 -0.3,-4.2 h -1.4 c 0.1,1.5 0.2,2.9 0.3,4.3 2.4,29.2 3.8,29.6 4.9,29.7 z"
               id="path86"
               inkscape:connector-curvature="0"
               style="fill:#939393" /><path
               class="st1"
               d="m 496.6,600.2 c 0.7,-22.6 4.2,-40.7 6.9,-43.2 0.2,-0.2 0.4,-0.2 0.4,-0.2 1.9,0 5.5,9.4 8.1,24.5 2,12 2.3,23.6 1.5,38.7 -0.5,10.4 -1.8,22.3 -3.3,34.2 h 0.9 c 1.5,-11.9 2.6,-23.7 3.1,-34.1 0.8,-15.2 1,-26.9 -1.1,-39 -0.4,-2.6 -4.5,-25.6 -9.4,-25.6 -0.5,0 -0.9,0.2 -1.3,0.5 -3.7,3.4 -5.5,25.8 -6.1,44.1 -0.6,20.4 -0.1,40 0.9,54.1 h 1.4 c -1,-14 -2.6,-33.7 -2,-54 z"
               id="path88"
               inkscape:connector-curvature="0"
               style="fill:#939393" /></g><g
             id="g96"><path
               class="st1"
               d="m 545.3,654.2 c 0.8,-15.9 0.7,-33.8 -0.2,-52.9 -1.6,-37.2 -6.4,-69.7 -12.1,-84.7 -2.1,-5.5 -4.4,-8.6 -6.5,-11.7 -3.9,-5.4 -8,-10.6 -10.7,-28.3 -2.1,-13.8 -2.7,-35 -3.9,-53.8 -1.3,-19.3 -2.4,-36 -3.9,-39.5 -0.1,-0.3 -0.5,-1.1 -1.2,-1.1 -2.2,0 -4.4,8.9 -8.7,41.6 -1.4,10.5 -2.8,21.4 -4.3,31.4 -4.2,28 -8.6,47.4 -13.1,66.2 -0.8,3.5 -1.7,6.9 -2.5,10.3 -4.7,19.6 -9.4,42.7 -11.2,66.2 -1.3,16.9 -1.6,34.3 0.3,56.2 h 1 c -1.9,-21.9 -1.5,-39.3 -0.2,-56.1 1.9,-23.3 6.9,-46.4 11.6,-66 0.8,-3.4 1.7,-6.9 2.5,-10.3 4.6,-18.8 9.3,-38.2 13.6,-66.3 1.5,-10 2.3,-20.9 3.6,-31.4 2.3,-17.7 5.3,-37.7 7,-40.3 0,0 0,0.1 0,0.1 1.4,3.3 2.8,20.6 4,39 1.2,18.8 2.3,40.1 4.3,53.9 2.7,18 6.9,23.2 10.9,28.8 2.1,3 4.3,6.1 6.4,11.4 5.7,14.9 10.2,47.2 11.8,84.3 0.8,19 0,37 -0.7,52.8 h 2.2 z"
               id="path92"
               inkscape:connector-curvature="0"
               style="fill:#939393" /><path
               class="st1"
               d="m 479.1,99.8 c 1.4,9.4 3.4,19.2 4.7,28.4 0.4,3 0.9,5.9 1.3,8.8 4.9,34.3 6.6,47.2 10,47.2 v 0 c 1.1,0 1.7,-1.2 1.9,-1.6 1.9,-3.6 4.3,-14.5 6.6,-28.2 2.6,-15.6 4.8,-34.9 9,-47.9 3.9,-11.9 8.7,-18.8 13.2,-25.5 4.7,-6.9 9.4,-13.4 12.6,-24.7 3.1,-11 6,-27.3 6.9,-46.9 h -2.1 c -0.9,19.4 -2,35.6 -5.1,46.5 -3.2,11.1 -8,17.5 -12.7,24.3 -4.6,6.8 -9.4,13.8 -13.3,25.8 -4.3,13.1 -8.2,32.5 -10.8,48.1 -2.2,13.1 -3.4,24.4 -5.1,27.8 -0.5,0.9 -0.7,0.9 -0.7,0.9 -0.3,0 -1.7,-0.6 -4.1,-13.2 -1.6,-8.5 -3.3,-20.3 -5.1,-32.9 -0.4,-2.9 -0.8,-5.8 -1.3,-8.8 -1.3,-9.2 -3.7,-19 -5.1,-28.4 -3.7,-24.7 -7.2,-50.2 -9.7,-71.8 -0.8,-6.5 -1.4,-12.6 -1.9,-18.5 h -1 c 0.5,5.9 1.2,12 1.9,18.6 2.5,21.8 6.2,47.3 9.9,72 z"
               id="path94"
               inkscape:connector-curvature="0"
               style="fill:#939393" /></g><path
             class="st1"
             d="m 214.8,214.2 c -1.3,-9.9 -3.8,-12.1 -6.8,-14.6 -2.6,-2.2 -5.5,-4.7 -8.2,-13.5 -2.5,-8.2 -5.1,-21.7 -7.3,-34.7 -3.4,-20 -5.9,-32.4 -8.7,-33.9 -0.2,-0.1 -0.5,-0.2 -0.7,-0.2 -3.4,0 -6.3,12.9 -11,42.2 -1.5,9.4 -2.8,19.1 -4.5,27.9 -3.5,18.3 -7.6,32.8 -11,45.6 -2.4,8.7 -3.9,17 -5.8,25.4 -5.1,23.5 -7.2,46 -5.1,64.9 1.1,10.1 3.5,19.5 6,30.5 2.7,11.7 6.2,24.9 8.6,41.9 1.9,13.2 3.3,28.9 4.8,44 2.3,23.1 3.6,44.9 6.8,58.1 3.3,13.5 7.7,17.8 11.5,21.7 2.5,2.5 4.7,4.7 6.3,9.1 1.6,4.5 2.6,11.2 3.5,17.2 1.3,8.8 1.8,11.6 3.4,11.6 0,0 0,0 0,0 0.9,0 1.6,-1 2.4,-3.6 3.9,-12.1 11.7,-62 14.5,-106.4 1.9,-30.8 1.7,-58.3 1.2,-87.4 -0.2,-12.5 -1,-25.4 -1,-38.4 0,-14.6 1.4,-29.4 1.7,-43.8 0.5,-27.5 1,-51.3 -0.6,-63.6 z m -0.9,145.9 c 0.5,29.1 0.9,56.6 -1,87.3 -2.8,44.3 -11.5,94.1 -15.3,106.1 -0.6,1.8 -1,2.4 -1.1,2.6 -0.7,-0.9 -1.5,-6.2 -2.1,-10.4 -0.9,-6 -1.9,-12.8 -3.5,-17.4 -1.7,-4.7 -4.1,-7.1 -6.6,-9.6 -3.7,-3.7 -8,-7.9 -11.2,-21 -3.2,-13.2 -4.1,-34.9 -6.4,-58 -1.5,-15.1 -3,-30.8 -4.9,-44 -2.4,-17.1 -5.9,-30.3 -8.6,-42 -2.5,-10.9 -4.8,-20.4 -5.9,-30.4 -2.1,-18.8 -1.1,-41.1 4,-64.5 1.8,-8.5 4.3,-16.7 6.6,-25.4 3.5,-12.8 8,-27.4 11.5,-45.7 1.7,-8.8 3.1,-18.6 4.6,-28 1.8,-11 2.6,-21.4 4.2,-29 2.4,-11.2 3.8,-12.1 4.2,-12.1 0,0 0.1,0 0.1,0 2.4,1.3 6,18.2 8.6,33 2.2,13.1 4.9,26.6 7.5,34.9 2.8,9.2 5.9,11.8 8.6,14.1 2.9,2.5 5.2,4.4 6.4,13.8 1.5,12.1 0.2,35.9 -0.3,63.4 -0.2,14.4 -0.3,29.2 -0.3,43.8 -0.1,13.1 0.7,26 0.9,38.5 z"
             id="path98"
             inkscape:connector-curvature="0"
             style="fill:#939393" /><g
             id="g104"><path
               class="st1"
               d="m 482.1,598.9 c 1.8,-21.1 5.3,-42 9.3,-61.6 2.7,-13.4 7.4,-33.6 10.1,-34.2 1.2,0 3.1,6.2 4.5,10.7 1.1,3.6 2.4,7.7 3.8,11 1.7,4 3.7,6.9 5.8,10 2.5,3.6 5.1,7.4 7.5,13.6 3,7.6 8.1,25.1 8.9,56.7 0.4,14.5 -0.6,32.4 -2.5,49 h 1.2 c 1.9,-16.7 2.9,-34.6 2.5,-49.1 -0.8,-31.8 -6.8,-49.5 -9.8,-57.2 -2.5,-6.3 -5.1,-10.1 -7.6,-13.8 -2.1,-3 -4,-5.8 -5.7,-9.7 -1.4,-3.2 -2.6,-7.1 -3.7,-10.9 -2.3,-7.4 -3.6,-11.7 -5.7,-11.7 -0.1,0 -0.2,0 -0.4,0 -3,0.7 -5.4,11 -10.3,35.2 -4,19.6 -7.4,40.5 -9.2,61.7 -1.4,16.9 -1.8,34.1 -0.3,55.4 h 1.3 c -1.6,-21.1 -1.1,-38.3 0.3,-55.1 z"
               id="path100"
               inkscape:connector-curvature="0"
               style="fill:#939393" /><path
               class="st1"
               d="m 493.1,103.4 c 0.7,2.4 1.4,3.3 2.2,3.3 1.4,0 2.1,-2.5 3.6,-8.6 1.1,-4.5 2.5,-10.2 4.5,-15.1 2,-4.9 4.8,-9.2 7.7,-13.7 4.6,-7.2 10.7,-15.3 14.5,-28.1 2.7,-8.9 3.8,-20.1 5.1,-31.8 h -1.2 c -1.3,11.6 -2.6,22.6 -5.3,31.4 -3.8,12.6 -9.3,20.7 -13.8,27.8 -2.9,4.6 -5.7,8.9 -7.8,13.9 -2.1,5 -3.5,10.7 -4.6,15.3 -0.8,3.2 -1.7,6.9 -2.3,7.5 -0.2,-0.2 -0.5,-0.7 -1,-2.4 -2.8,-9.2 -8.3,-44.8 -11.4,-76 -0.6,-6.2 -1.1,-12 -1.5,-17.5 h -1.3 c 0.4,5.6 0.9,11.4 1.5,17.7 2.7,27.8 7.9,66 11.1,76.3 z"
               id="path102"
               inkscape:connector-curvature="0"
               style="fill:#939393" /></g><path
             class="st1"
             d="m 459.7,654.1 c -1.6,-19.8 -0.6,-40.8 1.5,-64.4 1.9,-20.7 4.2,-41.7 8.8,-64.4 1.9,-9.3 4,-18.8 6,-28 2.7,-12 5.2,-24.3 7.5,-36.5 3.6,-18.9 6.3,-38.8 8.9,-64.5 2,-19.1 4.2,-41.9 3.9,-65.6 -0.2,-19.6 -0.9,-39.7 -2.5,-59.2 -0.2,-2.9 -0.5,-5.7 -0.7,-8.6 -0.2,-2.6 -0.4,-5.1 -0.6,-7.7 -1.5,-18.3 -2.8,-35.6 -5.9,-53.6 -1.5,-8.8 -4.2,-17.7 -6.2,-27 -2.5,-11.9 -4.7,-24.2 -6.5,-36.3 -1.8,-12.7 -2.5,-25.7 -3.4,-38.2 -0.6,-8.6 -1.2,-17.5 -2.2,-26.2 -1,-9.3 -2.6,-18.7 -3.9,-27.9 -1.7,-12 -3.8,-24.4 -4.8,-36.5 h -0.8 c 0,0 0,0 0,0.1 1,12.2 2,24.6 3.7,36.7 1.3,9.1 3.3,18.6 4.3,27.8 0.9,8.7 1.1,17.6 1.7,26.2 0.9,12.6 1.8,25.5 3.7,38.3 1.8,12.2 4.4,24.5 7,36.4 2,9.3 3.9,18.2 5.4,27 3.1,17.9 4.8,35.2 6.2,53.5 0.2,2.5 0.4,5.1 0.6,7.7 0.2,2.8 0.5,5.7 0.7,8.6 1.6,19.4 2.8,39.5 3,59.1 0.3,23.7 -1.2,46.4 -3.2,65.5 -2.7,25.7 -5.2,45.6 -8.8,64.4 -2.3,12.1 -5,24.5 -7.6,36.4 -2.1,9.2 -5.2,18.7 -7.1,28 -4.6,22.7 -7,43.8 -8.9,64.5 -2.2,23.6 -2.4,44.7 -0.8,64.5 l 1,-0.1 c 0,0.1 0,0.1 0,0 z"
             id="path106"
             inkscape:connector-curvature="0"
             style="fill:#939393" /><path
             class="st1"
             d="m 391.1,613.6 c 0,-7.8 0.1,-15.9 0.3,-23.9 0.3,-11 2,-22.2 2.6,-33.1 0.6,-10.3 0,-20.9 0.3,-31.4 0.2,-5.9 0.3,-11.9 0.3,-17.6 0.2,-15.3 1.8,-31.2 3.7,-46.8 1.1,-9.5 2.3,-19.1 4,-28.5 2.1,-11.8 4,-24 5,-36 1.3,-16 1.2,-32.2 0.3,-47.9 -0.3,-5.5 -0.6,-11.1 -0.8,-16.7 -0.3,-9 -0.3,-18.2 -0.4,-27.1 -0.1,-12.2 -1.5,-24.9 -2.2,-37.4 -1.3,-21.3 -3.6,-43 -6.6,-63.9 l -0.1,-0.6 c -2.9,-19.9 -6.1,-42.4 -8.6,-64.5 -2.2,-19.2 -5,-41.8 -4.1,-64.4 0.5,-12.1 1.9,-24.3 3.2,-36.2 1,-9.3 1.5,-18.8 2.1,-28.3 0,0 0,0 0,0 H 390 c -0.6,9.4 -2.6,18.9 -3.6,28.2 -1.3,11.9 -1.9,24.2 -2.4,36.3 -0.9,22.7 0.8,45.4 3,64.6 2.5,22.1 5.7,44.6 8.6,64.5 l 0.1,0.6 c 3.1,20.9 7.2,42.5 8.5,63.8 0.7,12.4 1,25.1 1.1,37.3 0.1,8.9 0.1,18.1 0.5,27.2 0.2,5.6 0.5,11.2 0.8,16.7 0.8,15.6 1.2,31.8 -0.1,47.7 -1,12 -3.5,24.1 -5.6,35.9 -1.7,9.3 -3.5,19 -4.6,28.5 -1.8,15.6 -1.5,31.5 -1.8,46.9 -0.1,5.8 -0.2,11.8 -0.3,17.6 -0.3,10.5 -0.8,21.1 -1.4,31.4 -0.6,10.8 -1.5,22.1 -1.8,33.1 -0.2,8 -0.3,16.1 -0.3,23.9 -0.1,13.3 0.2,27 -0.6,40.5 0,0 0,0 0,0 h 0.2 c 0.7,-13.3 0.8,-27.1 0.8,-40.4 z"
             id="path108"
             inkscape:connector-curvature="0"
             style="fill:#939393" /><path
             class="st1"
             d="m 295.4,654.2 c -1.1,-22 -0.1,-43.7 0.5,-64.4 0.3,-9 -0.5,-18.1 -0.1,-26.9 0.6,-12.3 1.1,-25.1 1.3,-37.6 0.1,-5.8 0,-11.7 0,-17.4 -0.1,-15.4 1.1,-31.4 2.9,-47 1.3,-11.1 3.4,-22.5 5.5,-33.4 2,-10.2 3.5,-20.7 4.7,-31.1 2.2,-17.7 2.9,-35.6 2.9,-52.9 0,-3.9 0,-7.7 0.1,-11.6 0.1,-8.4 0.2,-16.9 0.4,-25.1 0.3,-12.9 0.4,-26.2 0.3,-39.4 -0.2,-20.7 -1.6,-42.4 -3.9,-64.5 -0.8,-8.1 -1.8,-16.3 -2.8,-24.3 -1.6,-13.2 -3.5,-26.8 -4.6,-40.2 -1,-13.7 -0.9,-27.6 -1.4,-41 -0.2,-7.7 -0.5,-15.6 -0.9,-23.4 -0.5,-11.3 -1.6,-22.7 -2.4,-33.8 -0.7,-10 -2.1,-20.4 -2.6,-30.6 v 0 c 0,0 0,0 0,0 0.5,10.2 1,20.6 1.7,30.7 0.7,11.1 1.2,22.5 1.7,33.8 0.4,7.8 0.6,15.7 0.9,23.4 0.4,13.5 0.4,27.4 1.5,41.1 1,13.4 2.4,27.1 4,40.3 0.9,7.9 1.9,16.2 2.8,24.2 2.3,22.1 3.7,43.8 3.9,64.4 0.1,13.1 0.8,26.4 0.6,39.3 -0.2,8.2 -0.4,16.8 -0.4,25.1 0,3.9 0,7.8 -0.1,11.6 0,17.3 -1,35.2 -3.2,52.8 -1.3,10.3 -3.1,20.8 -5.1,31 -2.2,11 -4.5,22.3 -5.7,33.5 -1.8,15.7 -0.9,31.7 -0.9,47.2 0,5.7 0.1,11.6 0,17.4 -0.1,12.5 -1.6,25.2 -2.2,37.5 -0.4,8.8 -0.1,17.9 -0.4,26.9 -0.7,20.7 -0.1,42.4 1,64.4 v 0 c 0,0 0,0 0,0 z"
             id="path110"
             inkscape:connector-curvature="0"
             style="fill:#939393" /><path
             class="st1"
             d="m 262.4,654.1 c -1.5,-20.6 -3.5,-42.6 -1.7,-64.4 0.9,-11.3 3.6,-22.8 5.2,-34 1.5,-10 2.7,-20.3 3.6,-30.5 1,-11.1 1.5,-22.5 1.9,-33.4 0.3,-10.2 -0.3,-20.7 0.6,-31.1 1,-11.6 3.2,-23.4 4.8,-34.8 1.4,-9.7 2.3,-19.8 3.3,-29.7 2.1,-21.1 2.9,-41.7 3,-64.5 0.1,-17.6 0.3,-40.8 -0.2,-64.5 -0.4,-19.1 -1.9,-41.8 -4.4,-64.5 -1.1,-10.3 -2.3,-20.8 -3.7,-30.9 -1.5,-11 -3.5,-22.4 -4.6,-33.6 -1.5,-14.6 -2,-29.4 -2.7,-43.7 -0.3,-6.8 -0.7,-13.8 -1.1,-20.7 -0.8,-13 -1,-26.2 -2,-38.9 -0.7,-8.4 -1.4,-17 -2,-25.5 H 260 c 0,0 0,0 0,0 0.6,8.5 1.3,17.2 2,25.6 1.1,12.7 2.5,25.9 3.3,38.9 0.4,6.9 0.8,13.9 1.1,20.7 0.7,14.3 1.2,29.2 2.6,43.8 1.1,11.2 3.5,22.6 5.1,33.6 1.4,10.1 2,20.6 3.1,30.9 2.4,22.7 3.9,45.3 4.3,64.4 0.5,23.7 0.8,46.9 0.8,64.5 -0.1,22.8 -1.1,43.4 -3.3,64.4 -1,9.9 -1.8,19.9 -3.1,29.6 -1.6,11.4 -3.4,23.2 -4.3,34.9 -0.9,10.4 -1.7,20.9 -2.1,31.1 -0.4,10.9 0.1,22.2 -0.9,33.3 -0.9,10.1 -3.5,20.5 -5,30.4 -1.6,11.2 -2.7,22.7 -3.6,34 -1.7,21.9 -1.4,43.9 0.1,64.5 l 2.3,0.1 c 0,0.1 0,0.1 0,0 z"
             id="path112"
             inkscape:connector-curvature="0"
             style="fill:#939393" /><path
             class="st1"
             d="m 283.6,654.1 c -1.7,-21.5 -2.4,-43.1 -1.8,-64.4 0.3,-12.8 2.1,-25.8 2.8,-38.4 0.5,-8.6 0.9,-17.4 1.2,-26.1 0.2,-5 0.4,-10.1 0.6,-15.1 0.6,-16.2 0.5,-32.9 2.7,-49.3 1.3,-10.3 3.1,-20.7 5,-30.8 2.1,-11 4.1,-22.4 5.4,-33.6 2.6,-21.8 3.1,-43.5 2.8,-64.6 l -0.2,-9.9 c -0.3,-17.9 -1,-36.4 -1.2,-54.5 l -0.1,-6.6 c -0.2,-19 0.2,-38.6 -1.1,-57.9 -0.8,-10.9 -2.9,-21.9 -4,-32.6 -1.1,-10.4 -2.2,-21.2 -3,-31.9 -0.8,-11 -1,-22.2 -1.4,-33.1 -0.4,-10.3 0,-20.9 -0.7,-31.4 -0.8,-11.8 -2.8,-23.9 -4,-35.5 -1,-9.5 -2.2,-19.3 -3,-28.9 h -0.9 c 0,0 0,0 0,0.1 0.8,9.7 1.3,19.5 2.3,29 1.2,11.6 2.7,23.6 3.6,35.5 0.7,10.4 1.1,21.1 1.4,31.3 0.4,10.9 1.7,22.1 2.5,33.1 0.8,10.6 0.9,21.5 2,31.9 1.1,10.7 2.6,21.7 3.4,32.6 1.4,19.3 1.2,38.9 1.4,57.8 l 0.1,6.6 c 0.2,18.2 0.4,36.7 0.7,54.6 l 0.2,9.9 c 0.3,21 1.1,42.7 -1.5,64.4 -1.3,11.2 -3.4,22.6 -5.5,33.6 -1.9,10.1 -3.6,20.6 -4.9,30.9 -2.1,16.5 -2.5,33.3 -3.1,49.5 -0.2,4.9 -0.4,10 -0.6,15.1 -0.4,8.7 -0.6,17.5 -1.1,26.1 -0.7,12.6 -2.2,25.6 -2.6,38.4 -0.6,21.3 0,43 1.7,64.5 l 0.9,-0.3 c 0,0.1 0,0.1 0,0 z"
             id="path114"
             inkscape:connector-curvature="0"
             style="fill:#939393" /><path
             class="st1"
             d="m 271.3,654.1 c -1.1,-18.8 -1.1,-39.3 0.6,-64.4 0.6,-9.1 2.3,-18.4 3,-27.4 1,-12.2 1,-24.7 1.7,-37.1 0.4,-6.7 0.6,-13.5 0.9,-20.1 0.6,-14.5 1.9,-29.6 3.5,-44.4 1.3,-11.3 3.4,-22.9 5.3,-34 1.7,-10 2.4,-20.3 3.7,-30.4 2.3,-18.8 4.3,-38.7 4.2,-64.6 -0.1,-11.4 -1.2,-22.9 -1.5,-34.1 -0.2,-10 -0.5,-20.3 -0.6,-30.4 -0.1,-5.2 -0.1,-10.4 -0.1,-15.5 0,-16.1 0.7,-32.7 -0.5,-49.1 -1,-13 -2.8,-26.1 -4.5,-38.9 -1.1,-8.4 -2.8,-17.1 -3.7,-25.6 -1.3,-11.8 -2.2,-23.8 -3.1,-35.4 -0.7,-9.5 -1.8,-19.4 -2.7,-29.1 -0.8,-7.9 -1.7,-15.9 -2.6,-23.7 -1.5,-13.3 -2.8,-27.1 -3.6,-40.7 h -0.5 c 0,0 0,0 0,0 0.8,13.6 1.9,27.4 3.5,40.8 0.9,7.8 1.8,15.8 2.6,23.7 0.9,9.7 2.1,19.5 2.8,29.1 0.9,11.6 1.4,23.6 2.6,35.4 0.9,8.5 2.4,17.2 3.5,25.6 1.7,12.7 3.1,25.9 4.1,38.8 1.2,16.3 1.6,32.9 1.6,49 0,5.1 0,10.3 0.1,15.5 0.1,10.1 0.6,20.4 0.8,30.4 0.3,11.2 0,22.7 0.1,34.1 0.2,25.8 -1.1,45.7 -3.4,64.4 -1.3,10.1 -2.5,20.4 -4.2,30.4 -1.9,11.2 -4,22.7 -5.3,34.1 -1.7,14.8 -2,29.9 -2.5,44.5 -0.3,6.6 -0.5,13.4 -0.9,20 -0.7,12.3 -2.6,24.9 -3.6,37.1 -0.7,9 -1.4,18.3 -2,27.4 -1.7,25.1 -0.8,45.6 0.3,64.5 l 0.4,0.1 c 0,0.1 0,0.1 0,0 z"
             id="path116"
             inkscape:connector-curvature="0"
             style="fill:#939393" /><path
             class="st1"
             d="m 251.9,654.2 c -0.8,-25 -0.8,-45.4 0.3,-64.4 1.1,-18.6 3.7,-37.4 5.8,-55.7 0.3,-2.9 0.7,-5.8 1,-8.7 2.5,-21.8 4.8,-43.5 7,-64.5 2.2,-21.1 3.7,-42.9 4.8,-64.5 0.6,-12.1 1.4,-24.3 1.6,-36.2 0.2,-9.3 -0.2,-18.9 0.2,-28.3 0.3,-6.8 0.6,-13.7 1,-20.4 0.7,-14.4 1.4,-29.4 1.2,-44.1 -0.2,-19.2 -2.3,-39.7 -5.8,-64.6 -1.2,-8.7 -1.8,-17.4 -3.1,-25.9 -2,-12.6 -4.8,-25.7 -6.4,-38.5 C 256.9,116.6 256.6,94.9 255.4,74 254,50.1 252.5,30.2 251.9,9.6 h -2 c 0,0 0,0 0,0 0.7,20.6 1.7,40.6 3.2,64.5 1.3,21 3.3,42.7 6,64.5 1.6,12.9 2.8,25.9 4.8,38.6 1.3,8.5 2.8,17.3 4.1,25.9 3.5,24.8 6.1,45.3 6.3,64.4 0.1,14.7 -1.6,29.6 -2.3,44 -0.3,6.7 -0.7,13.6 -1,20.5 -0.4,9.5 0.7,19.1 0.5,28.4 -0.2,11.8 -1.5,24.1 -2.1,36.1 -1.1,21.5 -2.8,43.3 -5,64.4 -2.2,21 -4.4,42.7 -6.9,64.5 -0.3,2.9 -0.7,5.8 -1,8.7 -2.1,18.3 -4.3,37.2 -5.4,55.8 -1.1,19 -1.9,39.5 -1.1,64.5 l 1.9,-0.2 c 0,0 0,0 0,0 z"
             id="path118"
             inkscape:connector-curvature="0"
             style="fill:#939393" /><path
             class="st1"
             d="m 198.6,654.2 c -0.3,-23.4 1.7,-44.5 5.6,-64.3 2.1,-10.8 5,-21.7 7.7,-32.3 2.8,-10.5 4.8,-21.4 6.9,-32.2 4.5,-22.8 6.9,-45.4 7.6,-64.6 0.7,-19.9 0.1,-41 -0.2,-64.5 -0.1,-7 -0.2,-14.1 -0.4,-20.9 -0.3,-14.3 -0.6,-29 -0.5,-43.5 0.1,-13.5 0.6,-27.1 1.1,-41.4 0.3,-8.4 0,-17.2 0.2,-26.3 0.6,-26.5 0.9,-53.1 -2.9,-67.9 -1.8,-7.2 -4.5,-11.4 -7.4,-15.8 -3.1,-4.9 -6.4,-10 -8.6,-19.6 -3.5,-15.1 -4.6,-40.7 -5.6,-65.6 -0.2,-5.1 -0.4,-10.1 -0.6,-14.9 C 201,69.9 200.4,60.5 199.9,51.3 199,36.1 198.8,22.9 198.7,9.5 H 197 c 0,0 0,0 0,0 0.2,13.4 0.4,26.6 1.3,41.9 0.5,9.1 2,18.6 2.5,29.1 0.2,4.8 0.4,9.8 0.6,14.9 1,24.9 1.8,50.6 5.4,65.8 2.3,9.8 5.6,15 8.8,20 2.8,4.4 5.4,8.5 7.2,15.5 3.7,14.7 4.4,41.1 3.8,67.5 -0.2,9.2 -0.6,17.9 -0.8,26.3 -0.4,14.3 -2,27.9 -2.1,41.4 -0.1,14.5 1.4,29.3 1.7,43.6 0.1,6.9 0.3,14 0.4,20.9 0.3,23.5 -0.2,44.6 -0.9,64.4 -0.7,19.1 -2.4,41.7 -6.9,64.4 -2.1,10.7 -4.3,21.6 -7.1,32.1 -2.8,10.6 -6.3,21.6 -8.4,32.4 -3.9,19.9 -5.6,41.1 -5.3,64.6 l 1.4,-0.1 c 0,0 0,0 0,0 z"
             id="path120"
             inkscape:connector-curvature="0"
             style="fill:#939393" /><path
             class="st1"
             d="m 212.6,654.2 c -0.1,-22.1 1.8,-43.7 5.1,-64.4 2,-13 3.8,-26.2 6.5,-38.9 1.8,-8.4 3.4,-17 5,-25.5 4.1,-21.6 7.9,-43.3 9.3,-64.6 1.3,-19.6 1.4,-40.7 0.7,-64.5 -0.2,-6.7 -0.5,-13.6 -0.7,-20.2 -0.6,-14.5 -1.7,-29.5 -1.5,-44.2 0.2,-13.5 1.3,-27.3 2,-40.7 0.5,-7.8 0.9,-15.9 1.3,-23.8 0.8,-19.3 0.6,-41.9 -3.5,-63.6 -1.9,-10.3 -3.5,-20 -6.5,-30.3 -2.9,-9.9 -7,-20.2 -9,-30.9 -3.6,-18.5 -4.4,-38.8 -5.4,-58.3 -0.2,-3.1 -0.3,-6.2 -0.5,-9.3 -0.3,-6.1 -0.7,-12.1 -1,-18 -1,-16.4 -1.5,-31.8 -1.6,-47.5 h -1.9 c 0,0 0,0 0,0 0.1,15.7 2.1,31.2 3.1,47.6 0.4,5.9 0.7,11.9 1,18 0.2,3.1 0.3,6.2 0.5,9.3 1,19.6 1.6,39.9 5.2,58.5 2.1,10.8 5.4,21.1 8.2,31 3,10.3 4.6,20 6.6,30.2 4.1,21.5 4.7,44.1 3.9,63.3 -0.3,7.9 -0.8,16 -1.3,23.8 -0.8,13.3 -2.5,27.1 -2.7,40.7 -0.2,14.8 0.3,29.8 0.9,44.3 0.3,6.6 0.5,13.5 0.7,20.2 0.7,23.8 0.8,44.8 -0.5,64.4 -1.4,21.2 -4.4,42.8 -8.4,64.4 -1.6,8.5 -3.5,17.1 -5.3,25.5 -2.7,12.8 -4.3,26 -6.4,39 -3.2,20.7 -5.8,42.4 -5.6,64.6 l 1.8,-0.1 c 0,0 0,0 0,0 z"
             id="path122"
             inkscape:connector-curvature="0"
             style="fill:#939393" /><path
             class="st1"
             d="m 307.4,654.2 -0.1,-3.8 c -0.6,-19.9 -1.1,-40.4 -0.6,-60.6 0.3,-10.6 1,-21.4 1.6,-31.8 0.6,-10.7 1.6,-21.8 1.8,-32.7 0.2,-7.1 0.2,-14.3 0.2,-21.3 0.1,-14.1 0.2,-28.8 1.4,-43.1 1,-11.8 2.2,-23.9 3.9,-35.5 1.4,-9.5 2.7,-19.3 3.7,-28.9 2.2,-21.3 3.4,-42.7 3.4,-64.5 0,-7.6 0,-15.1 0,-22.7 0,-13.7 -1.1,-27.9 -1,-41.8 0,-2.9 0.1,-5.8 0.1,-8.7 0.2,-18.3 0.5,-37.2 -0.8,-55.8 -0.9,-13.8 -2.1,-27.8 -3.8,-41.4 -0.9,-7.6 -1.9,-15.4 -2.8,-23.1 -2.5,-23.7 -4.5,-46.9 -5.2,-64.4 -0.7,-17.6 -1.1,-35.5 -1.6,-52.8 -0.1,-3.9 -0.2,-7.8 -0.3,-11.7 h -1 c 0,0 0,0 0,0 0.1,3.9 0.2,7.8 0.3,11.7 0.5,17.3 1.5,35.2 2.2,52.8 0.7,17.6 1.8,40.8 4.3,64.5 0.8,7.7 1.8,15.5 2.8,23.1 1.7,13.6 3.5,27.6 4.4,41.3 1.3,18.6 1.3,37.5 1.2,55.7 0,2.9 -0.1,5.8 -0.1,8.7 -0.1,13.9 -0.4,28.1 -0.4,41.8 0,7.6 0,15.1 0,22.7 0,21.8 -0.8,43.1 -3,64.4 -1,9.6 -1.4,19.4 -2.8,28.9 -1.7,11.7 -4.8,23.7 -5.8,35.6 -1.2,14.4 -0.7,29.1 -0.7,43.2 0,7 -0.1,14.2 -0.2,21.3 -0.2,10.9 -0.2,21.9 -0.8,32.6 -0.5,10.4 -0.9,21.2 -1.2,31.8 -0.5,20.2 -0.8,40.8 -0.3,60.7 l 0.1,3.8 h 1.1 c 0,0 0,0 0,0 z"
             id="path124"
             inkscape:connector-curvature="0"
             style="fill:#939393" /><path
             class="st1"
             d="m 353.7,615.2 c 0.1,-8.4 0.2,-17 0.6,-25.5 0.5,-10.4 1.5,-20.9 2.3,-31.1 0.9,-10.9 1.8,-22.2 2.3,-33.4 0.5,-12.5 -0.3,-25.1 -0.4,-37.4 -0.1,-8.9 0.7,-18.1 0.8,-27.1 0.1,-8.3 0.5,-16.7 0.8,-24.9 0.5,-13 0.2,-26.4 0,-39.6 -0.1,-8.6 -0.6,-17.3 -1.1,-25.7 -0.7,-12.7 -1.5,-25.9 -1.1,-38.8 0.4,-12.5 1.9,-25.1 3.3,-37.4 1,-8.9 1.6,-18 2.3,-27 1.4,-20.6 2.1,-42.3 -0.4,-64.6 -2,-17.7 -5.2,-35.6 -8.3,-53 -0.7,-3.9 -1.4,-7.7 -2,-11.6 -3.6,-20.7 -6.9,-42.8 -6.4,-64.4 0.3,-13 2,-26.3 3.7,-39.1 1.1,-8.3 2.2,-16.9 2.9,-25.3 0,0 0,0 0,-0.1 h -2.3 c -0.7,8.4 -1.8,16.9 -2.9,25.2 -1.6,12.9 -2.4,26.2 -2.7,39.3 -0.4,21.7 1.9,43.8 5.5,64.6 0.7,3.9 1.4,7.7 2,11.6 3.1,17.3 7.4,35.3 9.4,52.9 2.5,22.2 2.8,43.8 1.3,64.4 -0.6,9 -2.6,18.1 -3.6,27 -1.4,12.3 -1.5,25 -1.9,37.5 -0.4,13 0,26.1 0.7,38.9 0.5,8.4 0.9,17.1 1.1,25.6 0.2,13.2 -1.1,26.6 -1.6,39.5 -0.3,8.2 -0.7,16.6 -0.8,24.9 -0.2,9.1 -0.2,18.3 -0.1,27.2 0.1,12.2 1.3,24.9 0.8,37.3 -0.4,11.1 -2,22.4 -2.9,33.3 -0.8,10.2 -2.1,20.8 -2.6,31.2 -0.4,8.5 -0.5,17.2 -0.6,25.6 -0.2,12.8 -0.2,25.9 -1.3,38.9 0,0 0,0 0,0.1 h 2.3 c 1.1,-13 0.7,-26.2 0.9,-39 z"
             id="path126"
             inkscape:connector-curvature="0"
             style="fill:#939393" /><path
             class="st1"
             d="m 361.4,621.2 c 0.3,-10.3 0.7,-21 1.4,-31.4 0.6,-10.2 2.3,-20.6 3.2,-30.6 1,-11.1 2.2,-22.6 2.8,-33.9 0.7,-12.5 1.2,-25.2 1.4,-37.5 0.1,-8.8 0.1,-18 0.4,-27 0.3,-7.4 0.7,-15 1.1,-22.4 0.7,-13.8 1.6,-28.1 1.5,-42.2 0,-9.5 -1.4,-19.1 -1.8,-28.4 -0.5,-11.8 -0.3,-24 -0.1,-36.1 0.2,-11.8 1.3,-23.7 2.2,-35.3 0.8,-9.6 1.3,-19.4 1.7,-29.1 0.8,-21 -0.6,-42.7 -3.6,-64.6 -1.6,-12 -3.4,-24.2 -5.6,-35.9 -1.7,-9.4 -3.9,-19 -5.4,-28.6 -3.6,-23.4 -5.3,-44.5 -4.9,-64.4 0.3,-13.6 2.1,-27.4 3.3,-40.7 0.7,-7.8 1.4,-15.8 1.9,-23.7 0,0 0,0 0,0 h -1.1 c -0.5,7.9 -1.2,15.9 -1.9,23.7 -1.2,13.4 -2.4,27.2 -2.6,40.8 -0.4,20 0.9,41.1 4.5,64.6 1.5,9.5 3.2,19.2 4.9,28.6 2.2,11.8 3.6,23.9 5.3,35.9 3,21.8 3.9,43.5 3.1,64.4 -0.4,9.7 -0.7,19.6 -1.5,29.1 -0.9,11.6 -1.6,23.6 -1.8,35.4 -0.2,12.1 -0.4,24.3 0.1,36.1 0.4,9.3 0.6,18.9 0.7,28.3 0.1,14 0.6,28.3 -0.1,42.1 -0.4,7.3 -0.8,14.9 -1.1,22.4 -0.3,9 -0.5,18.1 -0.6,27 -0.2,12.3 -1,25 -1.6,37.5 -0.6,11.3 -1.6,22.7 -2.6,33.8 -0.9,10 -2.7,20.4 -3.3,30.6 -0.6,10.5 -0.9,21.2 -1.2,31.5 -0.4,10.8 0.5,22 -0.3,33 0,0 0,0 0,0 h 1.1 c 0.6,-11 0.1,-22.2 0.5,-33 z"
             id="path128"
             inkscape:connector-curvature="0"
             style="fill:#939393" /><path
             class="st1"
             d="m 370.5,621.6 c 0.3,-10.4 1.7,-21.2 2.3,-31.8 0.6,-9.9 1.2,-20 2.1,-29.8 1,-11.4 2.5,-23.1 3.1,-34.7 0.5,-9.6 0.5,-19.3 0.7,-28.7 0.1,-11.7 0.4,-23.8 1.2,-35.7 0.6,-9 0.8,-18.3 1.7,-27.2 1.3,-12.2 2.4,-24.9 2.8,-37.3 0.4,-12.4 -0.1,-25.1 -0.7,-37.3 -0.4,-8.9 -0.3,-18.2 -0.3,-27.2 -0.1,-11.1 -0.3,-22.4 0.2,-33.4 0.5,-10.2 1.3,-20.7 1.3,-31.1 0,-19.4 -0.9,-39.9 -4.2,-64.6 -1.6,-11.5 -4.6,-23.2 -6.4,-34.5 -1.6,-9.8 -2.2,-20 -3.6,-30 -2.5,-17.6 -5.1,-40.7 -4.8,-64.4 0.2,-13.4 0.6,-27.1 1.8,-40.2 0.7,-7.9 1.4,-16.1 1.9,-24.2 0,0 0,0 0,0 h -1.1 c -0.5,8 -1.2,16.2 -1.9,24.1 -1.2,13.2 -2.8,26.9 -3,40.3 -0.3,23.7 3.2,47 5.7,64.6 1.4,10 3.1,20.2 4.7,30 1.8,11.3 3.3,23 4.8,34.5 3.3,24.6 5.4,45.1 5.4,64.4 0,10.3 -0.8,20.9 -1.3,31 -0.5,11 -1.7,22.3 -1.7,33.4 0.1,9.1 1.3,18.3 1.8,27.3 0.6,12.2 1.5,24.8 1.1,37.2 -0.4,12.4 -2.6,25 -3.9,37.2 -1,8.9 -2,18.1 -2.7,27.2 -0.8,11.9 -0.7,24.1 -0.8,35.8 -0.1,9.4 -0.1,19.1 -0.5,28.7 -0.6,11.5 -1.8,23.3 -2.9,34.6 -0.9,9.8 -1.8,19.9 -2.4,29.8 -0.6,10.6 -0.6,21.4 -0.9,31.9 -0.3,10.7 -1,21.7 -1.7,32.6 0,0 0,0 0,0 h 1.1 c 0.8,-10.8 0.8,-21.8 1.1,-32.5 z"
             id="path130"
             inkscape:connector-curvature="0"
             style="fill:#939393" /><path
             class="st1"
             d="m 381.7,612.1 c 0,-7.3 -0.1,-14.9 0,-22.4 0.2,-15.5 2.4,-31.2 3.2,-46.4 0.3,-5.9 0.7,-12 1,-18.1 0.2,-4.7 0.4,-9.4 0.6,-14.1 0.7,-16.5 1,-33.5 2.7,-50.3 0.8,-7.3 1.7,-14.8 2.7,-22 1.8,-13.9 4,-28.3 4.4,-42.5 0.4,-12.9 -1.3,-26 -2,-38.7 -0.5,-8.5 -0.9,-17.2 -1,-25.8 -0.2,-11.1 0.4,-22.3 0.8,-33.2 0.4,-10.2 0.4,-20.8 0.3,-31.2 -0.2,-18.9 -1.1,-38.8 -4.6,-64.6 -1.4,-10.6 -3.3,-21.4 -4.9,-31.9 -1.6,-10.7 -3.4,-21.7 -4.9,-32.6 -2.6,-19.1 -5.5,-41.6 -4.7,-64.4 0.4,-12.1 1.8,-24.4 3.1,-36.3 1,-9.2 1.9,-18.8 2.5,-28.1 0,0 0,0 0,0 H 380 c -0.6,9.3 -1.7,18.9 -2.7,28 -1.3,11.9 -2.1,24.3 -2.5,36.4 -0.8,22.9 1.7,45.5 4.2,64.6 1.5,10.9 2.9,21.9 4.5,32.6 1.6,10.4 2.9,21.3 4.3,31.9 3.5,25.7 5.2,45.6 5.4,64.4 0.1,10.4 0.7,21 0.4,31.2 -0.4,10.9 -1.8,22.2 -1.6,33.3 0.1,8.6 0.6,17.4 1,25.9 0.7,12.6 2.4,25.7 2,38.6 -0.5,14.1 -2.1,28.5 -3.9,42.4 -0.9,7.2 -1.9,14.7 -2.7,22.1 -1.7,16.8 -3.7,33.9 -4.4,50.4 -0.2,4.7 -0.4,9.4 -0.6,14.1 -0.3,6 -0.6,12.1 -0.9,18.1 -0.8,15.2 -1.6,31 -1.9,46.4 -0.1,7.5 -0.1,15.1 0,22.4 0.1,13.8 0.4,28 -0.5,42 0,0 0,0 0,0 h 0.9 c 0.8,-14.1 0.8,-28.4 0.7,-42.2 z"
             id="path132"
             inkscape:connector-curvature="0"
             style="fill:#939393" /><path
             class="st1"
             d="m 342.6,596.4 0.3,-6.7 c 0.2,-5.2 0.5,-10.4 0.7,-15.5 0.7,-16 0.7,-32.6 1.3,-49 0.3,-8.2 0.6,-16.5 0.9,-24.5 0.4,-13.1 1.4,-26.6 2,-40 0.2,-4 0.4,-8.1 0.6,-12.1 0.8,-17.2 2.5,-34.9 2.3,-52.4 -0.1,-8.4 -0.4,-17 -0.8,-25.3 -0.5,-12.8 -1.9,-26.1 -1.5,-39.2 0.4,-12.7 1.5,-25.7 2.7,-38.2 0.8,-8.6 1.2,-17.5 1.7,-26.3 1.4,-22.2 0.9,-43.9 -1.3,-64.6 -1.6,-14.5 -4,-29.2 -6.5,-43.5 -1.2,-6.9 -2.5,-14 -3.6,-21 -4,-24.8 -5.2,-45.3 -5.3,-64.4 -0.1,-16.9 0.8,-34.1 2.1,-50.7 0.4,-4.6 0.7,-9.2 1,-13.7 0,0 0,0 0,0 h -0.4 c -0.3,4.6 -0.7,9.1 -1,13.7 -1.3,16.6 -2.7,33.9 -2.6,50.8 0.1,19.2 1.1,39.7 5.1,64.6 1.1,7 2.4,14.2 3.6,21.1 2.5,14.2 5.1,28.9 6.7,43.4 2.3,20.6 2.7,42.2 1.3,64.4 -0.6,8.7 -0.6,17.6 -1.4,26.2 -1.2,12.5 -3.2,25.5 -3.6,38.3 -0.4,13.1 1.3,26.4 1.9,39.3 0.3,8.3 0.7,16.8 0.8,25.2 0.2,17.4 -0.9,35.2 -1.8,52.3 -0.2,4 -0.4,8.1 -0.6,12.1 -0.6,13.3 -2.1,26.9 -2.6,40 -0.3,8 -0.6,16.3 -0.9,24.5 -0.6,16.3 -0.9,32.9 -1.6,48.9 -0.2,5.2 -0.5,10.4 -0.7,15.5 l -0.3,6.7 c -0.8,18.9 -0.9,38.5 -2.3,57.8 0,0 0,0 0,0 h 0.4 c 1.3,-19.2 2.6,-38.8 3.4,-57.7 z"
             id="path134"
             inkscape:connector-curvature="0"
             style="fill:#939393" /><path
             class="st1"
             d="m 318.2,654.2 c -0.1,-5.4 -0.3,-10.8 -0.5,-16.1 -0.5,-15.9 -0.9,-32.3 -0.3,-48.4 0.5,-12 1.7,-24.3 2.8,-36.1 0.9,-9.3 1.7,-18.9 2.3,-28.3 0.7,-10.9 0.6,-21.9 0.8,-32.6 0.2,-10.5 1,-21.3 1.6,-31.9 0.6,-9.4 2.1,-19 2.9,-28.3 1.1,-11.9 1.8,-24.1 2.3,-36.2 0.5,-11.5 0.5,-23.2 0.3,-34.4 -0.1,-9.8 0.1,-20 0.4,-30 0.3,-10.3 0.1,-20.9 0.8,-31.1 0.7,-11 1.3,-22.3 1.5,-33.4 0.5,-22.2 -0.9,-45 -2.5,-64.5 -1.9,-22.9 -3.8,-45.4 -5.6,-64.5 l -0.4,-3.6 C 322.7,114.9 320.4,94.2 319.5,74 318.9,60.6 318.7,47 318.6,33.8 318.5,25.9 318.4,17.6 318.2,9.6 h -0.6 c 0,0 0,0 0,0 0.2,8.1 0.3,16.3 0.4,24.2 0.2,13.2 0.5,26.8 1.1,40.3 0.9,20.3 2.5,40.9 4.4,60.9 l 0.4,3.6 c 1.8,19.1 4.1,41.6 6,64.5 1.6,19.5 2.9,42.2 2.4,64.4 -0.2,11.1 -0.2,22.4 -0.9,33.4 -0.7,10.2 -1.7,20.7 -2,31.1 -0.3,10 -0.2,20.2 -0.1,30.1 0.1,11.3 -0.8,22.9 -1.2,34.4 -0.5,12 -0.5,24.3 -1.6,36.1 -0.9,9.3 -2.3,18.9 -2.8,28.3 -0.6,10.7 -1.4,21.5 -1.7,32 -0.2,10.7 -0.5,21.7 -1.2,32.5 -0.6,9.4 -0.2,19 -1.1,28.3 -1.1,11.9 -3.3,24.1 -3.8,36.2 -0.7,16.2 0.6,32.6 1.1,48.5 0.2,5.3 0.4,10.7 0.5,16 l 0.7,-0.2 c 0,0 0,0 0,0 z"
             id="path136"
             inkscape:connector-curvature="0"
             style="fill:#939393" /><path
             class="st1"
             d="m 329.2,626.8 c -0.1,-12.1 -0.1,-24.7 0.5,-37 0.5,-11.3 2.1,-22.8 3.1,-33.9 0.9,-10 2.1,-20.4 2.7,-30.5 0.7,-12.5 0,-25.2 0.1,-37.5 0.1,-8.8 0.8,-18 1.1,-27 0.3,-9.8 1.3,-19.8 1.9,-29.5 0.7,-11.5 0.5,-23.3 0.7,-35 0.2,-9.1 1,-18.3 0.9,-27.2 -0.1,-12.2 -0.2,-24.9 0.4,-37.3 0.5,-10.4 1.2,-21.1 2.1,-31.3 1,-10.9 2.1,-22.1 2.5,-33.1 0.8,-19.3 0.1,-39.9 -2.6,-64.6 -1.9,-17.5 -5,-35.3 -7.5,-52.5 -0.6,-4 -1.2,-8 -1.7,-12 -3.1,-21.6 -6.2,-42.8 -6.7,-64.4 -0.3,-13.3 1.3,-26.9 1.9,-40 0.4,-8 0.8,-16.3 1,-24.4 0,0 0,0 0,0 h -2.1 c -0.2,8.1 -0.6,16.4 -1,24.4 -0.6,13.1 -1.1,26.7 -0.8,40.1 0.5,21.7 3.9,42.9 7,64.6 0.6,4 1.2,8 1.7,12 2.5,17.2 5.1,35 7,52.4 2.6,24.6 2.7,45.1 1.9,64.4 -0.5,11 -1.6,22.2 -2.6,33.1 -1,10.3 -0.8,20.9 -1.3,31.4 -0.6,12.5 -0.9,25.1 -0.8,37.4 0.1,8.9 0.1,18.1 -0.1,27.1 -0.3,11.6 -1.9,23.5 -2.5,34.9 -0.6,9.7 -1,19.7 -1.3,29.5 -0.3,9 0,18.2 -0.1,27 -0.1,12.3 0.5,25 -0.2,37.5 -0.6,10.2 -1.9,20.5 -2.8,30.5 -1.1,11.1 -1.8,22.7 -2.3,34 -0.6,12.4 -1.5,24.9 -1.4,37.1 0.1,9 0,18.3 -0.2,27.4 0,0 0,0 0,0 h 2.1 c 0.2,-9.4 -0.5,-18.6 -0.6,-27.6 z"
             id="path138"
             inkscape:connector-curvature="0"
             style="fill:#939393" /></g></g></g></g></svg>