<?xml version="1.0" encoding="utf-8"?>
<!-- Generator: Adobe Illustrator 21.0.0, SVG Export Plug-In . SVG Version: 6.00 Build 0)  -->
<svg version="1.1" id="Layer_1" xmlns="http://www.w3.org/2000/svg" xmlns:xlink="http://www.w3.org/1999/xlink" x="0px" y="0px"
	 viewBox="0 0 693.6 693.6" style="enable-background:new 0 0 693.6 693.6;" xml:space="preserve">
<style type="text/css">
	.st0{clip-path:url(#SVGID_2_);}
	.st1{fill:#939393;}
</style>
<g>
	<g>
		<g>
			<defs>
				<circle id="SVGID_1_" cx="350.2" cy="370.7" r="261.8"/>
			</defs>
			<clipPath id="SVGID_2_">
				<use xlink:href="#SVGID_1_"  style="overflow:visible;"/>
			</clipPath>
			<g class="st0">
				<path class="st1" d="M110.5,654.1C110.5,654.1,110.5,654.2,110.5,654.1l2.6,0.1c0.2-1.7,0.3-3.4,0.5-5.1
					c2-19.5,3.7-39.6,2.1-59.5c-1.2-14.3-5.2-28.8-8.3-42.9c-1.6-7.1-3.2-14.4-4.5-21.6c-3.7-20-4.9-41-5.4-64.4
					c-0.1-6.9-0.1-13.9-0.1-20.6c0-14.4-0.8-29.3-2.1-43.9c-1.1-11.7-2.4-23.7-4.3-35.2c-1.6-9.6-3.8-19.5-4.9-29.3
					c-2.2-19.1-2-39.6-0.8-64.4c1-20.7,3.5-41.8,6.6-64.4c1.3-9.1,2.4-18.3,3.8-27.2c1.9-12.2,3.6-24.9,5.1-37.3
					c2.4-19.4,4.3-39.1,5.8-58.2l0.5-6.3c2-26.1,4.1-46,6-64.5c0,0,0,0,0-0.1h-2.6c-1.9,18.5-2.8,38.4-4.9,64.4l-0.5,6.3
					c-1.5,19.1-3.6,38.8-6.1,58.1c-1.5,12.4-2.5,25.1-4.4,37.3c-1.4,8.9-3.4,18.1-4.7,27.2c-3.2,22.7-4.9,43.8-6,64.5
					c-1.3,24.9-0.7,45.4,1.5,64.6c1.1,9.8,2.9,19.7,4.5,29.4c1.9,11.5,3.6,23.4,4.7,35.1c1.3,14.6,0.6,29.4,0.6,43.8
					c0,6.8,0,13.8,0.1,20.7c0.4,23.4,3.1,44.6,6.8,64.6c1.3,7.2,3,14.6,4.5,21.7c3.1,14,5.8,28.5,7,42.7c1.7,19.7-0.7,39.8-2.7,59.2
					C110.9,650.7,110.7,652.4,110.5,654.1z"/>
				<path class="st1" d="M98.9,654.2h1.7c1.4-23.7,1.8-44.8,0.4-64.5c-1.1-14.9-3-30-4.8-44.6c-0.8-6.5-1.7-13.2-2.5-19.9
					c-2.9-24.6-4.3-45.1-4.3-64.4c0-6.9,0.2-13.9,0.3-20.7c0.4-14.3-0.1-29.2-1.3-43.8c-1.1-12.6-3.4-25.4-5.7-37.8
					c-1.6-8.8-3.1-17.8-4.3-26.8c-2.6-19-4.1-39.4-3.3-64.4c0.8-24.6,3.2-45,6.8-64.4c1.5-7.9,3.3-16,5.1-23.8
					c3-13.3,7-27.1,8.6-40.7c1.6-14.5,1.1-29.2,1-43.4c-0.1-6.9-0.1-14.1,0-21.1C96.8,60,98,45.8,99,32.1c0.6-7.4,1.2-15.1,1.6-22.7
					c0,0,0,0,0,0h-1.7c-0.5,7.5-1.1,15.2-1.6,22.6c-1.1,13.7-2.7,27.9-3,41.8c-0.1,7.1-0.1,14.2,0,21.2c0.1,14.2,0.2,28.8-1.4,43.2
					c-1.5,13.5-4.4,27.3-7.4,40.6c-1.8,7.8-3.6,15.9-5.1,23.8c-3.7,19.4-4.8,39.9-5.6,64.6c-0.8,25-0.9,45.5,1.7,64.6
					c1.2,8.9,3.6,18,5.3,26.8c2.3,12.3,4.7,25.1,5.9,37.6c1.3,14.5,0.5,29.3,0.1,43.6c-0.2,6.8-0.3,13.8-0.3,20.8
					c0,19.4,1.1,39.9,4,64.6c0.8,6.6,1.7,13.4,2.5,19.9c1.9,14.6,4.1,29.7,5.2,44.6C100.5,609.4,100.4,630.5,98.9,654.2
					C98.9,654.2,98.9,654.2,98.9,654.2z"/>
				<path class="st1" d="M120.3,654.1C120.3,654.1,120.3,654.2,120.3,654.1l2.3,0.1c0.5-4.9,1-10,1.6-14.8
					c1.8-16.3,3.7-33.1,2.2-49.7c-1.4-14.8-5.2-29.7-9.1-44.2c-1.8-6.7-3.7-13.6-5.3-20.4c-4.8-20.5-7.9-42.2-8.2-64.3
					c-0.1-8.1,0.1-16.3,0.2-24.2c0.3-13.2,1.1-26.9,0-40.3c-1-12.9-4.4-26-6.6-38.7c-1.5-8.5-2.5-17.2-3.6-25.8
					c-2.8-21.2-3-42.8-1.3-64.3c1.5-18.4,4.8-37.1,7.8-55.1c0.5-3.1,1-6.2,1.6-9.3c3.2-19.5,6.3-40.6,9.6-64.5
					c3.4-24,5.1-44.2,6.6-64.5c0.7-9.1,1.6-18.3,2-27.2c0.6-12.2,1.3-24.8,2.5-37.3c0,0,0,0,0-0.1h-2.3c-1.2,12.4-0.9,25.1-1.5,37.3
					c-0.4,8.9-0.4,18.1-1.1,27.2c-1.5,20.3-4.4,40.4-7.8,64.4c-3.3,23.9-7.3,45-10.5,64.5c-0.5,3.1-1,6.2-1.6,9.3
					c-3.1,18.1-6,36.8-7.4,55.2c-1.7,21.6-0.5,43.3,2.3,64.6c1.1,8.6,2.8,17.4,4.3,25.9c2.2,12.6,4.3,25.7,5.3,38.6
					c1.1,13.4,0.6,27,0.3,40.2c-0.2,7.9-0.4,16.1-0.2,24.2c0.3,22.2,3.1,44,7.9,64.6c1.6,6.8,3.5,13.7,5.3,20.4
					c3.9,14.4,8.4,29.3,9.7,44c1.5,16.5-1.6,33.2-3.4,49.5C121.4,644.1,120.8,649.2,120.3,654.1z"/>
				<path class="st1" d="M90.2,654.2h0.9c0.7-23.7-1.5-46.9-2.7-64.5c-1.4-18.8-2.8-38.7-5.6-64.5l-0.6-5.2
					c-2.1-19.4-4.3-39.5-4.6-59.2c-0.1-9.2,0.8-18.6,1.1-27.7c0.4-12,1.1-24.5,0.5-36.8c-0.6-13.3-2.5-26.8-4.2-39.9
					c-1-8.1-2.1-16.4-2.9-24.6c-1.8-18.7-3.3-39.2-2.9-64.4c0.5-25.9,1.9-45.8,4.6-64.4c1.3-8.9,3.5-17.9,5.1-26.7
					c2.3-12.4,4.6-25.2,5.9-37.8c1.5-14.2,1-28.6,1.2-42.6c0.1-7.2,0.2-14.6,0.5-21.9c0.4-10,1.6-20.2,2.3-30.1
					c0.8-11.3,1.9-22.9,2.3-34.4c0,0,0,0,0,0h-0.9c-0.4,11.4-1.6,23.1-2.4,34.3c-0.7,9.9-1.1,20.1-1.5,30.1
					c-0.3,7.3-0.4,14.8-0.5,22c-0.2,13.9-1.4,28.3-2.9,42.5c-1.3,12.6-3.6,25.4-5.8,37.7c-1.6,8.8-3.4,17.8-4.7,26.7
					c-2.7,18.7-3,38.6-3.5,64.6c-0.4,25.3-0.3,45.8,1.5,64.6c0.8,8.2,1.9,16.6,2.9,24.7c1.7,13,3.8,26.5,4.4,39.8
					c0.6,12.2,0,24.6-0.4,36.7c-0.3,9.1-1.1,18.5-1,27.8c0.3,19.8,3.4,39.9,5.5,59.3l0.6,5.2c2.8,25.8,4.2,45.7,5.5,64.5
					C89.3,607.3,91,630.6,90.2,654.2C90.2,654.2,90.2,654.2,90.2,654.2z"/>
				<path class="st1" d="M39.1,654.1c-0.6-7-1.5-14.1-2.3-21c-1.7-14.2-3.2-29-3.3-43.4c-0.1-11.1,1.2-22.4,2-33.4
					c0.8-10.2,1.5-20.7,1.5-31.1c0-15-2.3-30.2-3.8-45c-0.6-6.4-1.3-13.1-1.9-19.6c-1.8-21.8-1.6-43.4-0.4-64.4
					c0.4-7.6,1.1-15.2,1.7-22.7c1.1-13.7,1.7-27.9,1.6-41.8c-0.1-13.8-0.6-27.7-1.8-41.2c-0.7-7.6-1.4-15.5-1.9-23.3
					c-1.4-22.3-0.9-44.9-0.4-64.4c0.5-20.6,1.1-42.7,3.2-64.4c0.8-8.9,1.7-18,2.7-26.8c1.5-12.4,3.5-25.1,4.4-37.7
					c1.5-21.1,0.7-42.8-1.3-64.5h-1.2c0,0,0,0,0,0.1c2,21.7,1.6,43.3,0.1,64.4c-0.9,12.5-1.6,25.3-3.1,37.6
					c-1.1,8.8-2,17.9-2.9,26.8c-2.1,21.8-3.6,43.9-4.1,64.5c-0.5,19.5-0.8,42.2,0.6,64.5c0.5,7.8,1.2,15.7,1.9,23.3
					c1.2,13.5,2.5,27.4,2.6,41.1c0.1,13.9-1.4,28-2.5,41.7c-0.6,7.4-1.2,15.1-1.7,22.7c-1.2,21-0.4,42.8,1.3,64.6
					c0.5,6.5,1.2,13.2,1.9,19.6c1.5,14.7,3.4,29.9,3.4,44.8c0,10.3-1.4,20.8-2.2,31c-0.8,11-1.7,22.3-1.6,33.5
					c0.1,14.5,2.4,29.3,4,43.6c0.8,6.9,1.6,13.9,2.3,20.9L39.1,654.1C39.1,654.2,39.1,654.1,39.1,654.1z"/>
				<path class="st1" d="M136.1,654.2C136.1,654.2,136.1,654.2,136.1,654.2l1.8,0c0.2-4.3,0.5-8.7,0.7-13c1-16.9,1-34.3-0.8-51.5
					c-1.6-15.8-4.6-31.9-8.5-47.4c-1.4-5.6-2.9-11.4-4.3-17.2c-5.3-22.7-9.8-43.8-11-64.4c-0.5-8.9-0.3-17.9-0.5-26.7
					c-0.2-12.4-0.9-25.2-2.2-37.8c-1.2-11.7-2.9-23.5-4.9-35c-1.7-9.7-2.9-19.7-4.1-29.5c-2.6-21-2.9-42.7-0.7-64.3
					c1.3-12.2,2.7-24.6,4.7-36.6c1.5-9.1,3.9-18.6,5.2-27.8c1.1-8.3,1.9-16.7,2.8-24.9c1.3-13,1.6-26.4,4-39.5
					c1.8-9.8,4.4-19.7,6.8-29.4c2.8-11.5,6.1-23.4,7.9-35.1c2.5-16.2,3.7-32.6,4.2-48.5c0.2-5.3,0.4-10.7,0.7-16c0,0,0,0,0,0h-1.8
					c-0.3,5.3-0.5,10.8-0.7,16c-0.6,15.9-0.8,32.2-3.3,48.4c-1.8,11.7-4.9,23.5-7.6,35c-2.3,9.6-4.7,19.6-6.5,29.4
					c-2.4,13.2-4.9,26.7-6.2,39.7c-0.8,8.1-1.7,16.6-2.8,24.9c-1.2,9.3-1.7,18.7-3.2,27.8c-2,12-4.9,24.5-6.2,36.7
					c-2.3,21.7-2.1,43.5,0.5,64.6c1.2,9.9,2.8,19.9,4.5,29.6c2,11.4,4.5,23.3,5.7,34.9c1.3,12.6,1.2,25.3,1.4,37.7
					c0.2,8.8,1.3,17.8,1.9,26.7c1.3,20.7,3.7,41.8,9.1,64.6c1.3,5.7,2.8,11.5,4.3,17.2c3.9,15.5,8.2,31.5,9.9,47.2
					c1.8,17.1,1,34.5,0,51.3C136.6,645.4,136.3,649.8,136.1,654.2z"/>
				<path class="st1" d="M78.2,654.2h0.8c1.1-19.4,2.5-40.5,1.9-64.5c-0.6-24.1-3.2-45.2-5.4-64.5c-0.7-6.7-1.6-13.5-2.4-20
					c-1.9-14.6-2.6-29.6-3.2-44.4c-0.5-12-0.5-24.3-0.2-36.1c0.2-9.3-0.2-18.9-0.3-28.4c-0.3-16.8-0.9-33.8-2.5-50.3
					c-0.4-4.7-0.9-9.5-1.3-14.3c-1.9-22.2-3.9-43.9-4.4-64.4c-0.4-17.6,0.1-40.8,3-64.4c1.2-9.6,2.3-19.3,3.9-28.7
					c2-11.7,3.8-23.9,4.9-35.8c1.3-13.8,2.1-27.8,2.2-41.4c0-7.6,0.1-15.4,0.4-23.1c0.4-12.5,1.3-25.3,2.3-37.6
					c0.7-8.8,0.7-17.9,1.2-26.9c0,0,0,0,0,0h-0.8c-0.5,8.9-1.4,18-2.1,26.8c-1,12.3-1.9,25.1-2.3,37.6c-0.3,7.7-0.3,15.6-0.4,23.2
					c-0.1,13.5-0.6,27.5-1.9,41.3c-1.1,11.9-2.2,24-4.2,35.7c-1.6,9.4-4.1,19.2-5.3,28.7c-2.9,23.7-1.7,46.9-1.3,64.6
					c0.5,20.6,1.2,42.3,3.1,64.5c0.4,4.8,0.8,9.6,1.3,14.3c1.5,16.4,2.8,33.5,3,50.2c0.2,9.4,0.6,19,0.3,28.3
					c-0.3,11.9-1.8,24.1-1.3,36.2c0.6,14.8,3.2,29.9,5,44.5c0.8,6.6,1.7,13.3,2.4,20c2.1,19.3,3,40.4,3.7,64.4
					C79.1,613.7,79.3,634.8,78.2,654.2C78.2,654.2,78.2,654.2,78.2,654.2z"/>
				<path class="st1" d="M68.9,654.2h2.6c0.6-21.3-1.1-42.9-2.4-63.9l-0.4-6.8c-1.2-19.1-2.2-38.9-3.6-58.4
					c-0.2-2.9-0.4-5.8-0.6-8.8c-1.3-18.2-2.8-37.1-3.2-55.7c-0.3-12.9-0.9-26-0.7-38.6c0.1-8.5,1.1-17.2,1.1-25.9
					c0-20.1-0.9-41.2-2.4-64.5c-0.4-6.3-0.9-12.6-1.3-18.8c-1.1-15-2.1-30.5-2.6-45.7c-0.6-21.2-0.7-42.9,1.2-64.4
					c0.9-9.7,2.6-19.5,3.7-29.1c1.3-11.6,2.6-23.6,3.5-35.4c0.9-12.1,0.9-24.4,1.3-36.3c0.3-9.2,1-18.8,1.6-28.2
					c0.5-8.2,1.2-16.6,1.8-24.6c1.1-13.1,2.7-26.6,3.1-39.9c0,0,0,0,0,0h-2.6c-0.3,13.2-0.5,26.7-1.5,39.8
					c-0.7,8.1-1.3,16.4-1.8,24.7c-0.6,9.4-1.1,19-1.4,28.2c-0.4,11.9-0.9,24.2-1.8,36.3c-0.9,11.8-2.4,23.8-3.7,35.4
					c-1.1,9.5-1.7,19.4-2.6,29.1c-1.9,21.5-3.8,43.3-3.2,64.6c0.5,15.3,1.9,30.8,3,45.8c0.4,6.1,0.9,12.5,1.3,18.7
					c1.5,23.3,3,44.3,3,64.4c0,8.6-0.2,17.4-0.3,25.8c-0.2,12.7-1,25.8-0.8,38.7c0.4,18.6,1.8,37.5,3.1,55.7
					c0.2,2.9,0.4,5.8,0.6,8.8c1.4,19.5,2.9,39.2,4,58.4l0.4,6.8C68.7,611.3,69.5,632.9,68.9,654.2C68.9,654.2,68.9,654.2,68.9,654.2
					z"/>
				<path class="st1" d="M578.7,654.2h1.2c0-6.4,0-13-0.1-19.3c-0.1-14.8-0.4-30.1,0.4-45.1c0.3-6.2,0.9-12.4,1.4-18.5
					c1.3-15.1,3.5-30.7,2.2-46.1c-1.2-14.8-5.5-29.8-8.9-44.4c-1.6-6.6-3.2-13.5-4.6-20.2c-4.7-22.7-6.3-45.3-7.8-64.4
					c-0.5-7.2-1-14.4-1.5-21.5c-0.9-14.1-2.7-28.7-4.1-43c-0.9-8.8-2-17.7-3.1-26.3c-1.6-12.7-2-25.8-3-39.2
					c-2.1-25.9-2.3-48.7,0.5-67.6c2.2-14.8,5.5-28.8,9.2-42.3c1.7-6.1,3.5-12.5,5-18.9c4.9-19.6,9.2-41,11.5-63.5
					c2.1-20.2,2.7-41.3,2.8-64.5c0,0,0,0,0,0h-1.2c-0.1,23.2-1.3,44.3-3.4,64.4c-2.3,22.5-5.9,43.8-10.8,63.3
					c-1.6,6.3-3.3,12.7-5,18.8c-3.8,13.6-7.7,27.6-9.9,42.5c-2.8,19-2.9,41.8-0.9,67.8c1.1,13.4,2.6,26.5,4.1,39.3
					c1.1,8.6,2.8,17.6,3.6,26.3c1.5,14.3,2,28.9,2.9,43c0.5,7,0.9,14.3,1.5,21.5c1.4,19.2,4.3,41.8,9,64.6c1.4,6.7,3,13.6,4.6,20.2
					c3.5,14.5,6.2,29.5,7.4,44.2c1.2,15.3-0.1,30.8-1.3,45.9c-0.5,6.1-1,12.3-1.4,18.5c-0.9,15.1-0.7,30.4-0.6,45.2
					C578.6,641.2,578.7,647.8,578.7,654.2C578.7,654.2,578.7,654.2,578.7,654.2z"/>
				<path class="st1" d="M183.7,241.2c-0.4-0.3-0.7-0.4-1.1-0.4c-2.6,0-3.6,6.3-5.6,24.2c-1.7,14.6-4.4,39.1-3,60.6
					c1.1,17.6,4.1,33.2,7.2,45.7c0.6,2.2,1.1,4.4,1.6,6.4c0.7,2.9,1.3,5.5,1.8,7.7c1.7,7.5,1.9,8.5,2.9,8.5c0.8,0,1.1-0.9,1.3-4.7
					c0.3-4.5,0.4-13.2,0.6-23.3c0.2-11.3,1.2-24,1.6-35.9c0.2-6,0.5-11.7,0.8-17.2c0.7-15.2,1.2-28.4,0.3-40.1
					C190.7,256.8,186.6,243.4,183.7,241.2z M189.4,312.6c-0.3,5.5-0.5,11.2-0.8,17.2c-0.4,11.9-0.3,24.6-0.5,35.9
					c-0.2,10-0.3,18.7-0.6,23.2c-0.1,1-0.1,1.7-0.2,2.3c-0.4-1.4-0.9-3.8-1.5-6.2c-0.5-2.3-1.1-4.9-1.8-7.8c-0.5-2-1-4.1-1.6-6.4
					c-3.1-12.4-7-27.9-8.1-45.4c-1.3-21.4,2.4-45.8,4.1-60.4c1.2-10.3,2.7-23.1,4.3-23.1c0.1,0,0.2,0.1,0.3,0.1
					c2.3,1.8,5.2,14.5,6.5,30.5C190.7,284.3,190.1,297.4,189.4,312.6z"/>
				<path class="st1" d="M198,231c-1.8-1.8-3.6-3.6-5.2-8.2c-2.2-6.4-3.6-18.2-5.1-27.8c-1.1-7.1-2.1-13.2-3-15.8
					c-0.3-1-0.8-2-1.6-2c-1.6,0-2.3,3.2-4.6,16.6c-0.5,3-1.1,6.4-1.7,9.8c-1.3,6.8-2.8,14.2-4.3,21.9c-2.4,11.6-6.1,23.7-8.2,36.4
					c-4.3,25.8-5.5,46.6-4.5,63.8c0.8,13.2,3.9,25,6.9,39.9c1.5,7.2,3.1,15.4,4.7,24.6c2.3,12.8,3.4,27.7,5.6,42.2
					c2.5,16.8,5.8,32.8,8,43.4c3.2,15.9,5.4,18.1,7.1,18.1c1.4,0,2.6-1.6,3.8-5.3c2.9-9.2,4.8-28.8,5.9-55.4
					c0.8-19.5,1.9-43.6,2.2-69c0.1-11.8-0.2-24,0-35.7c0.1-6.8,0.3-13.5,0.4-19.9c0.6-28.2,1.1-52.6-0.5-64.4
					C202.6,235.7,200.4,233.4,198,231z M202.5,308.6c-0.1,6.5-0.3,13.1-0.4,19.9c-0.2,11.8,0.3,24,0.1,35.8
					c-0.3,25.5-1.6,49.5-2.4,69c-1.1,26.4-3,46-6,55.1c-1.3,4.1-2.3,4.4-2.5,4.4c-0.7,0-2.8-1.7-5.9-17c-2.1-10.6-4.6-26.5-7.1-43.3
					c-2.2-14.5-3.4-29.5-5.7-42.2c-1.6-9.2-3.3-17.4-4.8-24.6c-3-14.9-5.7-26.6-6.5-39.7c-1-17.1-0.2-37.9,4.1-63.5
					c2.1-12.7,4.4-24.7,6.8-36.3c1.6-7.8,3.1-15.1,4.3-22c0.6-3.5,1.2-6.8,1.7-9.8c1.2-7,2.4-14.2,3.3-15.4c0.1,0.2,0.2,0.4,0.4,1
					c0.9,2.6,1.8,8.6,2.9,15.6c1.6,10.1,3.9,21.5,6.2,28c1.7,4.9,3.7,6.9,5.5,8.6c2.3,2.3,4.3,4.4,5.4,12.4
					C203.8,256.1,203.1,280.4,202.5,308.6z"/>
				<path class="st1" d="M157.2,654.1C157.1,654.2,157.1,654.2,157.2,654.1l1.4,0c0.2-2.6,0.3-5.1,0.5-7.7
					c1.2-18.6,2.2-37.9,0.5-56.8c-2-21.7-7.7-43.5-13.5-64.6l-0.1-0.3c-5.8-21-11-42.7-12.5-64c-0.7-10.2-0.3-20.7,0-30.7
					c0.3-11.1,0.6-22.5-0.4-33.8c-1.2-12.9-5.4-26-8.2-38.7c-1.9-8.5-2.6-17.2-4-25.8c-3.4-21-4.3-42.6-1.7-64.3
					c1.5-12.1,3.2-24.3,5.5-36.2c1.8-9.3,4.9-18.8,6.3-28.3c1.4-9.5,1.7-19.2,2.6-28.5c1.2-11.8,2.3-24,4.5-36
					c1.9-10.6,5.1-21.4,7.7-31.8c2.6-10.7,5-21.8,7-32.7c3.2-18.3,4.2-36.8,5.3-54.8c0.2-3.3,0.4-6.5,0.6-9.8c0,0,0,0,0,0h-1.4
					c-0.2,3.2-0.4,6.5-0.6,9.7c-1.1,17.9-1.2,36.4-4.4,54.6c-1.9,10.9-4.7,21.9-7.3,32.6c-2.6,10.4-6.3,21.2-8.2,31.9
					c-2.2,12-3.2,24.3-4.4,36.1c-1,9.3-2.3,19-3.8,28.4c-1.4,9.4-3.2,19-5,28.2c-2.4,11.9-4.9,24.2-6.4,36.3
					c-2.6,21.8-1.2,43.5,2.2,64.7c1.4,8.6,3.5,17.4,5.4,25.9c2.8,12.6,5.6,25.7,6.7,38.5c1,11.2,0.9,22.6,0.6,33.6
					c-0.3,10.1-1,20.6-0.2,30.9c1.5,21.4,7.5,43.2,13.2,64.3l0.1,0.3c5.8,21,12.5,42.8,14.5,64.4c1.7,18.9-0.6,38.1-1.8,56.6
					C157.5,649,157.3,651.6,157.2,654.1z"/>
				<path class="st1" d="M561.7,654.2c0-8.7-0.1-17.4-0.3-26c-0.3-12.6-0.3-25.7,0.1-38.5c0.2-5.7,0.5-11.4,0.8-16.9
					c0.9-15.5,0.7-31.5-1.5-46.6c-1.8-12.6-5.9-24.6-10-37.3c-2.5-7.7-5.1-15.7-7.3-24c-5.7-22-7.9-46.5-9.6-67.6
					c-0.7-9-1.1-18-1.7-26.6c-0.9-13.4-1.7-26-2.9-38.9c-0.9-9.4-1.8-18.9-2.8-28.1c-1.4-11.9-2.9-24.2-3.9-36.4
					c-2.1-25.2-3-46-0.7-67.6c2.5-24,9.4-51.7,16.2-74c2.8-9.2,4.5-17.2,7.4-24.9c3.7-10,7.3-19.5,9.8-30
					c3.8-16.2,6.3-36.3,6.4-61.4v0h-1c0,25-2.8,45-6.6,61.1c-2.5,10.4-6.2,19.8-9.9,29.8c-2.8,7.7-5,15.7-7.8,24.9
					c-6.8,22.4-12.2,50.2-14.7,74.3c-2.3,21.7-2.4,42.6-0.3,67.8c1,12.1,1.8,24.5,3.1,36.4c1.1,9.2,2.4,18.7,3.3,28.1
					c1.2,12.9,2.5,25.5,3.4,38.9c0.6,8.7,0.7,17.6,1.5,26.7c1.7,21.2,5,45.8,10.7,67.8c2.2,8.3,4.8,16.3,7.3,24.1
					c4.1,12.7,7.6,24.6,9.5,37.1c2.2,15,1.3,30.9,0.4,46.3c-0.3,5.6-0.6,11.3-0.8,17c-0.4,12.9-0.7,25.9-0.4,38.6
					c0.2,8.5,1.5,17.3,1.5,25.9v0H561.7z"/>
				<path class="st1" d="M182.7,654.2h1.7c0.1-18.4,0.3-38.5,0-63.4c-0.3-19.4-1.3-39.6-6.5-53.9c-1.8-5.1-4.3-9.4-6.8-14
					c-4.5-8-8.5-17.1-11.3-32.1c-2.5-13.5-3.9-31.6-4.7-50.7c-0.6-13.8-0.8-28.2-2.2-40.6c-1.9-17.9-5.2-32.3-8.3-45.1
					c-2-8.2-3.8-15.9-5.2-23.7c-3.4-20.2-2.8-41.5,1.1-63.2c2-11.1,3.7-22.4,6.7-33.4c2.7-10.2,6.5-20.7,8.5-31.1
					c2.1-10.9,3.7-21.9,4.9-32.6c1.2-10.5,2.5-21.3,4.6-31.9c2-10.4,4.8-21,7.5-31.2c2.9-10.9,5.4-22.2,7.4-33.2
					c3.9-21.7,4.1-42.9,4.2-64.6c0,0,0,0,0,0h-1.7c-0.1,21.6,0.4,42.8-3.5,64.4c-2,11-5.8,22.3-8.6,33.1
					c-2.7,10.3-5.4,20.9-7.4,31.3c-2,10.7-3.2,21.5-4.4,32c-1.2,10.7-2.8,21.7-4.9,32.5c-2,10.3-5.2,20.8-7.9,31
					c-2.9,11-5.1,22.3-7.1,33.5c-4,21.8-4.2,43.2-0.8,63.6c1.3,7.9,3.2,15.6,5.2,23.8c3.1,12.7,6.8,27.1,8.7,44.9
					c1.3,12.4,1.9,26.7,2.5,40.5c0.8,19.2,0.9,37.3,3.4,50.9c2.8,15.3,8.5,24.4,13,32.5c2.5,4.5,5,8.8,6.8,13.8
					c5.1,14.2,4.5,34.2,4.7,53.5C182.7,615.7,182.8,635.8,182.7,654.2C182.7,654.2,182.7,654.2,182.7,654.2z"/>
				<path class="st1" d="M597.4,589.8c1.1-7.6,2.6-15.3,4.1-22.8c2.8-13.7,5.2-27.8,5.2-41.8c-0.1-15.1-3.5-30.3-6.8-45.1
					c-1.4-6.4-2.9-13-4.1-19.5c-3.9-21.3-4.7-43.1-5.7-64.1l0-0.3c-1-20.7-1.9-42.7-3.1-64.5c-1.3-23.9-2.6-44-4.6-64.5
					c-0.3-3.3-0.7-6.7-1-10c-1.8-17.8-3.8-36.3-2.7-54.4c0.9-13.7,2.9-27.6,5.4-41.1c1.4-7.6,2.9-15.6,4-23.3
					c3.2-21.7,3.8-43.5,4.6-64.5c0.7-20,1.8-42.6,1.9-64.5v0h-0.7c0,21.9-1.6,44.5-2.3,64.5c-0.8,21.1-1.8,42.8-4.9,64.4
					c-1.1,7.8-2.6,15.7-4,23.3c-2.5,13.5-5.1,27.5-5.9,41.2c-1.1,18.2,1.8,36.7,3.6,54.6c0.3,3.3,0.7,6.7,1,10
					c1.9,20.4,2.4,40.5,3.7,64.5c1.2,21.8,2.8,43.8,3.7,64.5l0,0.3c1,21.1,1.2,42.8,5.1,64.2c1.2,6.5,2.7,13.1,4.1,19.5
					c3.3,14.7,6.7,29.9,6.8,44.8c0.1,13.8-1.6,27.9-4.3,41.5c-1.5,7.5-3.1,15.2-4.1,22.9c-2.5,18-2.6,36.2-2.5,53.8
					c0,3.6,0,7.2,0,10.7h0.7c0-3.6,0-7.2,0-10.7C594.5,625.9,594.9,607.7,597.4,589.8z"/>
				<path class="st1" d="M662.5,654.2c-0.4-7.2,0.3-14.5-0.2-21.6c-1.1-14-3.2-28.6-2.9-42.8c0.2-9.4,0.9-19,1.6-28.2
					c0.9-11.9,1.9-24.2,1.7-36.3c-0.3-13.6-2.3-27.3-4.1-40.6c-1.1-7.8-2.2-15.9-2.9-23.9c-1.9-19.8-1.9-40.8-0.2-64.4
					c0.5-7.3,1.2-14.7,1.9-21.9c1.3-14,3.7-28.4,3.9-42.6c0.3-18.2-2.5-36.6-4-54.4c-0.3-3.4-0.6-6.7-0.9-10.1
					c-2.2-25.4-2.4-45.8-2.4-64.4c0-19.1,0.7-39.6,2.9-64.4c0.7-7.7,1.4-15.6,2.2-23.2c1.3-13.5,3.1-27.5,4-41.3
					c1.5-23.1,0.6-44.2-0.5-64.5h-2.1c0,0,0,0,0,0c1.1,20.3,3.1,41.3,1.5,64.4c-0.9,13.7-3.3,27.7-4.6,41.2
					c-0.7,7.6-1.5,15.5-2.2,23.2c-2.2,24.9-2.1,45.4-2.1,64.5c0,18.6,0,39.1,2.2,64.5c0.3,3.4,0.6,6.7,0.9,10.1
					c1.6,17.8,3.3,36.2,3,54.3c-0.2,14.2-1.5,28.6-2.8,42.5c-0.7,7.2-1.4,14.6-1.9,21.9c-1.7,23.6-0.8,44.7,1.1,64.6
					c0.8,8,1.9,16.1,2.9,23.9c1.8,13.3,2.4,27,2.7,40.5c0.3,12-0.4,24.3-1.3,36.2c-0.7,9.3-1.4,18.9-1.6,28.3
					c-0.3,14.3,0.8,28.9,1.8,43c0.5,7.1-0.2,14.3,0.2,21.5L662.5,654.2C662.5,654.2,662.5,654.2,662.5,654.2z"/>
				<path class="st1" d="M570.3,654.2h0.7c0.1-7.9,0-15.8,0-23.6c-0.1-13.4,0.5-27.3,1.1-40.9c0.2-5.1,0.5-10.3,0.8-15.3
					c1-16.1,2-32.8,0-49.3c-1.8-14.6-6-29.4-10.2-43.7c-2-6.8-4-13.9-5.8-20.9c-5-20.1-8.5-41.2-9.9-64.4
					c-0.6-9.2-0.6-18.6-0.8-27.7c-0.3-12.1-1.2-24.5-2.3-36.8c-1.3-15.6-3.3-31.4-5.7-46.7c-0.9-5.8-1.9-11.9-2.7-17.8
					c-3-20.3-5.4-42.3-1.4-68.6c3.6-23.9,12.7-52.1,19.3-72.6l1.5-4.7c7.3-22.8,10.9-35,13.2-51.7c2.3-15.8,2.7-36.7,2.9-60.3
					c0,0,0,0,0,0h-0.7c-0.2,23.5-1.2,44.3-3.5,60.1c-2.4,16.6-6.3,28.7-13.6,51.5l-1.5,4.7c-6.6,20.6-15.3,48.8-18.9,72.8
					c-4,26.4-2.2,48.6,0.8,69c0.9,5.9,1.8,12,2.7,17.8c2.4,15.3,4.8,31.1,6.1,46.6c1,12.2,2.1,24.7,2.4,36.7
					c0.2,9.1-0.1,18.5,0.4,27.8c1.4,23.3,4.5,44.4,9.5,64.6c1.7,7,3.8,14.1,5.8,20.9c4.1,14.3,8.9,29,10.7,43.5
					c2,16.3,0.3,33-0.6,49.1c-0.3,5-0.6,10.2-0.8,15.3c-0.6,13.7,0.4,27.5,0.5,41C570.3,638.4,570.4,646.3,570.3,654.2
					C570.3,654.2,570.3,654.2,570.3,654.2z"/>
				<path class="st1" d="M639.9,596.5c-1.6,18.9-3.2,38.4-4.1,57.6c0,0,0,0,0,0h1.3c0.9-19.2,2.5-38.7,4.1-57.5l0.6-6.9
					c1.7-19.9,3.7-42.4,2-64.6c-0.9-11.7-2.5-23.6-4.4-35.2c-1.6-9.6-3.5-19.6-4.5-29.3c-2.3-21.9-0.8-43.8,0.1-64.4
					c0.2-5,0.4-9.9,0.7-14.9c0.8-16.3,0.5-33.1,0.7-49.6c0.1-20.3,0.2-41.4-1.6-64.5c-0.5-5.7-1-11.5-1.5-17.1
					c-1.4-15.5-2.8-31.6-3.1-47.3c-0.3-18.8,1.1-37.9,2.3-56.4c0.2-2.7,0.4-5.3,0.5-8c1.5-23.5,2.8-44.6,3.4-64.5
					c0.2-7.7,0.4-15.5,0.5-23c0.3-13.6-0.5-27.7,0.1-41.5c0,0,0,0,0,0h-1.3c-0.7,13.8-1.1,27.9-1.4,41.5c-0.2,7.5-0.3,15.3-0.5,23
					c-0.6,19.9-1.2,41-2.7,64.5c-0.2,2.7-0.4,5.3-0.5,8c-1.2,18.5-2.1,37.7-1.7,56.5c0.3,15.8,1.7,31.9,3.1,47.4
					c0.5,5.6,1,11.4,1.5,17.1c1.8,23.1,2.3,44.1,2.2,64.4c-0.1,16.5-0.3,33.3-1,49.5c-0.2,5-0.5,9.9-0.7,14.9
					c-0.9,20.6-2.3,42.6,0,64.6c1,9.8,2.4,19.8,3.9,29.4c1.9,11.5,3.9,23.4,4.8,35.1c1.7,22.1-0.5,44.6-2.1,64.4L639.9,596.5z"/>
				<path class="st1" d="M651.1,654.2l0-0.8c-0.3-20.9-0.4-42.4,0.4-63.7c0.2-6.5,0.6-13.2,0.9-19.7c0.8-14.7,1.8-29.9,1.3-44.9
					c-0.4-14.9-3.3-30-5-44.6c-0.7-6.5-1.5-13.3-2.1-19.9c-2.3-24.5-1.8-45-0.5-64.4c0.6-8.5,1.6-17.2,2.5-25.6
					c1.4-12.7,2.6-25.9,2.8-38.9c0.2-17.4-2.6-35.1-4.7-52.2c-0.5-4.1-1-8.2-1.5-12.4c-2.7-23.4-3.4-44.5-3.6-64.4
					c-0.2-19.9-0.3-41,1.8-64.4c0.7-7.5,1.5-15.2,2.3-22.6c1.5-13.7,4.4-27.9,5.2-41.9c1.3-21.7,0.5-43.5,0.2-64.5h-0.9c0,0,0,0,0,0
					c0.3,21,0.6,42.8-0.7,64.4c-0.8,13.9-2.7,28.1-4.1,41.8c-0.8,7.4-1.6,15.1-2.3,22.6c-2.2,23.5-2.8,44.6-2.5,64.5
					c0.2,20,0.4,41.1,3.1,64.5c0.5,4.1,1,8.3,1.5,12.4c2.1,17.1,4.8,34.7,4.6,52c-0.1,12.9-1.4,26-2.8,38.8
					c-0.9,8.4-1.9,17.1-2.5,25.7c-1.3,19.5-1.7,40,0.7,64.6c0.6,6.6,1.4,13.4,2.1,19.9c1.6,14.6,3.7,29.7,4.2,44.5
					c0.4,14.9,0.5,30.1-0.3,44.8c-0.3,6.4-0.7,13.1-0.9,19.7c-0.8,21.2-0.4,42.8-0.1,63.7l0,0.8L651.1,654.2
					C651.1,654.2,651.1,654.2,651.1,654.2z"/>
				<path class="st1" d="M632.3,589.8c0.2-2.1,0.4-4.1,0.7-6.2c2-19.1,4-38.9,3-58.4c-0.8-14.3-3.3-28.8-5.7-42.9
					c-1.2-7.1-2.5-14.4-3.5-21.7c-2.9-20.4-5.1-41.4-4.8-64.4c0.1-10.5,1.6-21.2,2-31.5c0.5-10.8,1.2-22,1.3-33
					c0.2-22.9-1.8-45.5-3.2-64.5c-0.2-2.9-0.4-5.7-0.7-8.6c-1.4-18.3-2.4-37.2-2-55.8c0.3-12.7,0.3-25.6,1.4-38.1
					c0.8-8.6,1.7-17.6,2.2-26.4c0.9-15.3,1.9-30.9,1.9-45.9c0-6.1,0-12.4,0.1-18.6c0.2-20.4,0.7-41.5,2.2-64.4c0,0,0,0,0,0h-2.1
					c-1.5,23-1.2,44.1-1.4,64.5c-0.1,6.2-0.1,12.5-0.1,18.6c0,15-1.2,30.6-2.1,45.9c-0.5,8.8-1.1,17.7-1.9,26.3
					c-1.1,12.5-1.2,25.5-1.5,38.2c-0.4,18.7,0.3,37.6,1.7,56c0.2,2.9,0.4,5.7,0.7,8.6c1.4,19,3.9,41.5,3.7,64.4
					c-0.1,11-0.6,22.2-1,33c-0.4,10.3-1.7,21-1.9,31.5c-0.3,23,0.7,44.1,3.7,64.6c1,7.2,2.3,14.6,3.6,21.7c2.4,14,5.8,28.5,6.6,42.7
					c1.1,19.4-2.1,39.1-4.1,58.1c-0.2,2.1-0.4,4.2-0.7,6.2c-2.3,21.9-4,43.7-5.3,64.5c0,0,0,0,0,0h2.1
					C628.2,633.4,630,611.7,632.3,589.8z"/>
				<path class="st1" d="M27.4,9.4c1.2,19.3,2.6,42,1.6,64.4c-0.5,12.6-2.9,25.4-4.1,37.8c-0.8,8.7-0.5,17.8-1.1,26.7
					c-1,14.5-1.5,29.2-1.8,43.4c-0.2,6.9-0.4,14.1-0.6,21.1c-0.1,4.1-0.3,8.2-0.5,12.3c-0.7,17.1-1.7,34.8-0.6,52.2
					c0.6,9.8,1.8,19.7,2.9,29.2c1.4,11.5,2.7,23.5,3.1,35.2c0.5,15.3-1.3,30.8-2.5,45.8c-0.5,6.1-0.9,12.4-1.3,18.6
					c-1.2,21,0.1,42.7,1.4,64.6c0.4,7,1,14,1.5,20.9c1.1,14.3,1.1,29.1,1.1,43.6c0,11.5,0,23.2-0.7,34.4c-0.6,9.8-1.9,20-2,30
					c-0.3,17.9,1.7,36.2,2.9,53.8c0.2,3.6,0.5,7.1,0.7,10.7h0.8c0,0,0,0,0,0c-0.2-3.6-0.5-7.1-0.7-10.7c-1.2-17.6-2.1-35.8-1.8-53.7
					c0.1-10,0.4-20.1,1-30c0.7-11.3,1.1-23,1.1-34.5c0-14.6-1.1-29.4-2.2-43.7c-0.5-6.8-1.1-13.9-1.5-20.9
					c-1.3-21.8-1.1-43.5,0.1-64.4c0.4-6.2,0.8-12.5,1.3-18.6c1.1-15.1,2.7-30.6,2.2-46c-0.4-11.8-1.9-23.7-3.2-35.3
					c-1.1-9.6-2-19.5-2.6-29.2c-1-17.4-0.5-35,0.2-52.1c0.2-4.1,0.3-8.2,0.5-12.3c0.3-7,0.4-14.2,0.6-21.1
					c0.4-14.2,0.2-28.9,1.2-43.4c0.6-8.9,1.2-17.9,2-26.6c1.2-12.4,3.5-25.2,4-37.8c1-22.5-0.9-45.2-2.2-64.5L27.4,9.4
					C27.4,9.4,27.4,9.4,27.4,9.4z"/>
				<path class="st1" d="M620.3,589.8c0.6-3.4,1.1-6.7,1.7-10.1c3.1-17.8,5.4-36.3,4.3-54.5c-0.8-13.7-2.8-27.6-5.9-41.1
					c-1.7-7.7-3.6-15.6-4.9-23.5c-3.8-22.4-4.6-45-4.5-64.4c0.1-11.5,0.8-23.2,1-34.6c0.2-9.8-0.1-19.9,0.1-29.9
					c0.3-24.7-0.6-45.2-1.7-64.5c-0.3-6-0.7-12.1-1.1-17.9c-1-15.2-2-31-1.8-46.5c0.2-12,1.2-24.1,2.2-35.9c0.8-9.4,2.2-19,2.6-28.6
					c0.7-16.3,0-32.8-0.5-48.8c-0.1-5.1-0.3-10.5-0.4-15.7c-0.5-23.7-0.3-44.8,0.9-64.4c0,0,0,0,0,0h-0.6
					c-1.2,19.7-2.4,40.8-1.9,64.5c0.1,5.2,0.3,10.6,0.4,15.7c0.5,16,1.8,32.5,1.1,48.7c-0.4,9.5-0.9,19.2-1.7,28.5
					c-1,11.8-2.1,24-2.3,36c-0.3,15.5-0.5,31.3,0.5,46.6c0.4,5.9,0.8,11.9,1.1,17.9c1,19.3,1.7,39.8,1.5,64.4
					c-0.1,10,0.4,20.1,0.2,29.9c-0.2,11.3-0.7,23-0.8,34.6c-0.2,19.4,0.1,42.1,4,64.6c1.3,7.9,3.1,15.8,4.9,23.5
					c3,13.4,5.5,27.3,6.3,40.9c1,18-1.1,36.4-4.2,54.2c-0.6,3.4-1.2,6.8-1.7,10.1c-3.5,21.6-6.3,43.3-7.6,64.5c0,0,0,0,0,0h0.6
					C613.7,633,616.8,611.3,620.3,589.8z"/>
				<path class="st1" d="M605.9,589.6c-2.3,16.3-2.6,32.9-3.1,48.9c-0.2,5.1-0.3,10.4-0.5,15.6c0,0,0,0,0,0h0.7
					c0.2-5.2,0.4-10.5,0.5-15.6c0.5-16,1.3-32.5,3.5-48.8c1-7.2,2.4-14.5,3.7-21.6c2.6-14.1,5.8-28.6,5.7-43
					c0-14.6-3.7-29.5-6.5-43.9c-1.3-6.8-2.7-13.8-3.8-20.7c-3.2-20.7-2.9-41.8-3.3-62.2l0-2.2c-0.1-6.2-0.3-12.4-0.4-18.6
					c-0.3-15-1.1-30.6-1.3-45.9c0-2.5-0.1-5-0.1-7.5c-0.2-18.7-0.1-38-1.9-57.1c-0.6-7-1.5-14-2.3-20.8c-1.7-14.3-3.7-29.1-3.7-43.6
					c0.1-13.1,1.6-26.4,3.1-39.3c1-8.2,2-16.7,2.5-25.1c1-13.7,0.1-27.7,0-41.1c0-7.7,0-15.6,0.1-23.4c0.3-12.6,1.6-25.5,2.3-38
					c0.5-8.7,1.1-17.7,1.5-26.5c0,0,0,0,0,0h-0.7c-0.4,8.8-1.7,17.8-2.2,26.5c-0.8,12.5-1.4,25.3-1.6,38c-0.2,7.8-0.2,15.7-0.1,23.4
					c0,13.5,0.9,27.4-0.1,41c-0.6,8.3-1.6,16.8-2.5,25c-1.5,12.9-4,26.3-4.1,39.5c-0.1,14.6,1.6,29.4,3.3,43.7
					c0.8,6.8,1.6,13.9,2.3,20.8c1.7,19,2.8,38.3,3,57c0,2.5,0.1,5,0.1,7.5c0.2,15.3,0.5,30.8,0.9,45.9c0.1,6.2,0.3,12.4,0.4,18.6
					l0,2.2c0.4,20.4-0.2,41.6,2.9,62.4c1.1,6.9,2.4,14,3.8,20.8c2.8,14.3,5.9,29.1,5.9,43.6c0,14.2-1.9,28.7-4.5,42.7
					C608.3,575.1,606.9,582.4,605.9,589.6z"/>
				<path class="st1" d="M586.3,9.4c0.9,20.6,1.2,42.6-0.8,64.4c-1.9,20.3-6.3,40.9-10.4,60.8l-0.7,3.6c-4.7,22.9-7.7,43.5-9.3,64.6
					c-1.7,21.5-1.9,42.8-0.8,64.6c1.3,25.1,3.4,45.6,5.1,64.5c1.1,12.9,1.7,25.9,3,38.6c0.9,8.5,2.8,17.3,3.6,25.9
					c0.3,3.4,0.6,6.8,1,10.2c1.7,17.8,3.2,36.2,6.4,54.4c1,5.9,2.2,11.9,3.4,17.7c3.1,15.3,5.3,31.1,5.6,46.7
					c0.2,13.6-1.6,27.4-3.5,40.7c-1.1,7.8-2.3,15.8-3,23.7c-1.8,19.7-0.6,39.6,0.3,59c0.1,1.9,0.2,3.7,0.2,5.6h0.9c0,0,0,0,0,0
					c-0.1-1.9-0.2-3.7-0.2-5.6c-0.9-19.3-1.9-39.2-0.1-58.8c0.7-7.9,1.8-15.9,2.9-23.6c1.9-13.4,3.9-27.3,3.6-40.9
					c-0.3-15.7-2.6-31.5-5.6-46.9c-1.2-5.8-2.4-11.8-3.4-17.7c-3.1-18.1-5.6-36.5-7.3-54.3c-0.3-3.4-0.6-6.8-1-10.2
					c-0.8-8.6-1.1-17.4-2-25.9c-1.3-12.6-3.1-25.7-4.3-38.5c-1.7-18.9-2-39.4-3.3-64.5c-1.1-21.7-2.3-42.9-0.6-64.4
					c1.7-21,6-41.6,10.7-64.4l0.7-3.6c4.1-20,7.6-40.6,9.5-60.9c2-21.9,1.1-43.9,0.2-64.5L586.3,9.4C586.3,9.4,586.3,9.4,586.3,9.4z
					"/>
				<path class="st1" d="M151,589.7c-0.9-20.7-6.6-41.7-12.7-62l-0.8-2.7c-6.9-22.9-13-43.5-14.3-64.3c-0.7-10.7-1-21.5-0.5-32
					c0.5-10.6,1.2-21.6,0.4-32.5c-1-14.3-4.6-28.9-7.7-42.9c-1.5-7.1-3.1-14.4-4.4-21.6c-4.1-22.9-4.8-44-2.8-64.3
					c1.3-13.2,4.4-26.7,6.9-39.7c1.6-8.1,3.2-16.5,4.6-24.7c1.3-8.5,2.4-17.1,3.4-25.4c1.5-12.8,2.6-26,5.4-39
					c1.8-8.5,4.9-17.1,7.2-25.5c3.5-12.8,6.9-26,8.7-39.1c1.7-12.7,1.6-25.6,1.5-38.1c-0.1-8.7-1.1-17.6-0.6-26.4c0,0,0,0,0,0h-0.1
					c-0.5,8.8-0.7,17.8-0.6,26.4c0.1,12.4,0.6,25.3-1,37.9c-1.7,13-5.8,26.1-9.2,38.9c-2.3,8.4-4.6,17-6.4,25.5
					c-2.8,13.1-5.1,26.3-6.7,39.1c-1,8.3-2,16.9-3.4,25.4c-1.3,8.2-2.9,16.6-4.5,24.6c-2.6,13.1-4,26.6-5.3,39.9
					c-2,20.5-1,41.6,3.1,64.7c1.3,7.2,2.9,14.6,4.4,21.7c3,14,5.9,28.5,6.9,42.7c0.7,10.8-0.4,21.7-0.9,32.3
					c-0.5,10.5-0.2,21.4,0.5,32.2c1.4,20.9,7.3,41.6,14.2,64.6l0.8,2.7c6.1,20.2,12,41.1,12.9,61.6c0.6,13.2-0.7,26.7-2.3,39.8
					c-1,8.1-2,16.4-2.5,24.6c0,0,0,0,0,0h0.1c0.5-8.2,1.5-16.5,2.5-24.5C149.1,616.6,151.5,603,151,589.7z"/>
				<path class="st1" d="M48.9,654.2c-0.3-11.1-0.4-22.4-1.2-33.3c-0.7-10.2-2.2-20.8-2.5-31.2c-0.4-12.1,0.3-24.3,0.5-36.2
					c0.1-9.3-0.8-18.9-0.9-28.3c-0.2-13.1,0-26.5-0.7-39.4c-0.4-8.2-0.9-16.7-1.2-25.1c-0.7-19.4-0.4-40.5,0.2-64.4
					c0.1-4.4,0.3-8.8,0.4-13.2c0.5-16.8,0.9-34.2,0.3-51.3c-0.4-11.4-1.8-23.1-2.7-34.3c-0.8-9.9-1.7-20.1-2.2-30.2
					c-1-21,0.4-42.3,0.9-62.9l0.1-4.7c0.5-20.1,0.8-40.8,2-61.3c0.9-15.1,1.7-30.4,2.9-45.2c0.5-6.4,1-12.9,1.5-19.3
					c1.9-24,3-44.2,2.5-64.5h-1.4c0,0,0,0,0,0c0.5,20.3,0.2,40.4-1.6,64.4c-0.5,6.4-1,12.9-1.5,19.3c-1.2,14.8-3.5,30.1-4.4,45.2
					c-1.2,20.4-0.8,41.2-1.3,61.3l-0.1,4.7c-0.5,20.6-1.8,42-0.8,63c0.5,10.1,2.2,20.3,3,30.2c0.9,11.2,1.6,22.9,2.1,34.3
					c0.6,17.1-0.1,34.4-0.6,51.2c-0.1,4.4-0.3,8.8-0.4,13.2c-0.6,24-0.7,45.1,0,64.5c0.3,8.4,0.8,16.9,1.2,25.1
					c0.7,12.9,1.3,26.3,1.5,39.4c0.1,9.4,0,19-0.2,28.2c-0.2,11.9-1,24.2-0.6,36.2c0.3,10.4,0.8,21,1.6,31.2
					c0.8,10.9,2,22.2,2.3,33.2L48.9,654.2C48.9,654.2,48.9,654.2,48.9,654.2z"/>
				<path class="st1" d="M58.3,617.5c-0.5-9.1-0.1-18.5-0.3-27.8c-0.2-8.5-0.2-17.1-0.2-25.5c0-12.8-0.1-26-0.9-39
					c-0.7-10.3-2.1-20.8-3.3-30.9c-1.3-11-3.4-22.4-4-33.6c-1-19.1,1.2-38.6,2.2-57.4c0.1-2.3,0.2-4.7,0.4-7
					c1-20.7,0.8-42.8-0.1-64.5c-0.6-12.2-0.7-24.6-1.8-36.6c-0.8-9.1-3-18.6-3.6-27.8c-1.3-20.4-0.3-41.5,0.6-64.4
					c0.8-20.5,1.7-41.4,3.4-61.6l0.2-2.8c0.5-6.2,1-12.3,1.5-18.5c1.2-15.1,3.4-30.7,4.7-46l0.3-3.3c1.7-20.1,2.7-40.8,2.7-61.2
					h-1.7c0,0,0,0,0,0c0.1,20.4-1.6,41.1-3.4,61.1l-0.3,3.3c-1.3,15.3-2.7,30.9-3.9,46c-0.5,6.2-1,12.3-1.5,18.5l-0.2,2.8
					c-1.7,20.2-2.6,41.1-3.4,61.7c-0.9,22.9-0.3,44.1,1,64.5c0.6,9.3,1.5,18.7,2.3,27.9c1.1,12,1.4,24.4,1.9,36.6
					c1,21.7,0.6,43.8-0.4,64.4c-0.1,2.3-0.2,4.7-0.4,7c-1,18.9-2.7,38.4-1.7,57.6c0.6,11.2,2,22.6,3.3,33.7
					c1.2,10.1,2.4,20.5,3.1,30.8c0.8,13,0.9,26.2,0.9,39c0,8.4,0,17,0.2,25.5c0.2,9.3,1.5,18.7,2,27.8c0.7,12,0.5,24.4,0.5,36.7h1.7
					v0C59.8,641.9,58.9,629.5,58.3,617.5z"/>
				<path class="st1" d="M553.7,654.2c0-9.4,0.8-19,0.8-28.4c-0.1-12.1-1.1-24.5-1.1-37.2c0-1.9,0-3.9,0-5.8
					c0.1-20.6-0.1-41.9-3.6-57.7c-2.1-9.4-4.4-16.8-7.9-24.6c-2.8-6.3-5.8-12.8-8.1-20.6c-4.6-15.6-7.4-36.9-9.4-57.4
					c-0.2-2-0.4-3.9-0.6-5.9c-2-20.5-4-41.1-7.3-68.8l-0.9-7.3c-2.7-22.4-4.9-47.7-6.4-70c-1.7-25.4-1.6-46.9,0.9-71.9
					c1.8-18.1,5.3-52.2,14.3-77.2c3.8-10.7,8.7-19.2,13.1-27.3c4.3-8,8.4-15.6,11.1-24.3c5.3-16.9,5.3-37.4,5.2-60.4h-0.4v0
					c0,22.9-0.8,43.2-6.1,60c-2.7,8.5-7.1,16.1-11.4,24.1c-4.4,8.2-8.9,16.7-12.8,27.5c-9,25.1-12.8,59.4-14.6,77.5
					c-2.5,25.1-3.4,46.7-1.7,72.1c1.5,22.3,5.5,47.7,8.2,70.1l0.9,7.3c3.3,27.7,4.7,48.3,6.7,68.8c0.2,2,0.4,3.9,0.6,5.9
					c2,20.6,3.9,41.9,8.5,57.6c2.3,7.9,5.3,14.4,8.1,20.8c3.5,7.7,8,15,10.1,24.3c3.5,15.6,3.3,36.9,3.2,57.4c0,1.9,0,3.9,0,5.8
					c0,12.7,0.2,25.1,0.3,37.2c0.1,9.3,0.1,18.9,0.1,28.3L553.7,654.2L553.7,654.2z"/>
				<path class="st1" d="M240.2,654.2c-0.1-4.3-0.2-8.6-0.3-12.9c-0.4-16.9,0-34.3,1.2-51.5c1.1-16.4,3.2-33.2,5.8-49.3
					c0.8-4.9,1.6-10.1,2.4-15.1c3.5-23,6.2-44.1,7.5-64.5c1.2-18.3,1-36.9,1.4-54.9c0.1-3.2,0.1-6.4,0.2-9.6
					c0.6-25.7,1-45.6,2.1-64.5c0.4-6.6,0.8-13.3,1.2-19.7c0.9-14.7,2.1-29.8,2.4-44.8c0.6-25,0.3-45.5-2.7-64.6
					c-1.9-11.6-4.6-23.4-7.2-34.9c-2.2-9.7-5.6-19.8-7.3-29.6c-3.4-18.8-5.2-38.7-6-64.4c-0.4-12.3,0.6-24.9,0.5-37
					c-0.1-9-1-18.3-1.1-27.4h-0.8c0,0,0,0,0,0c0.2,9.1,0.2,18.4,0.3,27.4c0.1,12.1,0.2,24.7,0.6,37.1c0.8,25.8,2,45.7,5.4,64.6
					c1.8,9.9,4.8,20,7.1,29.7c2.6,11.4,5.1,23.2,6.9,34.8c3,19,3.7,39.5,3.1,64.4c-0.4,14.9-1.3,30.1-2.2,44.7
					c-0.4,6.5-0.8,13.2-1.2,19.7c-1,18.9-0.8,38.7-1.3,64.5c-0.1,3.2-0.1,6.4-0.2,9.6c-0.4,18-1.8,36.6-3,54.9
					c-1.3,20.4-3.7,41.5-7.2,64.4c-0.8,5-1.6,10.1-2.4,15.1c-2.6,16.2-4.1,33-5.2,49.5c-1.2,17.2-1.3,34.7-0.9,51.6
					c0.1,4.3,0.2,8.6,0.3,12.9L240.2,654.2C240.2,654.2,240.2,654.2,240.2,654.2z"/>
				<path class="st1" d="M237.4,539.6c0.6-4.8,1.3-9.5,1.9-14.3c3.1-23.9,6.4-45,8-64.5c1.8-22.9,2.7-44,2.6-64.5
					c0-7.5-0.2-15.1-0.3-22.5c-0.3-13.8-1.6-28-1-42c0.4-11.1,2.4-22.4,3.3-33.3c0.9-10.2,0.7-20.7,1.2-31.1c1-23.5,0.6-44.6-3-64.6
					c-1.9-10.8-4.4-21.7-7-32.3c-2.6-10.5-6.2-21.4-8.1-32.1c-3.9-21.9-4.6-43.8-5.1-64.4c-0.5-21-1-42.7-0.9-64.5c0,0,0,0,0,0h-0.6
					c-0.1,21.7,0.2,43.4,0.8,64.5c0.5,20.6,0.8,42.6,4.7,64.6c1.9,10.7,4.5,21.7,7.1,32.2c2.6,10.6,6,21.5,7.9,32.3
					c3.5,19.9,3.9,40.9,2.8,64.3c-0.5,10.4-1.5,20.9-2.3,31.1c-0.9,10.9-1.4,22.3-1.8,33.4c-0.5,14,0.4,28.3,0.7,42
					c0.2,7.4,0.3,15,0.3,22.5c0.1,20.5-0.8,41.5-2.6,64.4c-1.5,19.5-3.9,40.6-7,64.4c-0.6,4.7-1.3,9.5-1.9,14.2
					c-2.2,16.5-4.3,33.5-5.7,50.3c-1.9,22.4-2.8,45.2-2.9,64.5c0,0,0,0,0,0h0.6c0.1-19.3,0.5-42,2.4-64.4
					C232.9,573,235.2,556,237.4,539.6z"/>
				<path class="st1" d="M171.3,654.2c0.3-16.6,0-34.2,0-51.6c-0.1-17.5-0.4-34.5-4.4-50.7c-1.4-5.8-3.3-11.5-5.4-17.5
					c-3.7-10.9-8-23.3-10.8-40.5c-2.7-16.3-4.6-37.2-6.1-57.4c-1-13.3-2-25.8-3.2-37.1c-1.8-17.1-3.2-31.1-5.4-43.4
					c-1.6-8.7-3.1-17-4.2-25.4c-2.8-21.4-3-42.7-0.3-63.2c1.6-11.8,3.1-23.8,5.6-35.5c2-9.5,4-19.3,5.5-29
					c1.6-9.8,3.7-19.8,4.8-29.5c1.2-11.5,1.2-23.3,3.3-34.9c1.9-10.4,5.1-21,7.6-31.2c2.7-10.9,6.1-22.2,8.1-33.3
					c3.8-22,4.4-44.4,4.7-62.4c0-0.7,0-1.4,0-2.2H169c0,0.7,0,1.4,0,2.1c-0.3,17.9-0.2,40.3-3.9,62.2c-1.9,11.1-5.3,22.3-8.1,33.2
					c-2.6,10.2-4.3,20.8-6.2,31.3c-2.1,11.7-4,23.6-5.2,35c-1,9.7-2.3,19.6-3.9,29.4c-1.5,9.6-3.5,19.4-5.5,28.9
					c-2.5,11.7-4.7,23.7-6.2,35.6c-2.7,20.7-2.9,42.1-0.2,63.6c1.1,8.4,2.9,16.7,4.5,25.5c2.2,12.3,4.1,26.3,6,43.3
					c1.2,11.3,1.9,23.8,2.8,37.1c1.5,20.2,3.4,41.1,6.1,57.5c2.8,17.3,7.4,29.8,11.1,40.7c2,6,3.9,11.6,5.3,17.4
					c4,16,4.8,32.9,4.9,50.4c0.1,17.3-1.1,35-1.5,51.6H171.3z"/>
				<path class="st1" d="M430.1,654.2c-0.2-20.7,0.4-42.7,2.5-64.4c1.5-16.2,3.8-32.7,6.4-48.7c0.9-5.2,1.7-10.5,2.6-15.8
					c2.9-18.6,6-37.4,8.4-55.7l1.8-13.5c2.6-19.6,4.7-39.8,6.1-59.3c1.4-19,2.2-38.9,1.6-62.9c-0.6-22.6-2.1-46.1-3.4-66.1
					c-1.3-20.8-2.7-43-5.1-65c-2.5-23.1-6.7-45.6-9.6-64.5c-0.4-2.7-0.8-5.4-1.2-8.1c-2.9-18.5-6-37.6-7.7-56.4
					c-2-22.2-2.1-44.9-2.3-64.4h-0.8c0,0,0,0,0,0c0.2,19.5,0,42.3,2.1,64.5c1.7,18.8,4.7,37.9,7.5,56.4c0.4,2.7,0.8,5.4,1.2,8.1
					c2.9,18.9,6.2,41.3,8.6,64.4c2.4,22,4.7,44.2,6,65c1.3,20,1.9,43.5,2.6,66.1c0.6,23.9,1.1,43.9-0.3,62.8
					c-1.4,19.4-4.2,39.7-6.8,59.2l-1.8,13.5c-2.4,18.2-5.6,37.1-8.5,55.6c-0.8,5.3-1.7,10.6-2.6,15.8c-2.6,16-4.4,32.5-5.9,48.8
					c-2,21.8-2.4,43.8-2.2,64.5L430.1,654.2C430.1,654.2,430.1,654.2,430.1,654.2z"/>
				<path class="st1" d="M448.6,654.1c-1.2-18.9,0.3-39.4,2.4-64.4c1.9-21.8,3.5-43.4,7.3-64.4c1.7-9.5,3.7-19.1,5.6-28.4
					c2.4-11.8,4.9-24,6.9-36.1c3.2-19.1,6.4-39.9,8.2-63.6c1.6-21.3,1.8-40.9,2-61.8c0.2-22.9,0-46.1-1.3-67.2
					c-1.4-22-3.9-43.4-7.1-65.4c-1.2-8.4-2.6-16.8-4-25c-2.1-12.9-3.8-26.3-5.4-39.4c-1.5-11.8-2.8-23.8-3.8-35.4
					c-0.9-9.5-2.1-19.4-3.2-29.1c-0.8-7.2-1.8-14.5-2.7-21.6c-1.8-14-3.9-28.6-4.8-42.8h-0.3c0,0,0,0,0,0c0.9,14.3,1.5,28.9,3.3,43
					c0.9,7.1,1.9,14.4,2.7,21.5c1.1,9.7,2.9,19.5,3.8,29.1c1,11.6,2.2,23.6,3.6,35.4c1.6,13.2,3.9,26.5,6,39.5
					c1.3,8.2,2.7,16.7,4,25c3.3,22,5.6,43.4,6.9,65.3c1.3,21.1,2,44.3,1.8,67.1c-0.2,20.9-2,40.5-3.6,61.7
					c-1.8,23.7-3.5,44.5-6.7,63.5c-2,12-5.3,24.2-7.7,36c-1.9,9.3-2.5,19-4.2,28.4c-3.8,21-7.2,42.7-9.1,64.5
					c-2.2,25-2.1,45.5-0.9,64.5L448.6,654.1C448.6,654.2,448.6,654.2,448.6,654.1z"/>
				<path class="st1" d="M440.9,654.2c-0.3-21.6-1.1-42.8,0.5-64.4c1.5-20.3,5.3-40.4,9.4-64.4c1.1-6.3,2.2-12.5,3.3-18.8
					c2.6-15,5.4-30.5,7.7-45.7c3.9-25.2,5.3-45.4,6-63.8c0.5-12.7,1.1-24.9,1-37.8c-0.1-7.9-0.2-16.2-0.1-24.5
					c0.1-7.3,0.3-15,0.4-22.4c0.4-14.6-0.3-29.6-0.9-44.3c-0.7-20.6-2.5-40.9-5-60.6l-0.6-4.7c-0.5-3.6-0.9-7.1-1.3-10.7
					c-2.2-17.6-5.2-35.9-8-53.8c-1.1-6.7-2.2-13.6-3.4-20.2c-2.5-14.5-5.2-29.5-6.8-44.2c-2.4-21.5-1.9-42.7-2.2-64.4h-1.5
					c0,0,0,0,0,0c0.3,21.7,1.1,43,3.5,64.5c1.6,14.8,4,29.8,6.5,44.3c1.1,6.6,2.3,13.5,3.4,20.2c2.9,17.9,5,36.2,7.2,53.8
					c0.4,3.6,0.9,7.1,1.3,10.7l0.6,4.7c2.5,19.6,5.1,39.9,5.9,60.5c0.5,14.6-0.8,29.7-1.1,44.2c-0.2,7.4-0.4,15.1-0.4,22.4
					c-0.1,8.4,0,16.6,0.1,24.5c0.2,12.9,1.4,25.1,0.9,37.8c-0.7,18.3-4,38.6-7.9,63.7c-2.3,15.2-4,30.7-6.6,45.7
					c-1.1,6.3-2.2,12.5-3.3,18.8c-4.1,24-7.1,44.2-8.6,64.5c-1.6,21.6-1.8,42.9-1.5,64.5L440.9,654.2
					C440.9,654.2,440.9,654.2,440.9,654.2z"/>
				<path class="st1" d="M421.9,654.2c-0.2-24.1,0.6-45.2,2.2-64.4c1.2-15.4,4.1-31.1,6-46.2c0.7-6,1.5-12.2,2.2-18.2
					c0.7-5.9,1.4-12,2-17.8c1.7-15.3,3.2-31.1,5.6-46.7c1.2-7.8,2.6-15.7,4-23.3c2.4-13.4,4.2-27.3,5.6-40.8
					c2-18.7,2.7-38.9,1.3-63.5c-0.9-15.8-3.3-32.2-4.8-48.1c-0.5-5.8-1.1-11.7-1.6-17.5c-0.5-5.9-1-11.7-1.5-17.5
					c-1.3-15.5-1.6-31.6-3.4-47.4c-1.3-11.1-3.7-22.4-5.3-33.4c-1.5-10.2-2.2-20.7-3.4-31.1c-2.3-19.1-4.3-39.5-5.7-64.4
					c-1.4-23.3-2.9-44.4-3.1-64.4h-1.4c0,0,0,0,0,0c0.2,20.1,0.9,41.2,2.2,64.5c1.5,24.9,3.6,45.4,6,64.5c1.3,10.4,2.6,20.9,4,31.1
					c1.6,10.9,3.2,22.2,4.5,33.3c1.9,15.7,4.3,31.8,5.6,47.3c0.5,5.8,1,11.6,1.5,17.5c0.5,5.8,1.1,11.7,1.6,17.5
					c1.5,15.9,2,32.3,2.9,48c1.4,24.5,1.1,44.6-0.9,63.3c-1.4,13.5-3.3,27.3-5.7,40.7c-1.4,7.7-2.8,15.6-4,23.4
					c-2.4,15.6-5,31.4-6.7,46.7c-0.6,5.8-1.3,11.8-2,17.8c-0.7,6.1-1.5,12.3-2.2,18.2c-1.9,15.2-3.5,30.8-4.7,46.3
					c-1.6,19.3-2.4,40.4-2.1,64.5L421.9,654.2C421.9,654.2,421.9,654.2,421.9,654.2z"/>
				<path class="st1" d="M398.2,625.6c0-11.8-0.5-23.9,0.2-35.9c0.5-10.4,2.3-21,3.2-31.3c1-10.9,2.1-22.1,2.7-33.2
					c0.4-8,0.5-16.2,0.6-24c0.2-13.2-0.6-26.9,0.9-40.4c1.2-11.2,3.9-22.7,6-33.7c1.9-10.1,3.2-20.5,4.5-30.7
					c2.7-22.4,2.9-45.8,2.5-64.6c-0.5-20.5-1.9-42.4-3.5-64.5c-1.6-20.9-3.3-42.6-6.8-64.5c-1.2-7.7-2.6-15.5-3.9-23
					c-2.4-13.6-5.7-27.6-7.5-41.5c-2.8-21.7-3.5-43.4-3-64.4c0.3-11.5,1.5-23.2,2.2-34.6c0.6-9.8,1.7-19.9,2-29.9c0,0,0,0,0,0h-1.5
					c-0.3,9.9-1.7,20-2.3,29.8c-0.7,11.3-0.9,23.1-1.2,34.6c-0.5,21.1,0.6,42.8,3.4,64.6c1.8,13.8,3.4,27.9,5.8,41.5
					c1.3,7.5,2.7,15.3,3.9,23c3.5,21.9,6.3,43.6,7.8,64.4c1.6,22.1,2.7,43.9,3.2,64.4c0.4,18.7,0.2,42.1-2.5,64.4
					c-1.2,10.2-3.1,20.6-5,30.6c-2.1,11.1-3.7,22.6-4.9,33.8c-1.5,13.5-1.7,27.2-1.8,40.5c-0.1,7.9-0.2,16-0.6,24
					c-0.5,11-2.2,22.3-3.3,33.2c-1,10.3-1,20.9-1.5,31.3c-0.6,12-0.6,24.2-0.7,36c0,9.4,0,19-0.4,28.5c0,0,0,0,0,0h1.5
					C398.6,644.7,398.2,635,398.2,625.6z"/>
				<path class="st1" d="M405.3,632.4c0.3-14,0.8-28.4,1.8-42.6c0.7-9.8,2.4-19.7,3.5-29.4c1.2-11.5,2.7-23.4,3.4-35.1
					c0.4-7.2,0.6-14.6,0.8-21.7c0.4-14-0.1-28.5,1.9-42.8c1.5-10.2,4-20.6,6.3-30.7c2.5-11.1,5-22.5,6.4-33.8
					c2.6-20.7,1.8-40.7,0-64.6c-1.7-23.2-3.6-44.3-5.5-64.5c-2.4-25.3-4.9-45.8-7.4-64.5c-1.2-9-2.8-18.2-4.1-27
					c-1.8-12.3-3.5-25-5-37.4c-3-23.6-4.3-44.7-4.4-64.4c-0.1-14.4,0.2-29,0.9-43.1c0.3-7,0.7-14.2,0.9-21.4c0,0,0,0,0,0h-0.5
					c-0.2,7.1-0.6,14.3-0.9,21.3c-0.7,14.1-1.9,28.8-1.8,43.2c0.1,19.7,2.3,40.9,5.3,64.6c1.6,12.5,3.3,25.2,5.1,37.5
					c1.3,8.9,2.3,18,3.5,27c2.6,18.7,4.4,39.2,6.8,64.5c1.9,20.2,4.4,41.3,6.1,64.5c1.8,23.8,3.3,43.7,0.7,64.3
					c-1.4,11.2-5,22.6-7.5,33.6c-2.3,10.1-5,20.5-6.5,30.8c-2.1,14.3-2.1,28.8-2.5,42.9c-0.2,7.1-0.4,14.4-0.8,21.6
					c-0.7,11.7-2.1,23.6-3.3,35.1c-1,9.6-1.8,19.6-2.5,29.4c-1,14.2-0.9,28.7-1.2,42.7c-0.2,7.1-0.3,14.5-0.6,21.8c0,0,0,0,0,0h0.5
					C405,646.9,405.1,639.5,405.3,632.4z"/>
				<path class="st1" d="M415.1,643.6c0.3-17.6,0.3-35.9,1.4-53.8c0.9-14.6,3.3-29.5,4.7-43.9c0.7-6.7,1.4-13.7,2-20.6
					c0.5-5.4,1-10.9,1.5-16.2c1.4-15.8,2-32.1,4.3-48.2c1.2-8.6,3.4-17.3,4.9-25.7c2.2-12.7,4.6-25.8,6-38.7
					c2.4-22.9,0.8-45.2-0.1-64c-0.9-20.2-2.1-42.1-4.4-65c-1.9-18.9-3.4-39.5-6.7-64.7c-0.9-6.9-1.8-13.8-2.7-20.7
					c-1.9-14.4-4.7-29.2-6.4-43.8c-2.3-18.9-4.2-41.4-5-64.4c-0.6-18.5-0.3-37.3,0.2-55.5c0.1-3,0.1-6,0.2-9c0,0,0,0,0,0h-1.6
					c-0.1,3-0.1,6-0.2,9c-0.4,18.2-1.4,37-0.7,55.5c0.8,23.1,3.3,45.6,5.6,64.5c1.7,14.6,4.7,29.4,6.6,43.8
					c0.9,6.9,1.8,13.8,2.7,20.7c3.3,25.2,4.7,45.8,6.5,64.6c2.3,22.9,4.6,44.8,5.6,65c0.8,18.8,1,41.1-1.3,63.8
					c-1.3,12.8-3,25.9-5.2,38.6c-1.5,8.4-4,17.1-5.2,25.7c-2.3,16.1-3.6,32.5-5,48.3c-0.5,5.3-0.9,10.8-1.5,16.2
					c-0.6,6.9-1.4,13.8-2,20.6c-1.5,14.4-3.1,29.3-4,43.9c-1.2,18-1.3,36.2-1.6,53.9c-0.1,3.5-0.1,7.1-0.2,10.6c0,0,0,0,0,0h1.6
					C414.9,650.6,415,647.1,415.1,643.6z"/>
				<g>
					<path class="st1" d="M502.5,43.3c0.1,0,0.1,0,0.2,0c1,0,3.7,0,7.4-25.4c0.4-2.8,0.8-5.7,1.2-8.6h-0.9c-0.4,2.8-0.7,5.6-1.2,8.4
						c-3.2,21.8-5.1,24-5.6,24.2c-0.5-0.3-2.5-2.9-4.6-28.4c-0.1-1.3-0.2-2.7-0.3-4.2h-1.4c0.1,1.5,0.2,2.9,0.3,4.3
						C500,42.8,501.4,43.2,502.5,43.3z"/>
					<path class="st1" d="M496.6,600.2c0.7-22.6,4.2-40.7,6.9-43.2c0.2-0.2,0.4-0.2,0.4-0.2c1.9,0,5.5,9.4,8.1,24.5
						c2,12,2.3,23.6,1.5,38.7c-0.5,10.4-1.8,22.3-3.3,34.2h0.9c1.5-11.9,2.6-23.7,3.1-34.1c0.8-15.2,1-26.9-1.1-39
						c-0.4-2.6-4.5-25.6-9.4-25.6c-0.5,0-0.9,0.2-1.3,0.5c-3.7,3.4-5.5,25.8-6.1,44.1c-0.6,20.4-0.1,40,0.9,54.1h1.4
						C497.6,640.2,496,620.5,496.6,600.2z"/>
				</g>
				<g>
					<path class="st1" d="M545.3,654.2c0.8-15.9,0.7-33.8-0.2-52.9c-1.6-37.2-6.4-69.7-12.1-84.7c-2.1-5.5-4.4-8.6-6.5-11.7
						c-3.9-5.4-8-10.6-10.7-28.3c-2.1-13.8-2.7-35-3.9-53.8c-1.3-19.3-2.4-36-3.9-39.5c-0.1-0.3-0.5-1.1-1.2-1.1
						c-2.2,0-4.4,8.9-8.7,41.6c-1.4,10.5-2.8,21.4-4.3,31.4c-4.2,28-8.6,47.4-13.1,66.2c-0.8,3.5-1.7,6.9-2.5,10.3
						c-4.7,19.6-9.4,42.7-11.2,66.2c-1.3,16.9-1.6,34.3,0.3,56.2h1c-1.9-21.9-1.5-39.3-0.2-56.1c1.9-23.3,6.9-46.4,11.6-66
						c0.8-3.4,1.7-6.9,2.5-10.3c4.6-18.8,9.3-38.2,13.6-66.3c1.5-10,2.3-20.9,3.6-31.4c2.3-17.7,5.3-37.7,7-40.3c0,0,0,0.1,0,0.1
						c1.4,3.3,2.8,20.6,4,39c1.2,18.8,2.3,40.1,4.3,53.9c2.7,18,6.9,23.2,10.9,28.8c2.1,3,4.3,6.1,6.4,11.4
						c5.7,14.9,10.2,47.2,11.8,84.3c0.8,19,0,37-0.7,52.8H545.3z"/>
					<path class="st1" d="M479.1,99.8c1.4,9.4,3.4,19.2,4.7,28.4c0.4,3,0.9,5.9,1.3,8.8c4.9,34.3,6.6,47.2,10,47.2h0
						c1.1,0,1.7-1.2,1.9-1.6c1.9-3.6,4.3-14.5,6.6-28.2c2.6-15.6,4.8-34.9,9-47.9c3.9-11.9,8.7-18.8,13.2-25.5
						c4.7-6.9,9.4-13.4,12.6-24.7c3.1-11,6-27.3,6.9-46.9h-2.1c-0.9,19.4-2,35.6-5.1,46.5c-3.2,11.1-8,17.5-12.7,24.3
						c-4.6,6.8-9.4,13.8-13.3,25.8c-4.3,13.1-8.2,32.5-10.8,48.1c-2.2,13.1-3.4,24.4-5.1,27.8c-0.5,0.9-0.7,0.9-0.7,0.9
						c-0.3,0-1.7-0.6-4.1-13.2c-1.6-8.5-3.3-20.3-5.1-32.9c-0.4-2.9-0.8-5.8-1.3-8.8c-1.3-9.2-3.7-19-5.1-28.4
						c-3.7-24.7-7.2-50.2-9.7-71.8c-0.8-6.5-1.4-12.6-1.9-18.5h-1c0.5,5.9,1.2,12,1.9,18.6C471.7,49.6,475.4,75.1,479.1,99.8z"/>
				</g>
				<path class="st1" d="M214.8,214.2c-1.3-9.9-3.8-12.1-6.8-14.6c-2.6-2.2-5.5-4.7-8.2-13.5c-2.5-8.2-5.1-21.7-7.3-34.7
					c-3.4-20-5.9-32.4-8.7-33.9c-0.2-0.1-0.5-0.2-0.7-0.2c-3.4,0-6.3,12.9-11,42.2c-1.5,9.4-2.8,19.1-4.5,27.9
					c-3.5,18.3-7.6,32.8-11,45.6c-2.4,8.7-3.9,17-5.8,25.4c-5.1,23.5-7.2,46-5.1,64.9c1.1,10.1,3.5,19.5,6,30.5
					c2.7,11.7,6.2,24.9,8.6,41.9c1.9,13.2,3.3,28.9,4.8,44c2.3,23.1,3.6,44.9,6.8,58.1c3.3,13.5,7.7,17.8,11.5,21.7
					c2.5,2.5,4.7,4.7,6.3,9.1c1.6,4.5,2.6,11.2,3.5,17.2c1.3,8.8,1.8,11.6,3.4,11.6c0,0,0,0,0,0c0.9,0,1.6-1,2.4-3.6
					c3.9-12.1,11.7-62,14.5-106.4c1.9-30.8,1.7-58.3,1.2-87.4c-0.2-12.5-1-25.4-1-38.4c0-14.6,1.4-29.4,1.7-43.8
					C215.9,250.3,216.4,226.5,214.8,214.2z M213.9,360.1c0.5,29.1,0.9,56.6-1,87.3c-2.8,44.3-11.5,94.1-15.3,106.1
					c-0.6,1.8-1,2.4-1.1,2.6c-0.7-0.9-1.5-6.2-2.1-10.4c-0.9-6-1.9-12.8-3.5-17.4c-1.7-4.7-4.1-7.1-6.6-9.6c-3.7-3.7-8-7.9-11.2-21
					c-3.2-13.2-4.1-34.9-6.4-58c-1.5-15.1-3-30.8-4.9-44c-2.4-17.1-5.9-30.3-8.6-42c-2.5-10.9-4.8-20.4-5.9-30.4
					c-2.1-18.8-1.1-41.1,4-64.5c1.8-8.5,4.3-16.7,6.6-25.4c3.5-12.8,8-27.4,11.5-45.7c1.7-8.8,3.1-18.6,4.6-28
					c1.8-11,2.6-21.4,4.2-29c2.4-11.2,3.8-12.1,4.2-12.1c0,0,0.1,0,0.1,0c2.4,1.3,6,18.2,8.6,33c2.2,13.1,4.9,26.6,7.5,34.9
					c2.8,9.2,5.9,11.8,8.6,14.1c2.9,2.5,5.2,4.4,6.4,13.8c1.5,12.1,0.2,35.9-0.3,63.4c-0.2,14.4-0.3,29.2-0.3,43.8
					C212.9,334.7,213.7,347.6,213.9,360.1z"/>
				<g>
					<path class="st1" d="M482.1,598.9c1.8-21.1,5.3-42,9.3-61.6c2.7-13.4,7.4-33.6,10.1-34.2c1.2,0,3.1,6.2,4.5,10.7
						c1.1,3.6,2.4,7.7,3.8,11c1.7,4,3.7,6.9,5.8,10c2.5,3.6,5.1,7.4,7.5,13.6c3,7.6,8.1,25.1,8.9,56.7c0.4,14.5-0.6,32.4-2.5,49h1.2
						c1.9-16.7,2.9-34.6,2.5-49.1c-0.8-31.8-6.8-49.5-9.8-57.2c-2.5-6.3-5.1-10.1-7.6-13.8c-2.1-3-4-5.8-5.7-9.7
						c-1.4-3.2-2.6-7.1-3.7-10.9c-2.3-7.4-3.6-11.7-5.7-11.7c-0.1,0-0.2,0-0.4,0c-3,0.7-5.4,11-10.3,35.2c-4,19.6-7.4,40.5-9.2,61.7
						c-1.4,16.9-1.8,34.1-0.3,55.4h1.3C480.2,632.9,480.7,615.7,482.1,598.9z"/>
					<path class="st1" d="M493.1,103.4c0.7,2.4,1.4,3.3,2.2,3.3c1.4,0,2.1-2.5,3.6-8.6c1.1-4.5,2.5-10.2,4.5-15.1
						c2-4.9,4.8-9.2,7.7-13.7c4.6-7.2,10.7-15.3,14.5-28.1c2.7-8.9,3.8-20.1,5.1-31.8h-1.2c-1.3,11.6-2.6,22.6-5.3,31.4
						c-3.8,12.6-9.3,20.7-13.8,27.8c-2.9,4.6-5.7,8.9-7.8,13.9c-2.1,5-3.5,10.7-4.6,15.3c-0.8,3.2-1.7,6.9-2.3,7.5
						c-0.2-0.2-0.5-0.7-1-2.4c-2.8-9.2-8.3-44.8-11.4-76c-0.6-6.2-1.1-12-1.5-17.5h-1.3c0.4,5.6,0.9,11.4,1.5,17.7
						C484.7,54.9,489.9,93.1,493.1,103.4z"/>
				</g>
				<path class="st1" d="M459.7,654.1c-1.6-19.8-0.6-40.8,1.5-64.4c1.9-20.7,4.2-41.7,8.8-64.4c1.9-9.3,4-18.8,6-28
					c2.7-12,5.2-24.3,7.5-36.5c3.6-18.9,6.3-38.8,8.9-64.5c2-19.1,4.2-41.9,3.9-65.6c-0.2-19.6-0.9-39.7-2.5-59.2
					c-0.2-2.9-0.5-5.7-0.7-8.6c-0.2-2.6-0.4-5.1-0.6-7.7c-1.5-18.3-2.8-35.6-5.9-53.6c-1.5-8.8-4.2-17.7-6.2-27
					c-2.5-11.9-4.7-24.2-6.5-36.3c-1.8-12.7-2.5-25.7-3.4-38.2c-0.6-8.6-1.2-17.5-2.2-26.2c-1-9.3-2.6-18.7-3.9-27.9
					c-1.7-12-3.8-24.4-4.8-36.5h-0.8c0,0,0,0,0,0.1c1,12.2,2,24.6,3.7,36.7c1.3,9.1,3.3,18.6,4.3,27.8c0.9,8.7,1.1,17.6,1.7,26.2
					c0.9,12.6,1.8,25.5,3.7,38.3c1.8,12.2,4.4,24.5,7,36.4c2,9.3,3.9,18.2,5.4,27c3.1,17.9,4.8,35.2,6.2,53.5
					c0.2,2.5,0.4,5.1,0.6,7.7c0.2,2.8,0.5,5.7,0.7,8.6c1.6,19.4,2.8,39.5,3,59.1c0.3,23.7-1.2,46.4-3.2,65.5
					c-2.7,25.7-5.2,45.6-8.8,64.4c-2.3,12.1-5,24.5-7.6,36.4c-2.1,9.2-5.2,18.7-7.1,28c-4.6,22.7-7,43.8-8.9,64.5
					c-2.2,23.6-2.4,44.7-0.8,64.5L459.7,654.1C459.7,654.2,459.7,654.2,459.7,654.1z"/>
				<path class="st1" d="M391.1,613.6c0-7.8,0.1-15.9,0.3-23.9c0.3-11,2-22.2,2.6-33.1c0.6-10.3,0-20.9,0.3-31.4
					c0.2-5.9,0.3-11.9,0.3-17.6c0.2-15.3,1.8-31.2,3.7-46.8c1.1-9.5,2.3-19.1,4-28.5c2.1-11.8,4-24,5-36c1.3-16,1.2-32.2,0.3-47.9
					c-0.3-5.5-0.6-11.1-0.8-16.7c-0.3-9-0.3-18.2-0.4-27.1c-0.1-12.2-1.5-24.9-2.2-37.4c-1.3-21.3-3.6-43-6.6-63.9l-0.1-0.6
					c-2.9-19.9-6.1-42.4-8.6-64.5c-2.2-19.2-5-41.8-4.1-64.4c0.5-12.1,1.9-24.3,3.2-36.2c1-9.3,1.5-18.8,2.1-28.3c0,0,0,0,0,0H390
					c-0.6,9.4-2.6,18.9-3.6,28.2c-1.3,11.9-1.9,24.2-2.4,36.3c-0.9,22.7,0.8,45.4,3,64.6c2.5,22.1,5.7,44.6,8.6,64.5l0.1,0.6
					c3.1,20.9,7.2,42.5,8.5,63.8c0.7,12.4,1,25.1,1.1,37.3c0.1,8.9,0.1,18.1,0.5,27.2c0.2,5.6,0.5,11.2,0.8,16.7
					c0.8,15.6,1.2,31.8-0.1,47.7c-1,12-3.5,24.1-5.6,35.9c-1.7,9.3-3.5,19-4.6,28.5c-1.8,15.6-1.5,31.5-1.8,46.9
					c-0.1,5.8-0.2,11.8-0.3,17.6c-0.3,10.5-0.8,21.1-1.4,31.4c-0.6,10.8-1.5,22.1-1.8,33.1c-0.2,8-0.3,16.1-0.3,23.9
					c-0.1,13.3,0.2,27-0.6,40.5c0,0,0,0,0,0h0.2C391,640.7,391.1,626.9,391.1,613.6z"/>
				<path class="st1" d="M295.4,654.2c-1.1-22-0.1-43.7,0.5-64.4c0.3-9-0.5-18.1-0.1-26.9c0.6-12.3,1.1-25.1,1.3-37.6
					c0.1-5.8,0-11.7,0-17.4c-0.1-15.4,1.1-31.4,2.9-47c1.3-11.1,3.4-22.5,5.5-33.4c2-10.2,3.5-20.7,4.7-31.1
					c2.2-17.7,2.9-35.6,2.9-52.9c0-3.9,0-7.7,0.1-11.6c0.1-8.4,0.2-16.9,0.4-25.1c0.3-12.9,0.4-26.2,0.3-39.4
					c-0.2-20.7-1.6-42.4-3.9-64.5c-0.8-8.1-1.8-16.3-2.8-24.3c-1.6-13.2-3.5-26.8-4.6-40.2c-1-13.7-0.9-27.6-1.4-41
					c-0.2-7.7-0.5-15.6-0.9-23.4c-0.5-11.3-1.6-22.7-2.4-33.8c-0.7-10-2.1-20.4-2.6-30.6h0c0,0,0,0,0,0c0.5,10.2,1,20.6,1.7,30.7
					c0.7,11.1,1.2,22.5,1.7,33.8c0.4,7.8,0.6,15.7,0.9,23.4c0.4,13.5,0.4,27.4,1.5,41.1c1,13.4,2.4,27.1,4,40.3
					c0.9,7.9,1.9,16.2,2.8,24.2c2.3,22.1,3.7,43.8,3.9,64.4c0.1,13.1,0.8,26.4,0.6,39.3c-0.2,8.2-0.4,16.8-0.4,25.1
					c0,3.9,0,7.8-0.1,11.6c0,17.3-1,35.2-3.2,52.8c-1.3,10.3-3.1,20.8-5.1,31c-2.2,11-4.5,22.3-5.7,33.5
					c-1.8,15.7-0.9,31.7-0.9,47.2c0,5.7,0.1,11.6,0,17.4c-0.1,12.5-1.6,25.2-2.2,37.5c-0.4,8.8-0.1,17.9-0.4,26.9
					C293.7,610.5,294.3,632.2,295.4,654.2L295.4,654.2C295.4,654.2,295.4,654.2,295.4,654.2z"/>
				<path class="st1" d="M262.4,654.1c-1.5-20.6-3.5-42.6-1.7-64.4c0.9-11.3,3.6-22.8,5.2-34c1.5-10,2.7-20.3,3.6-30.5
					c1-11.1,1.5-22.5,1.9-33.4c0.3-10.2-0.3-20.7,0.6-31.1c1-11.6,3.2-23.4,4.8-34.8c1.4-9.7,2.3-19.8,3.3-29.7
					c2.1-21.1,2.9-41.7,3-64.5c0.1-17.6,0.3-40.8-0.2-64.5c-0.4-19.1-1.9-41.8-4.4-64.5c-1.1-10.3-2.3-20.8-3.7-30.9
					c-1.5-11-3.5-22.4-4.6-33.6c-1.5-14.6-2-29.4-2.7-43.7c-0.3-6.8-0.7-13.8-1.1-20.7c-0.8-13-1-26.2-2-38.9
					c-0.7-8.4-1.4-17-2-25.5h-2.4c0,0,0,0,0,0c0.6,8.5,1.3,17.2,2,25.6c1.1,12.7,2.5,25.9,3.3,38.9c0.4,6.9,0.8,13.9,1.1,20.7
					c0.7,14.3,1.2,29.2,2.6,43.8c1.1,11.2,3.5,22.6,5.1,33.6c1.4,10.1,2,20.6,3.1,30.9c2.4,22.7,3.9,45.3,4.3,64.4
					c0.5,23.7,0.8,46.9,0.8,64.5c-0.1,22.8-1.1,43.4-3.3,64.4c-1,9.9-1.8,19.9-3.1,29.6c-1.6,11.4-3.4,23.2-4.3,34.9
					c-0.9,10.4-1.7,20.9-2.1,31.1c-0.4,10.9,0.1,22.2-0.9,33.3c-0.9,10.1-3.5,20.5-5,30.4c-1.6,11.2-2.7,22.7-3.6,34
					c-1.7,21.9-1.4,43.9,0.1,64.5L262.4,654.1C262.4,654.2,262.4,654.2,262.4,654.1z"/>
				<path class="st1" d="M283.6,654.1c-1.7-21.5-2.4-43.1-1.8-64.4c0.3-12.8,2.1-25.8,2.8-38.4c0.5-8.6,0.9-17.4,1.2-26.1
					c0.2-5,0.4-10.1,0.6-15.1c0.6-16.2,0.5-32.9,2.7-49.3c1.3-10.3,3.1-20.7,5-30.8c2.1-11,4.1-22.4,5.4-33.6
					c2.6-21.8,3.1-43.5,2.8-64.6l-0.2-9.9c-0.3-17.9-1-36.4-1.2-54.5l-0.1-6.6c-0.2-19,0.2-38.6-1.1-57.9c-0.8-10.9-2.9-21.9-4-32.6
					c-1.1-10.4-2.2-21.2-3-31.9c-0.8-11-1-22.2-1.4-33.1c-0.4-10.3,0-20.9-0.7-31.4c-0.8-11.8-2.8-23.9-4-35.5
					c-1-9.5-2.2-19.3-3-28.9h-0.9c0,0,0,0,0,0.1c0.8,9.7,1.3,19.5,2.3,29c1.2,11.6,2.7,23.6,3.6,35.5c0.7,10.4,1.1,21.1,1.4,31.3
					c0.4,10.9,1.7,22.1,2.5,33.1c0.8,10.6,0.9,21.5,2,31.9c1.1,10.7,2.6,21.7,3.4,32.6c1.4,19.3,1.2,38.9,1.4,57.8l0.1,6.6
					c0.2,18.2,0.4,36.7,0.7,54.6l0.2,9.9c0.3,21,1.1,42.7-1.5,64.4c-1.3,11.2-3.4,22.6-5.5,33.6c-1.9,10.1-3.6,20.6-4.9,30.9
					c-2.1,16.5-2.5,33.3-3.1,49.5c-0.2,4.9-0.4,10-0.6,15.1c-0.4,8.7-0.6,17.5-1.1,26.1c-0.7,12.6-2.2,25.6-2.6,38.4
					c-0.6,21.3,0,43,1.7,64.5L283.6,654.1C283.6,654.2,283.6,654.2,283.6,654.1z"/>
				<path class="st1" d="M271.3,654.1c-1.1-18.8-1.1-39.3,0.6-64.4c0.6-9.1,2.3-18.4,3-27.4c1-12.2,1-24.7,1.7-37.1
					c0.4-6.7,0.6-13.5,0.9-20.1c0.6-14.5,1.9-29.6,3.5-44.4c1.3-11.3,3.4-22.9,5.3-34c1.7-10,2.4-20.3,3.7-30.4
					c2.3-18.8,4.3-38.7,4.2-64.6c-0.1-11.4-1.2-22.9-1.5-34.1c-0.2-10-0.5-20.3-0.6-30.4c-0.1-5.2-0.1-10.4-0.1-15.5
					c0-16.1,0.7-32.7-0.5-49.1c-1-13-2.8-26.1-4.5-38.9c-1.1-8.4-2.8-17.1-3.7-25.6c-1.3-11.8-2.2-23.8-3.1-35.4
					c-0.7-9.5-1.8-19.4-2.7-29.1c-0.8-7.9-1.7-15.9-2.6-23.7c-1.5-13.3-2.8-27.1-3.6-40.7h-0.5c0,0,0,0,0,0
					c0.8,13.6,1.9,27.4,3.5,40.8c0.9,7.8,1.8,15.8,2.6,23.7c0.9,9.7,2.1,19.5,2.8,29.1c0.9,11.6,1.4,23.6,2.6,35.4
					c0.9,8.5,2.4,17.2,3.5,25.6c1.7,12.7,3.1,25.9,4.1,38.8c1.2,16.3,1.6,32.9,1.6,49c0,5.1,0,10.3,0.1,15.5
					c0.1,10.1,0.6,20.4,0.8,30.4c0.3,11.2,0,22.7,0.1,34.1c0.2,25.8-1.1,45.7-3.4,64.4c-1.3,10.1-2.5,20.4-4.2,30.4
					c-1.9,11.2-4,22.7-5.3,34.1c-1.7,14.8-2,29.9-2.5,44.5c-0.3,6.6-0.5,13.4-0.9,20c-0.7,12.3-2.6,24.9-3.6,37.1
					c-0.7,9-1.4,18.3-2,27.4c-1.7,25.1-0.8,45.6,0.3,64.5L271.3,654.1C271.3,654.2,271.3,654.2,271.3,654.1z"/>
				<path class="st1" d="M251.9,654.2c-0.8-25-0.8-45.4,0.3-64.4c1.1-18.6,3.7-37.4,5.8-55.7c0.3-2.9,0.7-5.8,1-8.7
					c2.5-21.8,4.8-43.5,7-64.5c2.2-21.1,3.7-42.9,4.8-64.5c0.6-12.1,1.4-24.3,1.6-36.2c0.2-9.3-0.2-18.9,0.2-28.3
					c0.3-6.8,0.6-13.7,1-20.4c0.7-14.4,1.4-29.4,1.2-44.1c-0.2-19.2-2.3-39.7-5.8-64.6c-1.2-8.7-1.8-17.4-3.1-25.9
					c-2-12.6-4.8-25.7-6.4-38.5c-2.6-21.8-2.9-43.5-4.1-64.4c-1.4-23.9-2.9-43.8-3.5-64.4h-2c0,0,0,0,0,0
					c0.7,20.6,1.7,40.6,3.2,64.5c1.3,21,3.3,42.7,6,64.5c1.6,12.9,2.8,25.9,4.8,38.6c1.3,8.5,2.8,17.3,4.1,25.9
					c3.5,24.8,6.1,45.3,6.3,64.4c0.1,14.7-1.6,29.6-2.3,44c-0.3,6.7-0.7,13.6-1,20.5c-0.4,9.5,0.7,19.1,0.5,28.4
					c-0.2,11.8-1.5,24.1-2.1,36.1c-1.1,21.5-2.8,43.3-5,64.4c-2.2,21-4.4,42.7-6.9,64.5c-0.3,2.9-0.7,5.8-1,8.7
					c-2.1,18.3-4.3,37.2-5.4,55.8c-1.1,19-1.9,39.5-1.1,64.5L251.9,654.2C251.9,654.2,251.9,654.2,251.9,654.2z"/>
				<path class="st1" d="M198.6,654.2c-0.3-23.4,1.7-44.5,5.6-64.3c2.1-10.8,5-21.7,7.7-32.3c2.8-10.5,4.8-21.4,6.9-32.2
					c4.5-22.8,6.9-45.4,7.6-64.6c0.7-19.9,0.1-41-0.2-64.5c-0.1-7-0.2-14.1-0.4-20.9c-0.3-14.3-0.6-29-0.5-43.5
					c0.1-13.5,0.6-27.1,1.1-41.4c0.3-8.4,0-17.2,0.2-26.3c0.6-26.5,0.9-53.1-2.9-67.9c-1.8-7.2-4.5-11.4-7.4-15.8
					c-3.1-4.9-6.4-10-8.6-19.6c-3.5-15.1-4.6-40.7-5.6-65.6c-0.2-5.1-0.4-10.1-0.6-14.9c-0.5-10.5-1.1-19.9-1.6-29.1
					c-0.9-15.2-1.1-28.4-1.2-41.8H197c0,0,0,0,0,0c0.2,13.4,0.4,26.6,1.3,41.9c0.5,9.1,2,18.6,2.5,29.1c0.2,4.8,0.4,9.8,0.6,14.9
					c1,24.9,1.8,50.6,5.4,65.8c2.3,9.8,5.6,15,8.8,20c2.8,4.4,5.4,8.5,7.2,15.5c3.7,14.7,4.4,41.1,3.8,67.5
					c-0.2,9.2-0.6,17.9-0.8,26.3c-0.4,14.3-2,27.9-2.1,41.4c-0.1,14.5,1.4,29.3,1.7,43.6c0.1,6.9,0.3,14,0.4,20.9
					c0.3,23.5-0.2,44.6-0.9,64.4c-0.7,19.1-2.4,41.7-6.9,64.4c-2.1,10.7-4.3,21.6-7.1,32.1c-2.8,10.6-6.3,21.6-8.4,32.4
					c-3.9,19.9-5.6,41.1-5.3,64.6L198.6,654.2C198.6,654.2,198.6,654.2,198.6,654.2z"/>
				<path class="st1" d="M212.6,654.2c-0.1-22.1,1.8-43.7,5.1-64.4c2-13,3.8-26.2,6.5-38.9c1.8-8.4,3.4-17,5-25.5
					c4.1-21.6,7.9-43.3,9.3-64.6c1.3-19.6,1.4-40.7,0.7-64.5c-0.2-6.7-0.5-13.6-0.7-20.2c-0.6-14.5-1.7-29.5-1.5-44.2
					c0.2-13.5,1.3-27.3,2-40.7c0.5-7.8,0.9-15.9,1.3-23.8c0.8-19.3,0.6-41.9-3.5-63.6c-1.9-10.3-3.5-20-6.5-30.3
					c-2.9-9.9-7-20.2-9-30.9c-3.6-18.5-4.4-38.8-5.4-58.3c-0.2-3.1-0.3-6.2-0.5-9.3c-0.3-6.1-0.7-12.1-1-18
					c-1-16.4-1.5-31.8-1.6-47.5h-1.9c0,0,0,0,0,0c0.1,15.7,2.1,31.2,3.1,47.6c0.4,5.9,0.7,11.9,1,18c0.2,3.1,0.3,6.2,0.5,9.3
					c1,19.6,1.6,39.9,5.2,58.5c2.1,10.8,5.4,21.1,8.2,31c3,10.3,4.6,20,6.6,30.2c4.1,21.5,4.7,44.1,3.9,63.3
					c-0.3,7.9-0.8,16-1.3,23.8c-0.8,13.3-2.5,27.1-2.7,40.7c-0.2,14.8,0.3,29.8,0.9,44.3c0.3,6.6,0.5,13.5,0.7,20.2
					c0.7,23.8,0.8,44.8-0.5,64.4c-1.4,21.2-4.4,42.8-8.4,64.4c-1.6,8.5-3.5,17.1-5.3,25.5c-2.7,12.8-4.3,26-6.4,39
					c-3.2,20.7-5.8,42.4-5.6,64.6L212.6,654.2C212.6,654.2,212.6,654.2,212.6,654.2z"/>
				<path class="st1" d="M307.4,654.2l-0.1-3.8c-0.6-19.9-1.1-40.4-0.6-60.6c0.3-10.6,1-21.4,1.6-31.8c0.6-10.7,1.6-21.8,1.8-32.7
					c0.2-7.1,0.2-14.3,0.2-21.3c0.1-14.1,0.2-28.8,1.4-43.1c1-11.8,2.2-23.9,3.9-35.5c1.4-9.5,2.7-19.3,3.7-28.9
					c2.2-21.3,3.4-42.7,3.4-64.5c0-7.6,0-15.1,0-22.7c0-13.7-1.1-27.9-1-41.8c0-2.9,0.1-5.8,0.1-8.7c0.2-18.3,0.5-37.2-0.8-55.8
					c-0.9-13.8-2.1-27.8-3.8-41.4c-0.9-7.6-1.9-15.4-2.8-23.1c-2.5-23.7-4.5-46.9-5.2-64.4c-0.7-17.6-1.1-35.5-1.6-52.8
					c-0.1-3.9-0.2-7.8-0.3-11.7h-1c0,0,0,0,0,0c0.1,3.9,0.2,7.8,0.3,11.7c0.5,17.3,1.5,35.2,2.2,52.8c0.7,17.6,1.8,40.8,4.3,64.5
					c0.8,7.7,1.8,15.5,2.8,23.1c1.7,13.6,3.5,27.6,4.4,41.3c1.3,18.6,1.3,37.5,1.2,55.7c0,2.9-0.1,5.8-0.1,8.7
					c-0.1,13.9-0.4,28.1-0.4,41.8c0,7.6,0,15.1,0,22.7c0,21.8-0.8,43.1-3,64.4c-1,9.6-1.4,19.4-2.8,28.9
					c-1.7,11.7-4.8,23.7-5.8,35.6c-1.2,14.4-0.7,29.1-0.7,43.2c0,7-0.1,14.2-0.2,21.3c-0.2,10.9-0.2,21.9-0.8,32.6
					c-0.5,10.4-0.9,21.2-1.2,31.8c-0.5,20.2-0.8,40.8-0.3,60.7l0.1,3.8L307.4,654.2C307.4,654.2,307.4,654.2,307.4,654.2z"/>
				<path class="st1" d="M353.7,615.2c0.1-8.4,0.2-17,0.6-25.5c0.5-10.4,1.5-20.9,2.3-31.1c0.9-10.9,1.8-22.2,2.3-33.4
					c0.5-12.5-0.3-25.1-0.4-37.4c-0.1-8.9,0.7-18.1,0.8-27.1c0.1-8.3,0.5-16.7,0.8-24.9c0.5-13,0.2-26.4,0-39.6
					c-0.1-8.6-0.6-17.3-1.1-25.7c-0.7-12.7-1.5-25.9-1.1-38.8c0.4-12.5,1.9-25.1,3.3-37.4c1-8.9,1.6-18,2.3-27
					c1.4-20.6,2.1-42.3-0.4-64.6c-2-17.7-5.2-35.6-8.3-53c-0.7-3.9-1.4-7.7-2-11.6c-3.6-20.7-6.9-42.8-6.4-64.4
					c0.3-13,2-26.3,3.7-39.1c1.1-8.3,2.2-16.9,2.9-25.3c0,0,0,0,0-0.1h-2.3c-0.7,8.4-1.8,16.9-2.9,25.2c-1.6,12.9-2.4,26.2-2.7,39.3
					c-0.4,21.7,1.9,43.8,5.5,64.6c0.7,3.9,1.4,7.7,2,11.6c3.1,17.3,7.4,35.3,9.4,52.9c2.5,22.2,2.8,43.8,1.3,64.4
					c-0.6,9-2.6,18.1-3.6,27c-1.4,12.3-1.5,25-1.9,37.5c-0.4,13,0,26.1,0.7,38.9c0.5,8.4,0.9,17.1,1.1,25.6
					c0.2,13.2-1.1,26.6-1.6,39.5c-0.3,8.2-0.7,16.6-0.8,24.9c-0.2,9.1-0.2,18.3-0.1,27.2c0.1,12.2,1.3,24.9,0.8,37.3
					c-0.4,11.1-2,22.4-2.9,33.3c-0.8,10.2-2.1,20.8-2.6,31.2c-0.4,8.5-0.5,17.2-0.6,25.6c-0.2,12.8-0.2,25.9-1.3,38.9c0,0,0,0,0,0.1
					h2.3C353.9,641.2,353.5,628,353.7,615.2z"/>
				<path class="st1" d="M361.4,621.2c0.3-10.3,0.7-21,1.4-31.4c0.6-10.2,2.3-20.6,3.2-30.6c1-11.1,2.2-22.6,2.8-33.9
					c0.7-12.5,1.2-25.2,1.4-37.5c0.1-8.8,0.1-18,0.4-27c0.3-7.4,0.7-15,1.1-22.4c0.7-13.8,1.6-28.1,1.5-42.2
					c0-9.5-1.4-19.1-1.8-28.4c-0.5-11.8-0.3-24-0.1-36.1c0.2-11.8,1.3-23.7,2.2-35.3c0.8-9.6,1.3-19.4,1.7-29.1
					c0.8-21-0.6-42.7-3.6-64.6c-1.6-12-3.4-24.2-5.6-35.9c-1.7-9.4-3.9-19-5.4-28.6c-3.6-23.4-5.3-44.5-4.9-64.4
					c0.3-13.6,2.1-27.4,3.3-40.7c0.7-7.8,1.4-15.8,1.9-23.7c0,0,0,0,0,0h-1.1c-0.5,7.9-1.2,15.9-1.9,23.7
					c-1.2,13.4-2.4,27.2-2.6,40.8c-0.4,20,0.9,41.1,4.5,64.6c1.5,9.5,3.2,19.2,4.9,28.6c2.2,11.8,3.6,23.9,5.3,35.9
					c3,21.8,3.9,43.5,3.1,64.4c-0.4,9.7-0.7,19.6-1.5,29.1c-0.9,11.6-1.6,23.6-1.8,35.4c-0.2,12.1-0.4,24.3,0.1,36.1
					c0.4,9.3,0.6,18.9,0.7,28.3c0.1,14,0.6,28.3-0.1,42.1c-0.4,7.3-0.8,14.9-1.1,22.4c-0.3,9-0.5,18.1-0.6,27
					c-0.2,12.3-1,25-1.6,37.5c-0.6,11.3-1.6,22.7-2.6,33.8c-0.9,10-2.7,20.4-3.3,30.6c-0.6,10.5-0.9,21.2-1.2,31.5
					c-0.4,10.8,0.5,22-0.3,33c0,0,0,0,0,0h1.1C361.5,643.2,361,632,361.4,621.2z"/>
				<path class="st1" d="M370.5,621.6c0.3-10.4,1.7-21.2,2.3-31.8c0.6-9.9,1.2-20,2.1-29.8c1-11.4,2.5-23.1,3.1-34.7
					c0.5-9.6,0.5-19.3,0.7-28.7c0.1-11.7,0.4-23.8,1.2-35.7c0.6-9,0.8-18.3,1.7-27.2c1.3-12.2,2.4-24.9,2.8-37.3
					c0.4-12.4-0.1-25.1-0.7-37.3c-0.4-8.9-0.3-18.2-0.3-27.2c-0.1-11.1-0.3-22.4,0.2-33.4c0.5-10.2,1.3-20.7,1.3-31.1
					c0-19.4-0.9-39.9-4.2-64.6c-1.6-11.5-4.6-23.2-6.4-34.5c-1.6-9.8-2.2-20-3.6-30c-2.5-17.6-5.1-40.7-4.8-64.4
					c0.2-13.4,0.6-27.1,1.8-40.2c0.7-7.9,1.4-16.1,1.9-24.2c0,0,0,0,0,0h-1.1c-0.5,8-1.2,16.2-1.9,24.1c-1.2,13.2-2.8,26.9-3,40.3
					c-0.3,23.7,3.2,47,5.7,64.6c1.4,10,3.1,20.2,4.7,30c1.8,11.3,3.3,23,4.8,34.5c3.3,24.6,5.4,45.1,5.4,64.4
					c0,10.3-0.8,20.9-1.3,31c-0.5,11-1.7,22.3-1.7,33.4c0.1,9.1,1.3,18.3,1.8,27.3c0.6,12.2,1.5,24.8,1.1,37.2
					c-0.4,12.4-2.6,25-3.9,37.2c-1,8.9-2,18.1-2.7,27.2c-0.8,11.9-0.7,24.1-0.8,35.8c-0.1,9.4-0.1,19.1-0.5,28.7
					c-0.6,11.5-1.8,23.3-2.9,34.6c-0.9,9.8-1.8,19.9-2.4,29.8c-0.6,10.6-0.6,21.4-0.9,31.9c-0.3,10.7-1,21.7-1.7,32.6c0,0,0,0,0,0
					h1.1C370.2,643.3,370.2,632.3,370.5,621.6z"/>
				<path class="st1" d="M381.7,612.1c0-7.3-0.1-14.9,0-22.4c0.2-15.5,2.4-31.2,3.2-46.4c0.3-5.9,0.7-12,1-18.1
					c0.2-4.7,0.4-9.4,0.6-14.1c0.7-16.5,1-33.5,2.7-50.3c0.8-7.3,1.7-14.8,2.7-22c1.8-13.9,4-28.3,4.4-42.5c0.4-12.9-1.3-26-2-38.7
					c-0.5-8.5-0.9-17.2-1-25.8c-0.2-11.1,0.4-22.3,0.8-33.2c0.4-10.2,0.4-20.8,0.3-31.2c-0.2-18.9-1.1-38.8-4.6-64.6
					c-1.4-10.6-3.3-21.4-4.9-31.9c-1.6-10.7-3.4-21.7-4.9-32.6c-2.6-19.1-5.5-41.6-4.7-64.4c0.4-12.1,1.8-24.4,3.1-36.3
					c1-9.2,1.9-18.8,2.5-28.1c0,0,0,0,0,0H380c-0.6,9.3-1.7,18.9-2.7,28c-1.3,11.9-2.1,24.3-2.5,36.4c-0.8,22.9,1.7,45.5,4.2,64.6
					c1.5,10.9,2.9,21.9,4.5,32.6c1.6,10.4,2.9,21.3,4.3,31.9c3.5,25.7,5.2,45.6,5.4,64.4c0.1,10.4,0.7,21,0.4,31.2
					c-0.4,10.9-1.8,22.2-1.6,33.3c0.1,8.6,0.6,17.4,1,25.9c0.7,12.6,2.4,25.7,2,38.6c-0.5,14.1-2.1,28.5-3.9,42.4
					c-0.9,7.2-1.9,14.7-2.7,22.1c-1.7,16.8-3.7,33.9-4.4,50.4c-0.2,4.7-0.4,9.4-0.6,14.1c-0.3,6-0.6,12.1-0.9,18.1
					c-0.8,15.2-1.6,31-1.9,46.4c-0.1,7.5-0.1,15.1,0,22.4c0.1,13.8,0.4,28-0.5,42c0,0,0,0,0,0h0.9
					C381.8,640.2,381.8,625.9,381.7,612.1z"/>
				<path class="st1" d="M342.6,596.4l0.3-6.7c0.2-5.2,0.5-10.4,0.7-15.5c0.7-16,0.7-32.6,1.3-49c0.3-8.2,0.6-16.5,0.9-24.5
					c0.4-13.1,1.4-26.6,2-40c0.2-4,0.4-8.1,0.6-12.1c0.8-17.2,2.5-34.9,2.3-52.4c-0.1-8.4-0.4-17-0.8-25.3
					c-0.5-12.8-1.9-26.1-1.5-39.2c0.4-12.7,1.5-25.7,2.7-38.2c0.8-8.6,1.2-17.5,1.7-26.3c1.4-22.2,0.9-43.9-1.3-64.6
					c-1.6-14.5-4-29.2-6.5-43.5c-1.2-6.9-2.5-14-3.6-21c-4-24.8-5.2-45.3-5.3-64.4c-0.1-16.9,0.8-34.1,2.1-50.7
					c0.4-4.6,0.7-9.2,1-13.7c0,0,0,0,0,0h-0.4c-0.3,4.6-0.7,9.1-1,13.7c-1.3,16.6-2.7,33.9-2.6,50.8c0.1,19.2,1.1,39.7,5.1,64.6
					c1.1,7,2.4,14.2,3.6,21.1c2.5,14.2,5.1,28.9,6.7,43.4c2.3,20.6,2.7,42.2,1.3,64.4c-0.6,8.7-0.6,17.6-1.4,26.2
					c-1.2,12.5-3.2,25.5-3.6,38.3c-0.4,13.1,1.3,26.4,1.9,39.3c0.3,8.3,0.7,16.8,0.8,25.2c0.2,17.4-0.9,35.2-1.8,52.3
					c-0.2,4-0.4,8.1-0.6,12.1c-0.6,13.3-2.1,26.9-2.6,40c-0.3,8-0.6,16.3-0.9,24.5c-0.6,16.3-0.9,32.9-1.6,48.9
					c-0.2,5.2-0.5,10.4-0.7,15.5l-0.3,6.7c-0.8,18.9-0.9,38.5-2.3,57.8c0,0,0,0,0,0h0.4C340.5,634.9,341.8,615.3,342.6,596.4z"/>
				<path class="st1" d="M318.2,654.2c-0.1-5.4-0.3-10.8-0.5-16.1c-0.5-15.9-0.9-32.3-0.3-48.4c0.5-12,1.7-24.3,2.8-36.1
					c0.9-9.3,1.7-18.9,2.3-28.3c0.7-10.9,0.6-21.9,0.8-32.6c0.2-10.5,1-21.3,1.6-31.9c0.6-9.4,2.1-19,2.9-28.3
					c1.1-11.9,1.8-24.1,2.3-36.2c0.5-11.5,0.5-23.2,0.3-34.4c-0.1-9.8,0.1-20,0.4-30c0.3-10.3,0.1-20.9,0.8-31.1
					c0.7-11,1.3-22.3,1.5-33.4c0.5-22.2-0.9-45-2.5-64.5c-1.9-22.9-3.8-45.4-5.6-64.5l-0.4-3.6c-1.9-19.9-4.2-40.6-5.1-60.8
					c-0.6-13.4-0.8-27-0.9-40.2c-0.1-7.9-0.2-16.2-0.4-24.2h-0.6c0,0,0,0,0,0c0.2,8.1,0.3,16.3,0.4,24.2c0.2,13.2,0.5,26.8,1.1,40.3
					c0.9,20.3,2.5,40.9,4.4,60.9l0.4,3.6c1.8,19.1,4.1,41.6,6,64.5c1.6,19.5,2.9,42.2,2.4,64.4c-0.2,11.1-0.2,22.4-0.9,33.4
					c-0.7,10.2-1.7,20.7-2,31.1c-0.3,10-0.2,20.2-0.1,30.1c0.1,11.3-0.8,22.9-1.2,34.4c-0.5,12-0.5,24.3-1.6,36.1
					c-0.9,9.3-2.3,18.9-2.8,28.3c-0.6,10.7-1.4,21.5-1.7,32c-0.2,10.7-0.5,21.7-1.2,32.5c-0.6,9.4-0.2,19-1.1,28.3
					c-1.1,11.9-3.3,24.1-3.8,36.2c-0.7,16.2,0.6,32.6,1.1,48.5c0.2,5.3,0.4,10.7,0.5,16L318.2,654.2
					C318.2,654.2,318.2,654.2,318.2,654.2z"/>
				<path class="st1" d="M329.2,626.8c-0.1-12.1-0.1-24.7,0.5-37c0.5-11.3,2.1-22.8,3.1-33.9c0.9-10,2.1-20.4,2.7-30.5
					c0.7-12.5,0-25.2,0.1-37.5c0.1-8.8,0.8-18,1.1-27c0.3-9.8,1.3-19.8,1.9-29.5c0.7-11.5,0.5-23.3,0.7-35c0.2-9.1,1-18.3,0.9-27.2
					c-0.1-12.2-0.2-24.9,0.4-37.3c0.5-10.4,1.2-21.1,2.1-31.3c1-10.9,2.1-22.1,2.5-33.1c0.8-19.3,0.1-39.9-2.6-64.6
					c-1.9-17.5-5-35.3-7.5-52.5c-0.6-4-1.2-8-1.7-12c-3.1-21.6-6.2-42.8-6.7-64.4c-0.3-13.3,1.3-26.9,1.9-40c0.4-8,0.8-16.3,1-24.4
					c0,0,0,0,0,0h-2.1c-0.2,8.1-0.6,16.4-1,24.4c-0.6,13.1-1.1,26.7-0.8,40.1c0.5,21.7,3.9,42.9,7,64.6c0.6,4,1.2,8,1.7,12
					c2.5,17.2,5.1,35,7,52.4c2.6,24.6,2.7,45.1,1.9,64.4c-0.5,11-1.6,22.2-2.6,33.1c-1,10.3-0.8,20.9-1.3,31.4
					c-0.6,12.5-0.9,25.1-0.8,37.4c0.1,8.9,0.1,18.1-0.1,27.1c-0.3,11.6-1.9,23.5-2.5,34.9c-0.6,9.7-1,19.7-1.3,29.5
					c-0.3,9,0,18.2-0.1,27c-0.1,12.3,0.5,25-0.2,37.5c-0.6,10.2-1.9,20.5-2.8,30.5c-1.1,11.1-1.8,22.7-2.3,34
					c-0.6,12.4-1.5,24.9-1.4,37.1c0.1,9,0,18.3-0.2,27.4c0,0,0,0,0,0h2.1C330,645,329.3,635.8,329.2,626.8z"/>
			</g>
		</g>
	</g>
</g>
</svg>
