<!--?xml version="1.0" encoding="utf-8"?-->
<!-- Generator: Adobe Illustrator 15.0.0, SVG Export Plug-In . SVG Version: 6.00 Build 0)  -->

<svg xmlns="http://www.w3.org/2000/svg" xmlns:xlink="http://www.w3.org/1999/xlink" width="500px" height="500px" viewBox="0 0 500 500">
<path fill-rule="evenodd" clip-rule="evenodd" d="M367.778,133.917c14.887,39.001,11.688,96.092,43.374,118.292
	c-6.011,5.241-13.541-4.775-19.715-5.915c21.585,62.258-28.449,97.224-33.517,151.809c-5.921-11.165-6.371-27.804-5.915-45.346
	c-13.597,27.442-41.4,50.205-39.431,86.748c-11.631-6.771-12.881-23.92-15.772-39.431c-22.619,17.471-19.611,60.565-45.346,74.919
	c2.628-24.3-6.263-50.637-11.829-72.947c-5.634,10.584-6.013,35.189,1.972,43.374c-18.31,0.551-31.138-21.425-43.374-33.517
	c-6.071,6.416-7.028,17.944-17.744,19.716c6.386-36.218-23.496-52.546-29.573-82.805c-3.592,14.808-1.241,35.561-5.915,49.288
	c-7.95-52.401-55.962-89.937-35.488-151.809c-5.057-1.699-13.451,10.155-23.659,9.858c31.239-24.621,27.723-83.999,45.346-122.236
	c-8.986,2.843-16.883,6.775-23.659,11.829c6.986-14.713,26.26-34.192,39.431-49.289c-14.635,0.481-24.429,5.802-41.402,3.943
	c34.545-14.087,54-43.264,96.605-49.289c-1.489-8.368-4.604-15.112-3.943-25.63c5.437-4.604,11.899,8.472,19.715,13.801
	c8.595,5.861,20.171,8.872,27.602,13.801c14.586-17.615,52.764-11.64,69.004-27.602c4.542,7.899-3.086,20.518-5.915,27.602
	c26.791,15.269,46.164,37.956,70.976,55.203c-7.882,0.655-10.943-3.515-19.715-1.971c2.597,9.258,17.94,22.785,25.63,33.516
	C381.847,143.375,374.724,133.641,367.778,133.917z M247.514,110.258c7.413-35.304,28.837-56.596,57.175-70.976
	c-27.452,2.779-49.266,11.195-57.175,33.516c-8.502-16.471-29.46-20.484-41.402-33.516
	C213.138,69.715,248.177,72.136,247.514,110.258z M148.937,86.599c36.704-11.315,74.917-5.323,88.719,21.687
	C242.035,54.97,168.595,52.886,148.937,86.599z M312.575,64.912c-36.664-5.118-48.148,14.94-51.26,43.374
	c13.125-7.942,12.118-19.003,25.63-23.658c23.27-8.017,42.796,15.042,65.061,11.829C337.222,87.583,328.355,72.791,312.575,64.912z
	 M166.681,149.689c-6.243-37.787,19.138-43.952,45.346-49.289c-37.511-12.548-69.486,5.764-84.776,27.602
	c10.831,0.315,16.265-4.765,23.658-7.886c-20.169,27.808-24.249,82.211-37.459,110.407c22.123-16.65,29.599-47.948,41.402-74.919
	c5.05,4.861,13.642,16.516,19.715,13.801C169.964,165.603,154.337,140.087,166.681,149.689z M383.551,228.551
	c-16.435-28.258-21.181-78.706-33.516-104.492c3.875,0.88,12.192,7.313,15.771,1.972c-15.957-17.026-48.943-41.408-80.833-23.659
	c30.736,0.268,50.392,19.512,47.317,47.317c0.472-2.142,3.246-4.733,3.942-1.972c-1.823,8.741-12.293,19.186-11.829,23.659
	c7.611-2.251,13.018-14.988,19.716-11.83C351.44,187.063,363.924,219.911,383.551,228.551z M312.575,181.233
	c-0.006-1.978,1.597-2.346,1.972-3.943c11.282-27.089,7.938-72.088-31.545-67.033c-8.187,1.048-12.106,7.885-19.716,9.858
	c-22.956,5.95-30.465-8.277-49.288-9.858c-37.281-3.129-41.708,36.545-29.573,69.004c-5.572,1.629-5.108-2.778-9.858-1.972
	c-4.765,13.85-0.032,28.503,9.858,33.516c9.905-24.268,35.574-48.91,1.972-65.061c15.768-2.624,19.947,6.34,29.573,9.858
	c6.908-0.882,4.035-8.483,5.915-9.858c0.08,35.627-51.825,63.655-23.659,104.492c20.135-6.718,29.189-16.047,47.317-21.687
	c4.127-25.157-25.096-16.964-27.602-35.488c16.5,8.833,47.764,4.245,61.118,1.971c-4.146,14.91-26.157,11.959-27.602,29.573
	c13.757,10.56,30.013,18.619,47.317,25.63c30.879-37.031-20.857-70.354-23.658-102.52c4.02,1.237,0.552,9.962,7.886,7.886
	c6.633-4.583,17.975-14.824,29.573-7.886c-10.097,5.02-18.462,11.769-21.687,23.659c9.863,12.48,18.504,26.185,25.63,41.402
	c4.037-10.333,14.342-18.445,7.886-33.516C321.34,176.015,316.723,179.936,312.575,181.233z M115.42,258.124
	c-7.335,31.396,10.05,66.784,23.659,84.776c-24.438-67.044,16.783-107.835,19.715-165.61
	C152.272,202.757,122.235,228.957,115.42,258.124z M365.807,344.872c37.987-58.661,0.727-126.876-29.573-167.582
	C344.609,233.739,376.393,274.649,365.807,344.872z M188.368,396.132c1.221-5.351-2.503-15.646,1.972-17.743
	c11.243,17.016,24.574,31.943,37.459,47.316c-9.991-44.242-50.321-74.612-51.26-124.207c-0.46-24.294,11.101-40.617,3.943-67.033
	c-2.382,17.333-8.917,30.513-13.801,45.345c-0.033-20.42,13.133-38.105,7.886-57.174c-4.559,15.156-11.35,28.081-17.744,41.403
	c0.362-18.715,15.236-33.372,9.857-51.261C115.943,267.729,158.772,349.226,188.368,396.132z M320.462,303.47
	c-4.223,52.854-61.994,81.338-57.176,136.036c7.506-29.303,31.416-52.696,49.289-65.061c-3.14,4.174-6.659,18.198-1.972,23.658
	c6.262-28.924,38.422-56.029,43.374-90.69c5.917-41.414-7.279-68.818-25.63-94.635c-4.653,17.158,14.326,36.433,9.857,53.231
	c-3.514-16.859-12.162-28.582-17.743-43.374c-2.116,23.162,12.896,39.658,7.886,59.146c-3.462-16.271-9.586-40.337-15.772-47.317
	C312.123,254.575,322.06,283.479,320.462,303.47z M213.998,248.266c1.017,7.526,2.31,14.775,7.886,17.744
	c-1.456-9.342,2.218-13.554,1.971-21.687C218.951,244.019,217.752,247.42,213.998,248.266z M279.059,266.01
	c3.811-4.075,4.806-10.967,7.887-15.772c-6.068,1.47-3.789-5.411-9.857-3.943C278.323,252.286,274.563,263.276,279.059,266.01z
	 M253.429,400.075c4.91-40.786-31.483-56.555-45.345-82.805c-10.551-19.979-0.893-50.924-19.716-69.004
	c-6.436,61.205,7.5,112.848,39.431,145.895c-2.422-14.009-5.059-27.801-9.858-39.432
	C234.016,365.601,240.975,385.585,253.429,400.075z M245.542,344.872c5.942,5.888,19.24,4.419,27.602,7.886
	c-3.874,11.27-14.712,26-9.858,39.432c29.273-32.91,55.791-79.011,43.374-141.952C285.063,280.558,303.463,350.875,245.542,344.872z
	 M227.799,303.47c3.434-0.148,6.131,0.44,7.886,1.972c-0.878-5.037-2.765-9.064-5.915-11.83
	C228.115,295.901,227.17,298.896,227.799,303.47z M265.258,305.441c4.086-3,8.256-8.416,1.972-11.83
	C268.753,298.648,259.515,302.677,265.258,305.441z M217.941,313.327c3.164,23.476,63.413,27.437,61.118-3.943
	C261.964,313.046,229.933,303.668,217.941,313.327z" id="path-0" style="position: relative;"></path>
<path fill-rule="evenodd" clip-rule="evenodd" fill="#FFFFFF" d="M206.112,39.282c11.942,13.032,32.9,17.045,41.402,33.516
	c7.91-22.321,29.723-30.737,57.175-33.516c-28.338,14.379-49.763,35.672-57.175,70.976
	C248.177,72.136,213.138,69.715,206.112,39.282z" id="path-1" style="position: relative;"></path>
<path fill-rule="evenodd" clip-rule="evenodd" fill="#FFFFFF" d="M237.656,108.286c-13.803-27.01-52.016-33.002-88.719-21.687
	C168.595,52.886,242.035,54.97,237.656,108.286z" id="path-2" style="position: relative;"></path>
<path fill-rule="evenodd" clip-rule="evenodd" fill="#FFFFFF" d="M352.006,96.457c-22.265,3.212-41.791-19.846-65.061-11.829
	c-13.512,4.655-12.505,15.716-25.63,23.658c3.111-28.434,14.596-48.492,51.26-43.374C328.355,72.791,337.222,87.583,352.006,96.457z
	" id="path-3" style="position: relative;"></path>
<path fill-rule="evenodd" clip-rule="evenodd" d="M235.685,149.689c6.872-3.339,17.936,1.914,27.601-1.972
	C258.678,158.03,243.069,156.304,235.685,149.689z" id="path-4" style="position: relative;"></path>
<path fill-rule="evenodd" clip-rule="evenodd" d="M263.286,167.433c7.316-5.255,12.889,8.074,13.802,15.772
	C270.628,179.807,268.741,171.836,263.286,167.433z" id="path-5" style="position: relative;"></path>
<path fill-rule="evenodd" clip-rule="evenodd" fill="#FFFFFF" d="M336.233,177.291c30.3,40.706,67.561,108.92,29.573,167.582
	C376.393,274.649,344.609,233.739,336.233,177.291z" id="path-6" style="position: relative;"></path>
<path fill-rule="evenodd" clip-rule="evenodd" fill="#FFFFFF" d="M166.681,212.778c5.378,17.889-9.496,32.546-9.857,51.261
	c6.394-13.322,13.185-26.247,17.744-41.403c5.247,19.069-7.919,36.754-7.886,57.174c4.884-14.832,11.418-28.012,13.801-45.345
	c7.158,26.416-4.403,42.739-3.943,67.033c0.939,49.595,41.27,79.965,51.26,124.207c-12.885-15.373-26.216-30.301-37.459-47.316
	c-4.475,2.097-0.751,12.393-1.972,17.743C158.772,349.226,115.943,267.729,166.681,212.778z" id="path-7" style="position: relative;"></path>
<path fill-rule="evenodd" clip-rule="evenodd" fill="#FFFFFF" d="M223.855,244.323c0.247,8.133-3.427,12.345-1.971,21.687
	c-5.576-2.969-6.87-10.218-7.886-17.744C217.752,247.42,218.951,244.019,223.855,244.323z" id="path-8" style="position: relative;"></path>
<path fill-rule="evenodd" clip-rule="evenodd" fill="#FFFFFF" d="M277.088,246.294c6.068-1.468,3.789,5.413,9.857,3.943
	c-3.081,4.806-4.076,11.697-7.887,15.772C274.563,263.276,278.323,252.286,277.088,246.294z" id="path-9" style="position: relative;"></path>
<path fill-rule="evenodd" clip-rule="evenodd" fill="#FFFFFF" d="M217.941,354.729c4.799,11.631,7.436,25.423,9.858,39.432
	c-31.931-33.047-45.867-84.69-39.431-145.895c18.823,18.081,9.165,49.025,19.716,69.004c13.862,26.25,50.255,42.019,45.345,82.805
	C240.975,385.585,234.016,365.601,217.941,354.729z" id="path-10" style="position: relative;"></path>
<path fill-rule="evenodd" clip-rule="evenodd" fill="#FFFFFF" d="M229.771,293.611c3.149,2.766,5.037,6.793,5.915,11.83
	c-1.755-1.531-4.453-2.12-7.886-1.972C227.17,298.896,228.115,295.901,229.771,293.611z" id="path-11" style="position: relative;"></path>
<path fill-rule="evenodd" clip-rule="evenodd" fill="#FFFFFF" d="M267.229,293.611c6.284,3.414,2.114,8.83-1.972,11.83
	C259.515,302.677,268.753,298.648,267.229,293.611z" id="path-12" style="position: relative;"></path>
<path fill-rule="evenodd" clip-rule="evenodd" fill="#FFFFFF" d="M279.059,309.384c2.295,31.38-57.954,27.419-61.118,3.943
	C229.933,303.668,261.964,313.046,279.059,309.384z" id="path-13" style="position: relative;"></path>
<path fill-rule="evenodd" clip-rule="evenodd" fill="#FFFFFF" d="M174.567,169.404c-6.073,2.715-14.665-8.939-19.715-13.801
	c-11.803,26.971-19.279,58.269-41.402,74.919c13.21-28.196,17.29-82.599,37.459-110.407c-7.393,3.121-12.827,8.202-23.658,7.886
	c15.29-21.837,47.265-40.149,84.776-27.602c-26.208,5.337-51.588,11.502-45.346,49.289
	C154.337,140.087,169.964,165.603,174.567,169.404z" id="path-14" style="position: relative;"></path>
<path fill-rule="evenodd" clip-rule="evenodd" fill="#FFFFFF" d="M344.12,159.546c-6.698-3.158-12.104,9.579-19.716,11.83
	c-0.464-4.473,10.006-14.917,11.829-23.659c-0.696-2.762-3.471-0.17-3.942,1.972c3.074-27.806-16.581-47.05-47.317-47.317
	c31.89-17.75,64.876,6.633,80.833,23.659c-3.579,5.342-11.896-1.092-15.771-1.972c12.335,25.786,17.081,76.234,33.516,104.492
	C363.924,219.911,351.44,187.063,344.12,159.546z" id="path-15" style="position: relative;"></path>
<path fill-rule="evenodd" clip-rule="evenodd" d="M235.685,165.461c-3.842,7.988-11.349,12.31-13.801,21.687
	C219.433,180.689,225.262,165.602,235.685,165.461z" id="path-16" style="position: relative;"></path>
<path fill-rule="evenodd" clip-rule="evenodd" fill="#FFFFFF" d="M158.794,177.291c-2.932,57.774-44.153,98.566-19.715,165.61
	c-13.608-17.992-30.994-53.38-23.659-84.776C122.235,228.957,152.272,202.757,158.794,177.291z" id="path-17" style="position: relative;"></path>
<path fill-rule="evenodd" clip-rule="evenodd" fill="#FFFFFF" d="M312.575,234.465c6.187,6.979,12.311,31.046,15.772,47.317
	c5.01-19.488-10.002-35.984-7.886-59.146c5.581,14.792,14.229,26.515,17.743,43.374c4.469-16.798-14.511-36.074-9.857-53.231
	c18.351,25.817,31.547,53.221,25.63,94.635c-4.952,34.661-37.112,61.767-43.374,90.69c-4.688-5.46-1.168-19.484,1.972-23.658
	c-17.873,12.364-41.783,35.758-49.289,65.061c-4.818-54.698,52.953-83.182,57.176-136.036
	C322.06,283.479,312.123,254.575,312.575,234.465z" id="path-18" style="position: relative;"></path>
<path fill-rule="evenodd" clip-rule="evenodd" fill="#FFFFFF" d="M306.66,250.237c12.417,62.941-14.101,109.042-43.374,141.952
	c-4.854-13.432,5.984-28.162,9.858-39.432c-8.362-3.467-21.66-1.998-27.602-7.886C303.463,350.875,285.063,280.558,306.66,250.237z" id="path-19" style="position: relative;"></path>
<path fill-rule="evenodd" clip-rule="evenodd" fill="#FFFFFF" d="M324.404,179.262c6.456,15.071-3.849,23.183-7.886,33.516
	c-7.126-15.218-15.767-28.922-25.63-41.402c3.225-11.89,11.59-18.639,21.687-23.659c-11.599-6.938-22.94,3.303-29.573,7.886
	c-7.334,2.076-3.866-6.649-7.886-7.886c2.801,32.166,54.537,65.489,23.658,102.52c-17.305-7.011-33.561-15.07-47.317-25.63
	c1.444-17.614,23.455-14.663,27.602-29.573c-13.354,2.274-44.617,6.862-61.118-1.971c2.506,18.523,31.729,10.331,27.602,35.488
	c-18.128,5.639-27.182,14.969-47.317,21.687c-28.166-40.837,23.738-68.864,23.659-104.492c-1.88,1.375,0.993,8.976-5.915,9.858
	c-9.625-3.518-13.805-12.482-29.573-9.858c33.603,16.151,7.933,40.793-1.972,65.061c-9.89-5.013-14.623-19.666-9.858-33.516
	c4.75-0.807,4.286,3.601,9.858,1.972c-12.135-32.459-7.708-72.134,29.573-69.004c18.823,1.581,26.333,15.808,49.288,9.858
	c7.609-1.973,11.529-8.81,19.716-9.858c39.483-5.056,42.827,39.943,31.545,67.033c-0.375,1.597-1.978,1.965-1.972,3.943
	C316.723,179.936,321.34,176.015,324.404,179.262z M263.286,147.717c-9.665,3.885-20.729-1.368-27.601,1.972
	C243.069,156.304,258.678,158.03,263.286,147.717z M221.884,187.148c2.452-9.377,9.958-13.699,13.801-21.687
	C225.262,165.602,219.433,180.689,221.884,187.148z M277.088,183.205c-0.913-7.698-6.485-21.027-13.802-15.772
	C268.741,171.836,270.628,179.807,277.088,183.205z" id="path-20" style="position: relative;"></path>
</svg>
